<?xml version="1.0" encoding="utf-8"?>
<!-- Generator: Adobe Illustrator 27.5.0, SVG Export Plug-In . SVG Version: 6.00 Build 0)  -->
<svg version="1.1" xmlns="http://www.w3.org/2000/svg" xmlns:xlink="http://www.w3.org/1999/xlink" x="0px" y="0px"
	 viewBox="0 0 500 500" style="enable-background:new 0 0 500 500;" xml:space="preserve">
<g id="BACKGROUND">
	<rect style="fill:#FFFFFF;" width="500" height="500"/>
</g>
<g id="OBJECTS">
	<g>
		<ellipse style="opacity:0.1;fill:#243845;" cx="152.644" cy="120.529" rx="51.711" ry="50.807"/>
		<path style="opacity:0.1;fill:#243845;" d="M197.055,231.968c0,3.468-28.396,6.279-63.424,6.279s-63.424-2.811-63.424-6.279
			c0-3.468,28.396-6.279,63.424-6.279S197.055,228.5,197.055,231.968z"/>
		<g>
			<g>
				<path style="fill:#243845;" d="M163.288,69.534c0,0,3.706-3.147,5.43-9.051c1.724-5.904-1.258-13.026-1.115-18.158
					c0.144-5.132-2.404-11.626-12.251-12.118c-9.945-0.497-15.146,2.478-17.891,10.977c-2.14,6.624,1.367,11.947-5.632,16.976
					c-6.999,5.029,0.262,10.36-1.94,15.695c-2.202,5.335-11.441,9.135-8.89,17.611c2.551,8.476,15.425,12.22,23.456,7.359
					C152.486,93.965,163.288,69.534,163.288,69.534z"/>
				<g>
					<path style="fill:#8C33F2;" d="M168.606,122.487l0.056,0.247l-30.824,1.311c1.639-6.909,3.61-14.144,4.093-18.974
						c0.028-0.269,0.05-0.527,0.067-0.779c-1.709-6.204-2.97-11.892-3.889-16.709c-1.812-9.457-2.306-15.546-2.306-15.546
						c0.555-0.431,1.368-0.845,2.32-1.234c1.047-0.425,2.267-0.82,3.495-1.171v-0.003c1.748-0.499,3.515-0.908,4.857-1.196
						c1.368-0.294,2.289-0.458,2.289-0.458c6.867,1.415,8.492,0.319,8.492,0.319l1.608,0.432l3.503,1.21h0.003l5.122,1.769
						l1.764,0.61l-1.063,16.925v0.003l-3.501,15.875v0.003l-0.053,0.241L168.606,122.487z"/>
					<path style="fill:#F9AF8B;" d="M162.367,69.936c-1.108,3.258-3.621,8.072-8.905,8.845c-6.546,0.96-10.546-6.308-11.845-9.15
						c-0.003-0.003,0-0.003,0-0.003c1.748-0.499,3.515-0.908,4.857-1.196c1.368-0.294,2.47-0.617,2.47-0.617
						c6.867,1.415,8.178,0.159,8.178,0.159c0.58,0.323,1.16,0.572,1.741,0.751L162.367,69.936z"/>
					<path style="fill:#F9AF8B;" d="M168.661,122.734l-30.824,1.311c1.223-5.154,2.63-10.491,3.464-14.874
						c0.287-1.492,0.505-2.874,0.628-4.1c2.811,1.212,7.158,2.532,12.475,2.329c4.857-0.187,8.185-1.264,10.287-2.282v0.003
						l0.137,0.606l3.777,16.761L168.661,122.734z"/>
					<path style="fill:#F88867;" d="M153.827,115.032c0,0.682-0.291,1.234-0.649,1.234c-0.358,0-0.649-0.552-0.649-1.234
						s0.291-1.234,0.649-1.234C153.536,113.798,153.827,114.351,153.827,115.032z"/>
					<path style="fill:#F88867;" d="M164.828,105.726c-3.543,2.123-12.149,6.119-23.527,3.445c0.287-1.492,0.505-2.874,0.628-4.1
						c2.811,1.212,7.158,2.532,12.475,2.329c4.857-0.187,8.185-1.264,10.287-2.282v0.003L164.828,105.726z"/>
					<path style="fill:#F9AF8B;" d="M138.108,87.583c-1.812-9.457-2.306-15.546-2.306-15.546c0.555-0.431,1.368-0.845,2.32-1.234
						C138.965,73.642,141.243,82.611,138.108,87.583z"/>
					<path style="fill:#F9AF8B;" d="M169.256,72.315l-1.063,16.925c-4.014-3.483-1.926-13.129-0.701-17.534L169.256,72.315z"/>
				</g>
				<g>
					<g>
						<g>
							<path style="fill:#F9AF8B;" d="M167.941,217.892l-0.424,6.367l-4.114,0.352l-0.813-6.673
								C162.591,217.938,165.846,216.681,167.941,217.892z"/>
							<g>
								<path style="fill:#FABF01;" d="M162.865,232.359c0.063,0.438,0.12,0.872,0.168,1.302h20.707
									c0-0.445-0.061-0.883-0.176-1.302c-0.344-1.248-1.172-2.336-2.337-3.008c-3.165-1.825-7.836-2.675-7.836-2.675
									c-1.344-1.241-5.346-3.32-5.346-3.32c-3.318,1.32-5.185,0.721-5.185,0.721C161.995,226.962,162.496,229.722,162.865,232.359
									z"/>
								<path style="fill:#FA9C01;" d="M162.865,232.359c0.063,0.438,0.12,0.872,0.168,1.302h20.707
									c0-0.445-0.061-0.883-0.176-1.302H162.865z"/>
							</g>
						</g>
						<path style="fill:#243845;" d="M171.45,134.765l0.067,24.904l-0.148,7.591l-0.24,12.235l-2.606,39.522
							c-1.491,1.183-4.272,1.087-6.723,0.32l-2.324-21.752c-1.314-5.638-1.439-18.084-0.599-24.581
							c0.009-0.069,0.017-0.136,0.027-0.204l-0.715-8.961l-2.101-26.334L171.45,134.765z"/>
					</g>
					<g>
						<g>
							<path style="fill:#F9AF8B;" d="M139.015,217.892l0.424,6.367l4.113,0.352l0.813-6.673
								C144.366,217.938,141.11,216.681,139.015,217.892z"/>
							<g>
								<path style="fill:#FABF01;" d="M144.091,232.359c-0.063,0.438-0.12,0.872-0.168,1.302h-20.707
									c0-0.445,0.061-0.883,0.176-1.302c0.344-1.248,1.172-2.336,2.337-3.008c3.165-1.825,7.836-2.675,7.836-2.675
									c1.344-1.241,5.346-3.32,5.346-3.32c3.318,1.32,5.186,0.721,5.186,0.721C144.962,226.962,144.461,229.722,144.091,232.359z"
									/>
								<path style="fill:#FA9C01;" d="M144.091,232.359c-0.063,0.438-0.12,0.872-0.168,1.302h-20.707
									c0-0.445,0.061-0.883,0.176-1.302H144.091z"/>
							</g>
						</g>
						<path style="fill:#243845;" d="M135.507,134.765l-0.067,24.904l0.148,7.591l0.24,12.235l2.606,39.522
							c1.491,1.183,4.272,1.087,6.723,0.32l2.324-21.752c1.314-5.638,1.439-18.084,0.599-24.581
							c-0.009-0.069-0.017-0.136-0.027-0.204l0.715-8.961l2.101-26.334L135.507,134.765z"/>
					</g>
					<path style="fill:#243845;" d="M135.614,138.386c0,0-1.092-7.164,2.753-16.543c0,0,17.438,3.75,29.834-1.1
						c0,0,3.235,8.761,3.249,14.023C171.45,134.765,159.939,142.222,135.614,138.386z"/>
				</g>
				<g>
					<g>
						<path style="fill:#DC3E2F;" d="M105.583,78.873v2.373h-2.968c-1.907,0-3.45-2.165-3.45-4.836c0-2.669,1.543-4.834,3.45-4.834
							h2.968v2.373V78.873z"/>
						<path style="fill:#FD5B42;" d="M108.796,76.41c0,2.67-1.544,4.835-3.449,4.835c-1.905,0-3.449-2.165-3.449-4.835
							c0-2.67,1.544-4.835,3.449-4.835C107.252,71.576,108.796,73.74,108.796,76.41z"/>
					</g>
					<path style="fill:#DC3E2F;" d="M109.84,75.06h-5.06c-0.523,0.859-0.478,1.763,0,2.702h5.06V75.06z"/>
					<path style="fill:#F9AF8B;" d="M135.802,72.037c-3.857,7.156-6.395,11.849-9.227,24.916c0,0-1.04-4.002-3.056-6.626
						c-2.017-2.624-5.938-11.458-5.938-11.458l-4.017,4.443c0,0,4.292,19.258,10.915,24.255
						c6.287,4.743,13.628-19.983,13.628-19.983S139.789,78.565,135.802,72.037z"/>
					<path style="fill:#F9AF8B;" d="M113.564,83.312c0,0-2.969-1.973-4.89-5.319c-1.921-3.346-0.087-7.212,1.921-7.596
						c2.008-0.383,5.851-0.111,6.986,1.641c1.135,1.751,0.96,3.038,0,4.153v2.678C117.581,78.868,115.398,83.397,113.564,83.312z"/>
					<path style="fill:#DC3E2F;" d="M123.473,77.762l-7.466,0c-0.739-0.976-0.891-1.892,0-2.702h7.466V77.762z"/>
					<g>
						<path style="fill:#DC3E2F;" d="M125.075,78.873v2.373h-2.968c-1.907,0-3.45-2.165-3.45-4.836c0-2.669,1.543-4.834,3.45-4.834
							h2.968v2.373V78.873z"/>
						<path style="fill:#FD5B42;" d="M128.289,76.41c0,2.67-1.544,4.835-3.449,4.835c-1.905,0-3.449-2.165-3.449-4.835
							c0-2.67,1.544-4.835,3.449-4.835C126.744,71.576,128.289,73.74,128.289,76.41z"/>
					</g>
				</g>
				<g>
					<g>
						<path style="fill:#FD5B42;" d="M199.666,78.873v2.373h2.968c1.907,0,3.45-2.165,3.45-4.836c0-2.669-1.543-4.834-3.45-4.834
							h-2.968v2.373V78.873z"/>
						<path style="fill:#DC3E2F;" d="M196.453,76.41c0,2.67,1.544,4.835,3.449,4.835c1.905,0,3.449-2.165,3.449-4.835
							c0-2.67-1.544-4.835-3.449-4.835C197.997,71.576,196.453,73.74,196.453,76.41z"/>
					</g>
					<path style="fill:#DC3E2F;" d="M195.409,75.06h5.06c0.523,0.859,0.478,1.763,0,2.702h-5.06V75.06z"/>
					<path style="fill:#F9AF8B;" d="M169.256,72.315c3.857,7.156,6.587,11.571,9.418,24.638c0,0,1.04-4.002,3.056-6.626
						c2.017-2.624,5.938-11.458,5.938-11.458l4.017,4.443c0,0-4.292,19.258-10.915,24.255c-6.287,4.743-13.628-19.983-13.628-19.983
						S165.268,78.843,169.256,72.315z"/>
					<path style="fill:#F9AF8B;" d="M191.685,83.312c0,0,2.969-1.973,4.89-5.319c1.921-3.346,0.087-7.212-1.921-7.596
						c-2.008-0.383-5.851-0.111-6.986,1.641c-1.135,1.751-0.961,3.038,0,4.153v2.678C187.668,78.868,189.851,83.397,191.685,83.312z
						"/>
					<path style="fill:#DC3E2F;" d="M181.776,77.762l7.466,0c0.739-0.976,0.891-1.892,0-2.702h-7.466V77.762z"/>
					<g>
						<path style="fill:#DC3E2F;" d="M180.174,78.873v2.373h2.968c1.907,0,3.45-2.165,3.45-4.836c0-2.669-1.543-4.834-3.45-4.834
							h-2.968v2.373V78.873z"/>
						<path style="fill:#FD5B42;" d="M176.961,76.41c0,2.67,1.544,4.835,3.449,4.835c1.905,0,3.449-2.165,3.449-4.835
							c0-2.67-1.544-4.835-3.449-4.835C178.505,71.576,176.961,73.74,176.961,76.41z"/>
					</g>
				</g>
				<g>
					<g>
						<path style="fill:#F9AF8B;" d="M157.133,60.713l-0.005,2.481l-0.004,2.804l-0.003,2.422c-1.266,1.028-2.939,1.104-4.436,0.854
							c-2.017-0.336-3.723-1.264-3.723-1.264l-0.018-0.193l-0.665-6.991l-0.123-1.276c0.695-0.515,1.947-0.447,3.303-0.19
							c1.333,0.248,2.771,0.684,3.882,0.921C156.4,60.511,157.133,60.713,157.133,60.713z"/>
					</g>
					<g>
						<path style="fill:#F88867;" d="M157.133,60.714l-0.008,5.284c-3.673-0.629-6.984-5.405-6.984-5.405l5.203-0.312
							C156.402,60.51,157.133,60.714,157.133,60.714z"/>
					</g>
					<g>
						<path style="fill:#F9AF8B;" d="M163.117,61.956c-1.92,0.979-3.983,1.302-5.987,1.237c-1.914-0.06-3.774-0.468-5.423-0.998
							c-1.303-0.419-2.473-0.915-3.429-1.37c-0.773-0.368-1.411-0.714-1.861-0.97c-0.486-0.281-0.758-0.461-0.758-0.461
							s-0.316-1.275-0.626-3.153c-0.328-1.995-0.656-4.67-0.597-7.207c0.072-3.036,0.693-5.877,2.523-7.125l3.258-0.534
							l15.431-2.525c0,0,0.061,0.225,0.159,0.629c0.211,0.883,0.597,2.627,0.928,4.778c0.026,0.161,0.049,0.323,0.073,0.491
							C167.678,50.736,167.998,59.472,163.117,61.956z"/>
					</g>
					<g>
						<g>
							<g>
								<path style="fill:#F9AF8B;" d="M147.349,50.443c0,0-2.442-2.747-4.293-0.683c-2.039,2.274,0.201,8.644,4.928,7.789
									L147.349,50.443z"/>
							</g>
						</g>
					</g>
					<g>
						<path style="fill:#243845;" d="M165.806,39.482c0.303,1.963-2.832,4.521-15.543,6.836c0,0,1.029,5.765-1.573,5.674
							c-0.618-0.022-1.797-3.219-4.253-2.958c0.071-3.035,0.693-5.875,2.523-7.123l18.689-3.059
							C165.648,38.851,165.708,39.076,165.806,39.482z"/>
					</g>
					<g>
						<path style="fill:#243845;" d="M150.751,41.967c0,0,0.044,8.884,0.708,17.393c0.074,0.953,0.157,1.905,0.249,2.836
							c0.253,2.591-0.715,4.76-2.764,5.621l-0.665-6.991c-0.776-0.368-1.411-0.714-1.861-0.97c-0.489-0.28-0.761-0.461-0.761-0.461
							s-0.391-1.009-0.623-3.154c-0.217-2.01-0.659-4.67-0.597-7.207c0.07-3.036,0.693-5.877,2.523-7.125l3.258-0.534
							C150.63,41.632,150.751,41.967,150.751,41.967z"/>
					</g>
				</g>
			</g>
		</g>
		<g>
			<path style="fill:#8C33F2;" d="M76.571,169.794v58.527c0,1.326,0.805,2.401,1.798,2.401h1.68c0.993,0,1.798-1.075,1.798-2.401
				v-58.527c0-0.548-0.333-0.993-0.744-0.993h-3.79C76.904,168.801,76.571,169.245,76.571,169.794z"/>
			<path style="fill:#8C33F2;" d="M119.007,169.794v58.527c0,1.326,0.805,2.401,1.798,2.401h1.681c0.993,0,1.798-1.075,1.798-2.401
				v-58.527c0-0.548-0.333-0.993-0.744-0.993h-3.79C119.34,168.801,119.007,169.245,119.007,169.794z"/>
			<g>
				<g>
					<g>
						<path style="fill:#385360;" d="M88.736,193.929v12.444c0,0.807-0.666,1.461-1.485,1.461h-3.917
							c-0.821,0-1.487-0.654-1.487-1.461v-12.444c0-0.804,0.666-1.459,1.487-1.459h3.917
							C88.07,192.471,88.736,193.125,88.736,193.929z"/>
						<path style="fill:#243845;" d="M88.736,193.929v12.444c0,0.807-0.666,1.461-1.485,1.461h-1.958v-15.363h1.958
							C88.07,192.471,88.736,193.125,88.736,193.929z"/>
					</g>
					<g>
						<path style="fill:#385360;" d="M112.118,193.929v12.444c0,0.807,0.666,1.461,1.485,1.461h3.917
							c0.821,0,1.487-0.654,1.487-1.461v-12.444c0-0.804-0.666-1.459-1.487-1.459h-3.917
							C112.784,192.471,112.118,193.125,112.118,193.929z"/>
						<path style="fill:#243845;" d="M112.118,193.929v12.444c0,0.807,0.666,1.461,1.485,1.461h1.958v-15.363h-1.958
							C112.784,192.471,112.118,193.125,112.118,193.929z"/>
					</g>
					<rect x="88.736" y="198.692" style="fill:#243845;" width="23.383" height="2.919"/>
				</g>
				<g>
					<g>
						<path style="fill:#385360;" d="M88.736,175.43v12.444c0,0.807-0.666,1.461-1.485,1.461h-3.917
							c-0.821,0-1.487-0.654-1.487-1.461V175.43c0-0.804,0.666-1.459,1.487-1.459h3.917C88.07,173.971,88.736,174.626,88.736,175.43
							z"/>
						<path style="fill:#243845;" d="M88.736,175.43v12.444c0,0.807-0.666,1.461-1.485,1.461h-1.958v-15.363h1.958
							C88.07,173.971,88.736,174.626,88.736,175.43z"/>
					</g>
					<g>
						<path style="fill:#385360;" d="M112.118,175.43v12.444c0,0.807,0.666,1.461,1.485,1.461h3.917
							c0.821,0,1.487-0.654,1.487-1.461V175.43c0-0.804-0.666-1.459-1.487-1.459h-3.917
							C112.784,173.971,112.118,174.626,112.118,175.43z"/>
						<path style="fill:#243845;" d="M112.118,175.43v12.444c0,0.807,0.666,1.461,1.485,1.461h1.958v-15.363h-1.958
							C112.784,173.971,112.118,174.626,112.118,175.43z"/>
					</g>
					<rect x="88.736" y="180.193" style="fill:#243845;" width="23.383" height="2.919"/>
				</g>
				<g>
					<g>
						<path style="fill:#385360;" d="M88.736,212.428v12.444c0,0.807-0.666,1.461-1.485,1.461h-3.917
							c-0.821,0-1.487-0.654-1.487-1.461v-12.444c0-0.804,0.666-1.459,1.487-1.459h3.917
							C88.07,210.97,88.736,211.624,88.736,212.428z"/>
						<path style="fill:#243845;" d="M88.736,212.428v12.444c0,0.807-0.666,1.461-1.485,1.461h-1.958V210.97h1.958
							C88.07,210.97,88.736,211.624,88.736,212.428z"/>
					</g>
					<g>
						<path style="fill:#385360;" d="M112.118,212.428v12.444c0,0.807,0.666,1.461,1.485,1.461h3.917
							c0.821,0,1.487-0.654,1.487-1.461v-12.444c0-0.804-0.666-1.459-1.487-1.459h-3.917
							C112.784,210.97,112.118,211.624,112.118,212.428z"/>
						<path style="fill:#243845;" d="M112.118,212.428v12.444c0,0.807,0.666,1.461,1.485,1.461h1.958V210.97h-1.958
							C112.784,210.97,112.118,211.624,112.118,212.428z"/>
					</g>
					<rect x="88.736" y="217.192" style="fill:#243845;" width="23.383" height="2.919"/>
				</g>
			</g>
		</g>
	</g>
	<g>
		<ellipse style="opacity:0.1;fill:#243845;" cx="333.631" cy="120.529" rx="51.711" ry="50.807"/>
		<path style="opacity:0.1;fill:#243845;" d="M436.842,231.968c0,3.468-28.396,6.279-63.424,6.279s-63.424-2.811-63.424-6.279
			c0-3.468,28.396-6.279,63.424-6.279S436.842,228.5,436.842,231.968z"/>
		<g>
			<g>
				<g>
					<g>
						<g>
							<path style="fill:#DC3E2F;" d="M343.036,89.671c0,0,14.227,16.557,20.186,19.263c2.615,1.188,5.197,1.601,7.101,1.66
								c0.639,0.021,2.302-0.118,2.393-0.12c0.008,0,0.014,0.002,0.014,0.002c7.063-0.887,15.76-2.16,26.136-6.357
								c-1.788-1.663-2.529-4.07-2.188-6.173c0,0-6.018,1.929-13.667,2.494c-2.82,0.206-9.328,0.523-11.733,0.915
								c-0.598-0.26-1.2-0.517-1.759-0.849c-10.432-6.182-17.596-16.937-17.596-16.937
								C348.587,84.814,344.758,87.131,343.036,89.671z"/>
						</g>
					</g>
					<path style="fill:#F9AF8B;" d="M396.398,99.887c0,0-0.432-1.899,1.341-3.157c1.772-1.257,2.085-2.696,2.733-3.166
						c0.649-0.471,2.028,0.39,0.307,3.275c0,0,4.635-1.118,7.427-2.406c2.792-1.288,4.862,4.491,2.471,6.394
						C408.287,102.73,397.069,108.599,396.398,99.887z"/>
				</g>
				<g>
					<g>
						<g>
							<g>
								<g>
									<path style="fill:#FD5B42;" d="M355.31,137.738c-3.458-17.149-3.23-31.837-3.385-54.169l-7.845-1.031l-0.628-0.084
										l-1.784-0.234l-0.058-0.009l-10.907-1.433l-1.812,0.608l-0.036,0.013l-2.327,0.782l-0.555,0.188l-10.368,3.488
										l-0.277,13.237c-0.335,16.055,1.718,36.62,4.585,52.662C331.702,146.392,343.74,143.552,355.31,137.738z"/>
								</g>
							</g>
						</g>
					</g>
				</g>
				<g>
					<g>
						<g>
							<path style="fill:#DC3E2F;" d="M315.706,85.869c0,0-20.077,8.966-24.344,13.867c-1.873,2.151-2.977,4.48-3.552,6.265
								c-0.194,0.599-0.509,2.209-0.531,2.296c-0.002,0.008-0.006,0.013-0.006,0.013c-1.046,6.92-2.156,15.49-0.858,26.441
								c2.114-1.24,4.673-1.288,6.641-0.396c0,0-0.258-6.214,1.262-13.601c0.563-2.723,2.016-8.963,2.285-11.344
								c0.417-0.494,0.777-1.063,1.308-1.433c9.172-6.394,21.212-7.964,21.212-7.964C320.439,95.673,320.09,86.959,315.706,85.869z"
								/>
						</g>
					</g>
					<path style="fill:#F9AF8B;" d="M291.23,133.564c0,0,1.978,0.107,2.729,2.124c0.751,2.017,2.076,2.702,2.361,3.443
						c0.285,0.741-0.932,1.812-3.292-0.598c0,0-0.161,4.686,0.343,7.676c0.505,2.99-5.718,3.38-6.934,0.604
						C285.222,144.036,282.513,131.837,291.23,133.564z"/>
				</g>
			</g>
			<g>
				<path style="fill:#243845;" d="M355.419,60.427c0.209,0.485,0.387,1.12,0.101,2.471c-0.656,3.095-3.473,3.327-3.473,3.327
					s0.248-2.42,0.762-5.064L355.419,60.427z"/>
				<path style="fill:#243845;" d="M354.046,62.7c0,0,4.867-4.347,0.247-8.698c-5.186-4.885-9.605-5.176-14.711-4.841
					c-7.763,0.51-8.469,5.371-9.833,8.933c-0.765,1.998-0.796,15.767,4.404,16.16C334.153,74.255,343.744,57.908,354.046,62.7z"/>
				<path style="fill:#243845;" d="M354.599,61.597c0,0,3.915-0.773,4.209-4.037c0.294-3.264-2.623-4.571-2.623-4.571
					s1.32-2.099-0.221-4.278c-1.541-2.179-4.953-0.76-4.953-0.76s-0.059-2.683-3.053-2.911c-2.994-0.228-3.752,1.833-3.752,1.833
					s-1.03-2.054-3.428-1.342c-2.398,0.712-2.138,1.966-2.138,1.966s-1.743-1.549-3.68-0.438c-1.937,1.112-1.696,2.516-1.696,2.516
					s-1.123-0.183-2.002,1.369s0.251,3.205,0.251,3.205S349.735,55.045,354.599,61.597z"/>
				<g>
					<path style="fill:#F9AF8B;" d="M330.74,81.936c2.847,2.224,6.033,2.894,9.559,2.014c0.291-2.934,1.158-5.059,2.234-6.888
						c-0.549-0.981-1.71-2.841-3.31-4.236c-0.728-0.489-1.506-0.984-2.288-1.435c-1.373-0.532-2.929-0.542-4.603,0.445
						c0.053,1.309,0.052,2.543-0.092,3.884C332.051,77.477,331.618,79.415,330.74,81.936z"/>
					<path style="fill:#F88867;" d="M332.332,71.836c0.053,1.309,0.052,2.543-0.092,3.884c0.975,2.734,3.167,6.449,8.059,8.231
						c0.291-2.934,1.158-5.059,2.234-6.888c-0.549-0.981-1.71-2.841-3.31-4.236c-0.728-0.489-1.506-0.984-2.288-1.435
						C335.562,70.859,334.006,70.848,332.332,71.836z"/>
				</g>
				<g>
					<path style="fill:#F88867;" d="M351.278,65.911c0,0,2.659-1.542,3.555,0.525c0.896,2.067-2.031,8.332-5.897,6.869
						C348.936,73.304,349.24,69.331,351.278,65.911z"/>
					<path style="fill:#F9AF8B;" d="M332.815,57.245l-0.009,0.027c0,0,0.006-0.009,0.019-0.026
						C332.818,57.244,332.815,57.245,332.815,57.245z"/>
					<path style="fill:#F9AF8B;" d="M331.476,67.004c0.014,0.322,0.033,0.642,0.06,0.958c0.007,0.086,0.015,0.17,0.022,0.256
						c0.031,0.316,0.066,0.631,0.108,0.942c0.852,6.273,4.275,11.185,10.638,10.91c8.315-0.359,11.681-15.053,11.921-16.151
						c0.015,0,0.039-0.108,0.064-0.259c0.15-0.9,0.129-1.82-0.074-2.71c-0.55-2.421-2.342-6.652-8.179-8.237
						c-8.073-2.193-11.547,0.757-12.782,3.152c-0.011,0.02-0.449,1.405-0.449,1.405C331.796,60.444,331.339,63.833,331.476,67.004z"
						/>
					<path style="fill:#F9AF8B;" d="M334.01,60.815c0,0-2.624-2.404-4.187-0.764c-1.563,1.64-1.001,8.511,3.142,8.44
						C332.964,68.49,334.73,64.714,334.01,60.815z"/>
					<path style="fill:#F88867;" d="M331.559,68.218c0.031,0.316,0.066,0.631,0.108,0.942c0.556,0.132,1.368,0.091,2.143-0.801
						C333.811,68.36,332.37,68.707,331.559,68.218z"/>
				</g>
				<path style="fill:#243845;" d="M354.511,60.682c0,0-2.921,2.127-9.829-2.031c-3.546-2.134-5.407-2.376-6.517-1.77
					c-2.87,1.566-1.324,3.479-1.446,6.369c-0.031,0.743-0.752,1.273-1.488,1.099l0,0c-0.546-0.129-0.928-0.609-0.923-1.16
					c0.008-0.994-0.306-2.569-2.144-3.553c0,0,0.374-6.21,2.617-7.769C337.023,50.308,355.599,47.833,354.511,60.682z"/>
			</g>
			<g>
				<g>
					<g>
						<path style="fill:#8C33F2;" d="M442.071,169.022c0.085,0.148,0.146,0.312,0.178,0.492c0.147,0.817,0.186,1.85-0.091,3.018
							c0,0-0.003,0.001-0.001,0.004c-0.455,1.929-1.765,4.238-4.857,6.588l-68.619,37.971c0,0-3.709,2.378-8.023,0.536
							c-0.784-0.336-1.586-0.809-2.391-1.46c-0.901-0.732-0.779-2.125,0.238-2.687c0.43-0.238,0.942-0.279,1.403-0.105
							c1.235,0.47,3.951,1.191,6.513-0.227l68.878-38.114c0,0,3.394-2.469,3.825-5.449c0.073-0.485,0.358-0.913,0.792-1.154
							C440.704,167.999,441.659,168.304,442.071,169.022z"/>
					</g>
					<g>
						<path style="fill:#670EC6;" d="M442.157,172.537c-0.455,1.929-1.765,4.238-4.857,6.588l-68.619,37.971
							c0,0-3.709,2.378-8.023,0.536c0,0,6.995-1.478,13.044-4.825c6.048-3.347,63.072-34.901,63.072-34.901
							S441.142,174.437,442.157,172.537z"/>
					</g>
				</g>
				<g>
					<g>
						<path style="fill:#C7CFD1;" d="M385.779,207.639c0.19,0.332,0.253,0.703,0.201,1.054c-0.07,0.496-0.367,0.954-0.846,1.219
							l-1.39,0.769c-0.486,1.716-1.651,3.172-3.231,4.047l-1.923,1.064c-0.632,0.35-1.326,0.552-2.034,0.605
							c-0.708,0.053-1.427-0.044-2.106-0.298l-1.792,0.992c-0.57,0.316-1.245,0.273-1.757-0.053
							c-0.221-0.143-0.414-0.336-0.554-0.581l-0.121-0.211L385.779,207.639z"/>
					</g>
					<g style="opacity:0.3;">
						<path style="fill:#171A25;" d="M385.779,207.639c0.19,0.332,0.253,0.703,0.201,1.054l-15.078,8.344
							c-0.221-0.143-0.414-0.336-0.554-0.581l-0.121-0.211L385.779,207.639z"/>
					</g>
					<g>
						<g>
							<path style="fill:#243845;" d="M385.028,215.359c1.229,2.143,0.456,4.859-1.725,6.066c-2.181,1.207-4.946,0.448-6.174-1.695
								c-1.229-2.143-0.456-4.859,1.725-6.066C381.035,212.457,383.8,213.216,385.028,215.359z"/>
						</g>
						<g>
							<path style="fill:#C7CFD1;" d="M382.33,219.727c-1.225,0.678-2.783,0.25-3.473-0.954c-0.69-1.204-0.255-2.734,0.97-3.412
								c1.225-0.678,2.783-0.25,3.473,0.953C383.99,217.519,383.555,219.049,382.33,219.727z"/>
						</g>
					</g>
				</g>
				<g>
					<g>
						<path style="fill:#C7CFD1;" d="M433.34,181.321c0.19,0.332,0.253,0.703,0.201,1.055c-0.07,0.496-0.367,0.954-0.846,1.219
							l-1.39,0.769c-0.486,1.716-1.651,3.172-3.231,4.047l-1.923,1.064c-0.632,0.35-1.326,0.552-2.034,0.604
							c-0.708,0.053-1.427-0.044-2.106-0.298l-1.792,0.992c-0.57,0.315-1.245,0.273-1.757-0.053
							c-0.221-0.143-0.414-0.336-0.554-0.581l-0.121-0.211L433.34,181.321z"/>
					</g>
					<g style="opacity:0.3;">
						<path style="fill:#171A25;" d="M433.34,181.321c0.19,0.332,0.253,0.703,0.201,1.055l-15.078,8.344
							c-0.221-0.143-0.414-0.336-0.554-0.581l-0.121-0.211L433.34,181.321z"/>
					</g>
					<g>
						<g>
							<path style="fill:#243845;" d="M432.589,189.04c1.228,2.143,0.456,4.859-1.725,6.066c-2.181,1.207-4.946,0.448-6.174-1.695
								c-1.229-2.143-0.456-4.859,1.725-6.066C428.596,186.139,431.361,186.897,432.589,189.04z"/>
						</g>
						<g>
							<path style="fill:#C7CFD1;" d="M429.891,193.409c-1.225,0.678-2.783,0.25-3.473-0.953c-0.69-1.204-0.255-2.734,0.97-3.412
								c1.225-0.678,2.783-0.25,3.473,0.953C431.551,191.201,431.116,192.731,429.891,193.409z"/>
						</g>
					</g>
				</g>
			</g>
			<g>
				<path style="fill:#171A25;" d="M406.983,169.739l-6.972,4.596l-26.147-29.782c0,0-8.763,14.081-17.893,15.45
					c-4.306,1.413-7.578,1.386-9.392,1.399c-2.857,0.02-4.937,0.015-6.791,0.005v-12.294c2.759-0.455,5.093-0.961,6.949-1.426
					c3.003-7.772,10.662-23.785,22.214-21.684C384.133,128.765,406.983,169.739,406.983,169.739z"/>
				<g>
					<g>
						<path style="fill:#FA9C01;" d="M425.586,164.04c0,0-1.529,5.248-9.506,11.074c-6.043,4.413-10.542,4.462-10.542,4.462
							s3.859-10.427,10.024-12.923C421.727,164.155,425.586,164.04,425.586,164.04z"/>
					</g>
					<g>
						<path style="fill:#FABF01;" d="M400.012,174.234c0,0,15.55-17.778,25.574-10.195c0,0-14.024,3.699-20.048,15.536
							C405.538,179.575,402.127,178.303,400.012,174.234z"/>
					</g>
				</g>
			</g>
			<g>
				<path style="fill:#243845;" d="M319.724,150.451c0,0,10.914-19.108,26.094-16.346c15.18,2.762,36.212,40.028,36.212,40.028
					l-8.574,4.833l-24.93-27.757c0,0-3.124,13.527-16.826,13.527C320.506,164.736,319.724,150.451,319.724,150.451z"/>
				<g>
					<g>
						<path style="fill:#FA9C01;" d="M398.814,168.449c0,0-1.529,5.248-9.506,11.074c-6.043,4.413-10.542,4.462-10.542,4.462
							s3.859-10.426,10.024-12.923C394.955,168.565,398.814,168.449,398.814,168.449z"/>
					</g>
					<g>
						<path style="fill:#FABF01;" d="M373.24,178.644c0,0,15.55-17.778,25.574-10.195c0,0-14.024,3.699-20.048,15.536
							C378.766,183.985,375.355,182.712,373.24,178.644z"/>
					</g>
				</g>
			</g>
		</g>
	</g>
	<g>
		<ellipse style="opacity:0.1;fill:#243845;" cx="360.318" cy="334.193" rx="51.711" ry="50.807"/>
		<ellipse style="opacity:0.1;fill:#243845;" cx="363.241" cy="447.1" rx="63.424" ry="6.28"/>
		<g>
			<g>
				<path style="fill:#FA9C01;" d="M333.828,288.852c0,0-2.274,22.583-8.629,29.618c0,0-7.794-3.942-12.07-6.528
					s-7.923-6.301-7.923-6.301l-4.15,4.201c0,0,10.553,13.23,21.39,19.487c2.851,1.646,6.509,0.921,8.509-1.665
					c3.561-4.605,8.825-13.783,11.501-22.229C342.456,305.434,341.071,295.663,333.828,288.852z"/>
				<g>
					<path style="fill:#F9AF8B;" d="M305.206,305.639c0,0,0.566-1.236,1.824-3.83s-1.761-4.386-2.704-4.88
						c-0.943-0.494-2.578,0.494-2.578,0.494s-4.066-6.363-6.267-7.105c-2.201-0.741,1.293,4.983,2.488,6.96
						c0,0-0.769-0.577-1.608-0.082c-0.838,0.494-0.671,1.483-0.671,1.483s-1.132-0.124-1.886,0.659
						c-0.755,0.783-0.21,1.895-0.21,1.895s-2.725-2.348-4.653-2.306c-1.928,0.041,4.779,7.743,12.115,10.914
						C301.056,309.84,303.299,309.657,305.206,305.639z"/>
				</g>
				<g>
					<path style="fill:#F88867;" d="M301.92,301.828c-0.136,0-0.275-0.007-0.418-0.02c-0.742-0.073-1.055-0.477-1.188-0.804
						c-0.308-0.76,0.066-1.74,0.362-2.075c0.091-0.103,0.25-0.114,0.355-0.025c0.105,0.09,0.116,0.245,0.025,0.349
						c-0.214,0.243-0.488,1.043-0.275,1.569c0.119,0.293,0.371,0.455,0.77,0.494c1.454,0.144,2.517-0.624,2.528-0.631
						c0.111-0.082,0.268-0.06,0.352,0.049c0.083,0.109,0.061,0.264-0.05,0.346C304.337,301.113,303.349,301.828,301.92,301.828z"/>
				</g>
				<g>
					<path style="fill:#F88867;" d="M298.573,304.625c-1.801,0-3.734-2.019-3.822-2.112c-0.095-0.1-0.089-0.256,0.013-0.349
						c0.102-0.093,0.261-0.087,0.355,0.013c0.021,0.022,2.149,2.241,3.78,1.924c0.2-0.039,0.233-0.126,0.245-0.159
						c0.134-0.353-0.371-1.225-0.772-1.732c-0.079-0.101-0.068-0.244,0.026-0.332c0.094-0.087,0.241-0.09,0.339-0.006
						c0.01,0.009,1.045,0.888,1.779,0.493c0.559-0.3,0.48-0.753,0.469-0.804c-0.029-0.132,0.056-0.264,0.191-0.293
						c0.134-0.03,0.267,0.051,0.299,0.183c0.07,0.295,0.011,0.956-0.719,1.348c-0.465,0.249-0.972,0.176-1.396,0.013
						c0.226,0.433,0.394,0.931,0.254,1.302c-0.066,0.173-0.226,0.395-0.619,0.472C298.858,304.612,298.716,304.625,298.573,304.625z
						"/>
				</g>
			</g>
			<g>
				<g>
					<path style="fill:#F9AF8B;" d="M339.799,400.038l3.207,3.748c1.097-0.883,2.36-2.085,2.853-3.579l-2.398-3.846
						C343.461,396.36,340.512,398.016,339.799,400.038z"/>
					<g>
						<path style="fill:#FD5B42;" d="M353.274,403.327c0.37,0.266,0.739,0.525,1.109,0.774l-9.949,18.265
							c-0.407-0.214-0.777-0.478-1.106-0.781c-0.975-0.903-1.571-2.156-1.626-3.506c-0.147-3.669,1.32-8.198,1.32-8.198
							c-0.488-1.781-0.465-6.311-0.465-6.311c2.801-2.293,3.15-4.228,3.15-4.228C348.762,399.966,351.042,401.734,353.274,403.327z"
							/>
						<path style="fill:#DC3E2F;" d="M353.274,403.327c0.37,0.266,0.739,0.525,1.109,0.774l-9.949,18.265
							c-0.407-0.214-0.777-0.478-1.106-0.781L353.274,403.327z"/>
					</g>
				</g>
				<g>
					<g>
						<g>
							<path style="fill:#171A25;" d="M363.634,337.843c0,0-42.787,8.821-44.979,21.926c-1.462,8.738,21.664,42.035,21.664,42.035
								c1.386-0.911,2.898-2.245,3.806-4.378c0,0-4.327-24.696-11.882-32.604c0,0,29.008-1.647,38.89-14.614
								C371.976,349.104,368.604,336.474,363.634,337.843z"/>
						</g>
					</g>
				</g>
			</g>
			<g>
				<g>
					<path style="fill:#F9AF8B;" d="M385.142,430.909l3.69,5.43c0.673,1.238,4.977,2.067,6.08,0.93l-5.274-8.959
						C389.638,428.31,386.123,428.677,385.142,430.909z"/>
					<g>
						<path style="fill:#FD5B42;" d="M395.308,445.602c-0.069,0.455-0.132,0.906-0.186,1.353l-21.544-0.17
							c0.004-0.463,0.071-0.918,0.194-1.353c0.368-1.295,1.239-2.421,2.457-3.11c3.308-1.873,8.176-2.719,8.176-2.719
							c3.13-1.387,4.047-3.411,4.047-3.411c3.441,1.401,6.933,0.793,6.933,0.793C396.26,439.995,395.715,442.861,395.308,445.602z"
							/>
						<path style="fill:#DC3E2F;" d="M395.308,445.602c-0.069,0.455-0.132,0.906-0.186,1.353l-21.544-0.17
							c0.004-0.463,0.071-0.918,0.194-1.353L395.308,445.602z"/>
					</g>
				</g>
				<g>
					<g>
						<g>
							<path style="fill:#243845;" d="M365.174,330.368c0,0-10.966,39.9-9.784,54.008c1.182,14.109,30.677,49.803,30.677,49.803
								c2.395-0.365,4.172-0.432,6.875-2.306c0,0-12.713-27.854-25.097-45.292c0,0,14.872-27.848,14.699-43.043
								C382.438,334.34,373.789,328.484,365.174,330.368z"/>
						</g>
					</g>
				</g>
			</g>
			<path style="fill:#243845;" d="M332.123,275.521c-4.395-6.743-6.028-15.209-5.065-20.464c0.963-5.255,8.911-11.084,16.417-9.921
				c0,0,8.302-0.038,11.152,5.85c2.85,5.889,0.219,10.68,4.213,13.917c0,0,2.967,0.51,4.761,4.167
				c1.794,3.656,0.139,7.807,4.92,9.304c4.782,1.497,8.711,3.476,9.288,8.135c0.577,4.66,2.497,7.87,7.378,12.334
				c4.88,4.464,1.678,22.379-11.066,18.698c-3.395-0.98-11.235-16.566-20.074-13.545c-8.839,3.021-19.879-10.727-19.747-18.356
				C334.433,278.013,334.151,278.633,332.123,275.521z"/>
			<path style="fill:#FABF01;" d="M364.435,280.659c1.819,4.279,7.466,19.608,11.071,32.216c3.316,8.224,5.324,19.31,5.625,25.04
				c0,0-18.035,6.315-31.114,3.185l-0.567-22.26l-4.233-8.125c-2.225-1.268-5.385-3.478-6.038-6.07
				c-0.931-3.703-2.003-8.809-2.195-9.733l-0.001-0.002l-3.155-6.058l12.106-8.105L364.435,280.659z"/>
			<g>
				<g>
					<path style="fill:#F9AF8B;" d="M352.304,281.354c-2.906,2.26-6.154,2.936-9.745,2.032c-0.29-2.991-1.169-5.158-2.262-7.025
						c0.561-0.999,1.749-2.892,3.382-4.31c0.743-0.497,1.537-1,2.335-1.458c1.4-0.539,2.986-0.546,4.69,0.463
						c-0.057,1.334-0.058,2.591,0.086,3.958C350.978,276.807,351.414,278.783,352.304,281.354z"/>
					<path style="fill:#F88867;" d="M350.704,271.057c-0.057,1.334-0.058,2.591,0.086,3.958c-1,2.784-3.242,6.565-8.231,8.371
						c-0.29-2.991-1.169-5.158-2.262-7.025c0.561-0.999,1.749-2.892,3.382-4.31c0.743-0.497,1.537-1,2.335-1.458
						C347.414,270.055,349,270.048,350.704,271.057z"/>
				</g>
				<g>
					<path style="fill:#F88867;" d="M331.409,264.98c0,0-2.707-1.577-3.624,0.527c-0.917,2.104,2.052,8.496,5.995,7.012
						C333.78,272.519,333.478,268.47,331.409,264.98z"/>
					<path style="fill:#FD5B42;" d="M328.902,263.595c0,0-4.591,0.895-3.698,5.434s4.261,5.722,7.358,4.585
						C332.563,273.614,330.11,270.39,328.902,263.595z"/>
					<path style="fill:#F9AF8B;" d="M350.243,256.188l0.009,0.027c0,0-0.006-0.009-0.02-0.027
						C350.24,256.187,350.243,256.188,350.243,256.188z"/>
					<path style="fill:#F9AF8B;" d="M330.298,269.016c1.835,4.615,5.102,10.181,10.224,10.413
						c6.484,0.294,9.982-4.705,10.865-11.096c0.043-0.316,0.081-0.638,0.112-0.959c0.007-0.088,0.015-0.174,0.023-0.262
						c0.03-0.321,0.05-0.648,0.064-0.975c0.112-2.461-0.127-5.054-0.701-7.58c-0.18-0.789-0.39-1.573-0.634-2.342
						c0,0-0.445-1.412-0.456-1.433c-1.253-2.443-4.785-5.457-13.017-3.239c-4.379,1.18-6.529,3.822-7.583,6.118
						c-0.028,0.054-0.051,0.107-0.073,0.159c-0.339,0.766-0.557,1.491-0.697,2.1c-0.208,0.906-0.232,1.844-0.081,2.762
						c0.026,0.155,0.049,0.264,0.066,0.264C328.505,263.389,329.094,265.999,330.298,269.016z"/>
					<path style="fill:#243845;" d="M330.298,269.016c0.411-1.523-0.96-3.819-0.582-6.554c0.273-1.981-0.319-3.897-0.593-4.643
						c-0.339,0.766-0.557,1.491-0.697,2.1c-0.208,0.906-0.232,1.844-0.081,2.762c0.026,0.155,0.049,0.264,0.066,0.264
						C328.505,263.389,329.094,265.999,330.298,269.016z"/>
					<path style="fill:#243845;" d="M329.196,257.66c3.73,3.036,12.172,6.267,12.172,6.267c2.808,0.835,4.958,0.892,6.141,0.6
						c0.877-0.216,1.941-1.538,1.997-3.316c0.057-1.779,1.362-2.56,1.362-2.56s0.007-0.033,0.018-0.095
						c-0.18-0.789-0.39-1.573-0.634-2.342c0,0-0.445-1.412-0.456-1.433c-1.253-2.443-4.785-5.457-13.017-3.239
						C332.4,252.723,330.25,255.365,329.196,257.66z"/>
					<path style="fill:#F9AF8B;" d="M349.018,259.823c0,0,2.68-2.444,4.269-0.77c1.589,1.674,1.001,8.676-3.22,8.594
						C350.067,267.647,348.276,263.795,349.018,259.823z"/>
					<path style="fill:#F88867;" d="M351.499,267.373c-0.032,0.323-0.069,0.643-0.112,0.96c-0.567,0.134-1.395,0.09-2.183-0.821
						C349.204,267.512,350.672,267.869,351.499,267.373z"/>
					<path style="fill:#FD5B42;" d="M349.488,257.93c0,0,4.215-0.688,5.61,3.728c1.394,4.416-1.71,7.15-4.986,7.584
						C350.112,269.242,345.177,260.04,349.488,257.93z"/>
					<g>
						<path style="fill:#DC3E2F;" d="M326.453,266.328c0.356,0.106,0.661,0.002,0.918-0.302c-1.416-4.152-2.065-10.717,0.768-15.555
							c1.626-2.777,4.157-4.531,7.528-5.214c2.804-0.568,5.343-0.116,7.548,1.345c5.613,3.719,7.351,12.763,7.368,12.854
							c0.36,0.099,0.676,0.037,0.952-0.171c-0.072-0.387-1.831-9.531-7.779-13.471c-2.429-1.609-5.216-2.11-8.285-1.488
							c-3.651,0.74-6.401,2.649-8.171,5.671C324.307,255.108,324.973,261.989,326.453,266.328z"/>
					</g>
				</g>
			</g>
			<g>
				<path style="fill:#FA9C01;" d="M364.814,292.419c0,0,12.243,4.218,19.366,10.502c0,0-2.08,7.469-4.737,11.655
					c-2.657,4.186-6.095,6.382-6.095,6.382l5.094,3.915c0,0,10.5-4.665,14.894-18.526c1.135-3.581-0.048-7.482-2.986-9.876
					c-5.926-4.83-16.79-12.965-25.916-15.812C364.435,280.659,359.03,285.623,364.814,292.419z"/>
				<g>
					<path style="fill:#F9AF8B;" d="M374.985,321.527c0,0-1.304-0.44-4.05-1.43c-2.746-0.991-4.283,2.127-4.697,3.096
						c-0.414,0.968,0.739,2.477,0.739,2.477s-6.074,4.565-6.622,6.787c-0.548,2.221,4.931-1.725,6.824-3.077
						c0,0-0.513,0.806,0.065,1.581c0.578,0.775,1.564,0.519,1.564,0.519s-0.021,1.119,0.842,1.785
						c0.863,0.666,1.939,0.03,1.939,0.03s-2.128,2.882-1.908,4.765c0.22,1.883,6.223-5.716,8.76-13.185
						C378.443,324.873,377.443,322.777,374.985,321.527z"/>
				</g>
			</g>
		</g>
		<g>
			<path style="fill:#8C33F2;" d="M383.395,259.265c-0.102-0.061-0.226-0.071-0.336-0.026l-6.729,2.724
				c-0.149,0.06-0.241,0.208-0.229,0.366l0.625,7.711c-1.006,0.135-2.676,0.653-2.604,2.614c0.091,2.486,3.624,0.814,3.624,0.814
				l-0.124-1.528c0-0.009,0.001-0.017,0.001-0.025l-0.76-9.377l6.008-2.432l0.477,5.885c-1.006,0.136-2.673,0.655-2.601,2.613
				c0.091,2.486,3.624,0.814,3.624,0.814l-0.163-2.009l-0.119-1.464l-0.519-6.396C383.561,259.431,383.496,259.326,383.395,259.265z
				"/>
			<path style="fill:#FD5B42;" d="M298.833,260.024c-0.102-0.061-0.226-0.071-0.336-0.026l-6.729,2.724
				c-0.149,0.06-0.241,0.208-0.229,0.366l0.625,7.711c-1.006,0.135-2.675,0.654-2.603,2.613c0.091,2.486,3.623,0.814,3.623,0.814
				l-0.124-1.528c0-0.008,0.001-0.017,0.001-0.025l-0.76-9.377l6.008-2.432l0.477,5.885c-1.006,0.136-2.673,0.655-2.601,2.613
				c0.091,2.486,3.624,0.814,3.624,0.814l-0.163-2.009l-0.119-1.464l-0.519-6.396C298.999,260.189,298.934,260.085,298.833,260.024z
				"/>
			<path style="fill:#FABF01;" d="M396.238,248.441l-5.505,2.395c-0.149,0.06-0.241,0.208-0.228,0.366l0.625,7.711
				c-1.006,0.135-2.676,0.654-2.604,2.613c0.091,2.486,3.624,0.814,3.624,0.814l-0.124-1.528c0-0.009,0.001-0.017,0.001-0.025
				l-0.592-7.302l5.075-1.697L396.238,248.441z"/>
			<path style="fill:#FABF01;" d="M311.052,265.687l-5.505,2.395c-0.149,0.06-0.241,0.208-0.228,0.366l0.625,7.711
				c-1.006,0.135-2.676,0.654-2.604,2.613c0.091,2.486,3.623,0.814,3.623,0.814l-0.124-1.528c0-0.009,0.001-0.017,0.001-0.025
				l-0.592-7.302l5.075-1.697L311.052,265.687z"/>
		</g>
	</g>
	<g>
		<path style="opacity:0.1;fill:#243845;" d="M207.215,448.975c0,3.468-28.396,6.279-63.424,6.279s-63.424-2.811-63.424-6.279
			c0-3.468,28.396-6.28,63.424-6.28S207.215,445.507,207.215,448.975z"/>
		<ellipse style="opacity:0.1;fill:#243845;" cx="134.007" cy="334.193" rx="51.711" ry="50.807"/>
		<g>
			<g>
				<path style="fill:#8C33F2;" d="M225.482,284.538v91.231c0,2.719-2.243,4.923-5.011,4.923h-28.453
					c-2.765,0-5.009-2.204-5.009-4.923v-91.231H225.482z"/>
			</g>
			<g>
				<ellipse style="fill:#670EC6;" cx="206.245" cy="284.538" rx="19.236" ry="2.073"/>
			</g>
			<g>
				<path style="fill:#8C33F2;" d="M222.859,286.112c-0.132,0-0.258-0.071-0.322-0.194l-15.386-29.738
					c-0.09-0.174-0.02-0.388,0.158-0.476c0.178-0.089,0.395-0.019,0.485,0.155l15.386,29.738c0.09,0.174,0.02,0.388-0.158,0.476
					C222.97,286.1,222.914,286.112,222.859,286.112z"/>
			</g>
			<g>
				<path style="fill:#8C33F2;" d="M188.698,286.112c-0.055,0-0.111-0.012-0.163-0.039c-0.178-0.089-0.249-0.302-0.158-0.476
					l15.386-29.738c0.09-0.174,0.307-0.244,0.485-0.155c0.177,0.089,0.248,0.302,0.158,0.476l-15.386,29.738
					C188.956,286.041,188.829,286.112,188.698,286.112z"/>
			</g>
			<g>
				<path style="fill:#8C33F2;" d="M205.878,286.966c-0.199,0-0.361-0.159-0.361-0.354V256.02c0-0.196,0.161-0.354,0.361-0.354
					c0.199,0,0.361,0.159,0.361,0.354v30.591C206.238,286.807,206.077,286.966,205.878,286.966z"/>
			</g>
			<path style="fill:#670EC6;" d="M209.357,255.666c0,1.962-1.619,3.552-3.615,3.552s-3.616-1.59-3.616-3.552
				c0-1.962,1.619-3.552,3.616-3.552S209.357,253.704,209.357,255.666z"/>
		</g>
		<g>
			<g>
				<path style="fill:#243845;" d="M152.635,264.497c0.197,0.528,0.354,1.213-0.023,2.638c-0.863,3.265-3.877,3.369-3.877,3.369
					s0.392-2.567,1.079-5.359L152.635,264.497z"/>
				<path style="fill:#243845;" d="M151.051,266.849c0,0,5.417-4.386,0.722-9.259c-5.271-5.471-9.965-6.006-15.426-5.908
					c-8.302,0.148-9.31,5.294-10.952,9.022c-0.921,2.091-1.68,16.766,3.842,17.449C129.238,278.153,140.323,261.218,151.051,266.849
					z"/>
				<g>
					<path style="fill:#F9AF8B;" d="M125.196,286.168c2.917,2.515,6.278,3.391,10.082,2.633c0.465-3.113,1.501-5.334,2.745-7.229
						c-0.533-1.074-1.673-3.115-3.305-4.684c-0.75-0.558-1.553-1.125-2.363-1.646c-1.436-0.637-3.094-0.727-4.93,0.24
						c-0.013,1.398-0.079,2.713-0.303,4.135C126.828,281.481,126.265,283.525,125.196,286.168z"/>
					<path style="fill:#F88867;" d="M127.425,275.482c-0.013,1.398-0.079,2.713-0.303,4.135c0.895,2.964,3.036,7.035,8.157,9.183
						c0.465-3.113,1.501-5.334,2.745-7.229c-0.533-1.074-1.673-3.115-3.305-4.684c-0.75-0.558-1.553-1.125-2.363-1.646
						C130.919,274.605,129.261,274.515,127.425,275.482z"/>
				</g>
				<g>
					<path style="fill:#F88867;" d="M147.932,270.131c0,0,2.916-1.509,3.762,0.74s-2.604,8.778-6.648,7.022
						C145.046,277.893,145.58,273.673,147.932,270.131z"/>
					<path style="fill:#F9AF8B;" d="M128.708,259.954l-0.01,0.028c0,0,0.007-0.009,0.022-0.027
						C128.712,259.954,128.708,259.954,128.708,259.954z"/>
					<path style="fill:#F9AF8B;" d="M126.767,270.289c-0.002,0.344,0.001,0.686,0.014,1.024c0.003,0.092,0.007,0.182,0.01,0.274
						c0.016,0.339,0.037,0.676,0.066,1.01c0.578,6.73,3.967,12.139,10.764,12.171c8.882,0.041,13.244-15.45,13.558-16.609
						c0.016,0.001,0.047-0.113,0.082-0.273c0.208-0.952,0.234-1.933,0.065-2.892c-0.459-2.608-2.145-7.209-8.284-9.195
						c-8.49-2.749-12.348,0.219-13.79,2.709c-0.012,0.021-0.553,1.474-0.553,1.474C127.454,263.312,126.788,266.902,126.767,270.289
						z"/>
					<path style="fill:#F9AF8B;" d="M129.794,263.821c0,0-2.671-2.696-4.423-1.027c-1.753,1.668-1.515,9.022,2.904,9.156
						C128.275,271.949,130.356,268.013,129.794,263.821z"/>
					<path style="fill:#F88867;" d="M126.791,271.587c0.016,0.339,0.037,0.676,0.066,1.01c0.586,0.169,1.453,0.167,2.327-0.745
						C129.184,271.853,127.63,272.149,126.791,271.587z"/>
				</g>
				<path style="fill:#243845;" d="M151.653,264.722c0,0-3.226,2.118-10.37-2.665c-3.668-2.455-6.78-3.632-7.473-2.729
					c-2.425,3.158-0.563,4.541-1.495,8.725l-2.491-0.715c0,0,1.019-3.098-1.937-4.868c0,0,0.726-6.6,3.199-8.148
					C133.56,252.775,153.49,251.082,151.653,264.722z"/>
				<path style="fill:#243845;" d="M123.512,249.107c-1.3,4.043,0.981,8.356,5.096,9.634c4.115,1.278,8.505-0.964,9.805-5.007
					c1.3-4.043-0.981-8.356-5.096-9.634C129.202,242.822,124.812,245.064,123.512,249.107z"/>
				<path style="fill:#243845;" d="M132.315,268.055c0,0-0.723,11.187,5.895,12.936c6.618,1.748,8.316-2.286,8.316-2.286
					s-1.121,4.238-3.881,6.296c-3.595,2.679-9.7,1.768-11.945-1.281c-2.245-3.049-1.81-12.841-0.876-16.38L132.315,268.055z"/>
				<path style="fill:#243845;" d="M151.179,268.159c0,0-3.515,9.367-6.163,11.412c-2.648,2.045-4.064,1.852-4.064,1.852
					l4.505-0.007c0,0,4.705-7.846,5.944-12.121L151.179,268.159z"/>
				<path style="fill:#243845;" d="M145.834,279.089c0,0-0.25-3.106-3.695-4.406c-3.445-1.3-8.014,0.387-8.737,1.735l0.874,1.575
					c0,0,3.486,0.469,6.688-1.963c0,0,2.108,4.007,3.916,4.453L145.834,279.089z"/>
			</g>
			<g>
				<path style="fill:#F9AF8B;" d="M151.053,352.373l22.314,36.619l7.695,49.849h-8.176l-10.58-46.306l-26.431-35.93
					C135.875,356.606,142.204,350.01,151.053,352.373z"/>
			</g>
			<g>
				<polygon style="fill:#F9AF8B;" points="115.721,351.862 113.986,397.025 101.47,438.841 109.398,438.841 127.199,399.057 
					132.426,355.857 				"/>
			</g>
			<g>
				<g>
					<path style="fill:#F9AF8B;" d="M152,286.736l-0.947,56.726c-16.683,4.308-35.848,1.426-35.848,1.426l-1.445-13.749l-0.608-5.79
						l-3.754-35.746l17.128-4.105c6.327,2.245,9.777,0.106,9.777,0.106L152,286.736z"/>
				</g>
				<g>
					<path style="fill:#F88867;" d="M124.892,309.281c0,0.783-0.646,1.418-1.443,1.418c-0.797,0-1.443-0.635-1.443-1.418
						c0-0.783,0.646-1.418,1.443-1.418C124.246,307.864,124.892,308.498,124.892,309.281z"/>
				</g>
				<g>
					<path style="fill:#F88867;" d="M143.791,308.217c0,0.783-0.646,1.418-1.443,1.418c-0.797,0-1.443-0.635-1.443-1.418
						c0-0.783,0.646-1.417,1.443-1.417C143.145,306.8,143.791,307.435,143.791,308.217z"/>
				</g>
				<g>
					<path style="fill:#F88867;" d="M134.007,338.705c0,0.658-0.331,1.191-0.74,1.191c-0.409,0-0.741-0.533-0.741-1.191
						c0-0.658,0.332-1.191,0.741-1.191C133.676,337.514,134.007,338.047,134.007,338.705z"/>
				</g>
			</g>
			<g>
				<g>
					<path style="fill:#F9AF8B;" d="M109.397,289.723c0,0-8.168,11.697-9.37,25.399c0,0,5.843,2.26,9.37,1.89
						c0,0,5.021-15.593,4.559-23.389L109.397,289.723z"/>
				</g>
				<g>
					<path style="fill:#F9AF8B;" d="M100.027,315.122c0,0,11.968-7.639,17.967-17.089l6.742,3.15c0,0-10.858,18.428-15.339,20.79
						C104.917,324.336,98.978,321.499,100.027,315.122z"/>
				</g>
				<g>
					<polygon style="fill:#F88867;" points="112.062,305.133 102.545,313.383 111.928,302.344 					"/>
				</g>
				<g>
					<g>
						<path style="fill:#FD5B42;" d="M115.025,300.553c0,0,5.485,5.72,9.711,6.246c0,0,2.063-1.758,2.463-3.412
							c0,0-6.72-3.307-9.051-6.064C118.148,297.324,115.533,298.454,115.025,300.553z"/>
					</g>
					<g>
						<path style="fill:#FD5B42;" d="M142.637,290.63c-0.048,2.521-7.829,12.181-15.438,12.758c0,0-7.201-1.732-9.051-6.062
							c0,0,0.27-1.635,1.294-7.629c0.765-4.477,3.766-4.089,5.235-3.605c0.5,0.165,0.822,0.34,0.822,0.34s2.573-5.228,6.928-4.779
							C136.781,282.104,142.685,288.111,142.637,290.63z"/>
					</g>
					<g>
						<path style="fill:#FFFFFF;" d="M118.715,300.588L118.715,300.588c-0.328,0.379-0.307,0.94,0.054,1.289
							c0.708,0.683,1.934,1.747,3.214,2.305c0.399,0.173,0.867,0.058,1.143-0.274l0.104-0.125c0.384-0.462,0.25-1.151-0.286-1.432
							c-0.684-0.36-1.674-0.955-2.9-1.895C119.637,300.143,119.049,300.202,118.715,300.588z"/>
					</g>
					<g>
						<path style="fill:#DC3E2F;" d="M125.499,286.432c0,0-1.299,3.804-3.465,4.867c0.075-0.094,2.258-2.896,2.643-5.207
							C125.177,286.257,125.499,286.432,125.499,286.432z"/>
					</g>
				</g>
				<g>
					<path style="fill:#F88867;" d="M123.434,306.494c-1.837,5.41-7.748,13.861-9.674,16.531l-0.608-4.642
						c4.415-3.898,8.88-12.469,8.88-12.469C123.03,306.445,123.434,306.494,123.434,306.494z"/>
				</g>
			</g>
			<g>
				<g>
					<path style="fill:#F9AF8B;" d="M163.869,309.708c0,0-4.369,2.495-8.055,2.023l-6.569-13.087c0,0,0.305-6.295,2.755-11.908
						c0,0,4.764,6.496,8.255,13.097c0.226,0.425,0.445,0.853,0.656,1.276C162.576,304.409,163.816,307.565,163.869,309.708z"/>
				</g>
				<g>
					<path style="fill:#F9AF8B;" d="M155.814,311.731c0,0,1.84,4.547,5.567,5.138c3.727,0.591,9.662-10.98,9.464-26.992h-4.691
						c0,0-5.076,14.173-8.799,14.594L155.814,311.731z"/>
				</g>
				<g>
					<g>
						<g>
							<path style="fill:#FD5B42;" d="M162.248,291.579c0,0,7.745,1.962,11.605,0.192c0,0,0.79-2.568,0.23-4.177
								c0,0-7.479,0.726-10.947-0.383C163.136,287.211,161.538,289.538,162.248,291.579z"/>
						</g>
						<g>
							<path style="fill:#FD5B42;" d="M163.136,287.211c0,0-0.659-1.524-3.049-7.131c-2.39-5.607,3.35-5.935,3.35-5.935
								s-0.664-5.771,3.263-7.673c3.927-1.902,12.183,0.083,13.511,2.24c1.328,2.157-0.007,14.407-6.128,18.883
								C174.084,287.594,167.053,289.904,163.136,287.211z"/>
						</g>
					</g>
					<g>
						<path style="fill:#DC3E2F;" d="M163.869,280.715c0,0,4.178,0.451,4.636-2.901c0.404-2.96-1.991-3.352-1.991-3.352
							s2.044-0.473,3.578,1.536c0.76,0.994,6.641,3.313,8.745,0.741c0,0-0.721,2.803-4.148,2.212
							c-3.427-0.591-5.35-2.481-5.35-2.481S170.963,282.892,163.869,280.715z"/>
					</g>
				</g>
				<g>
					<path style="fill:#F88867;" d="M160.912,301.109c-0.077,0.097-1.852,2.377-1.892,4.78c0,0-1.202-3.194,1.236-6.055
						C160.481,300.258,160.7,300.686,160.912,301.109z"/>
				</g>
			</g>
			<g>
				<g>
					<path style="fill:#FD5B42;" d="M122.631,447.819H99.066c0,0,0-6.391,1.889-10.097l4.303-16.498l0.95-4.108l13.384,4.715
						l-1.705,3.615l-6.318,13.396C111.569,438.841,118.529,441.766,122.631,447.819z"/>
				</g>
				<g>
					<polygon style="fill:#DC3E2F;" points="119.592,421.831 117.887,425.446 105.258,421.224 106.208,417.116 					"/>
				</g>
			</g>
			<g>
				<g>
					<path style="fill:#FD5B42;" d="M196.753,447.819h-23.565c0,0-0.858-1.914-1.096-7.803l-4.968-16.349l-1.183-3.894l15.067-1.564
						l0.26,3.742l1.221,17.589C182.488,439.541,192.65,441.766,196.753,447.819z"/>
				</g>
				<g>
					<polygon style="fill:#DC3E2F;" points="181.301,422.443 167.173,423.832 165.94,419.773 181.007,418.209 					"/>
				</g>
			</g>
			<g>
				<g>
					<path style="fill:#8C33F2;" d="M174.329,381.904c-4.809,7.324-18.996,8.741-18.996,8.741l-2.426-3.882l-15.368-24.587
						c-0.842,0.473-3.006,0.709-3.006,0.709l-1.308,27.59l-0.187,3.95c-10.631,4.489-22.671-3.662-22.671-3.662
						c0.139-0.865,0.313-2.143,0.507-3.73c1.491-12.077,4.331-41.959,4.331-41.959c18.304,6.877,35.848-1.143,35.848-1.143
						c4.393,10.433,15.849,27.351,20.865,34.552C173.408,380.624,174.329,381.904,174.329,381.904z"/>
				</g>
				<g>
					<path style="fill:#670EC6;" d="M115.205,345.075c-0.763,3.188-0.654,3.492-0.654,6.787c0,0,22.789,4.724,39.108-3.397
						c0,0-0.995-3.14-2.573-6.133C151.086,342.332,138.849,347.278,115.205,345.075z"/>
				</g>
				<g>
					<path style="fill:#670EC6;" d="M133.225,390.476l-0.187,3.95c-10.631,4.489-22.671-3.662-22.671-3.662
						c0.139-0.865,0.313-2.143,0.507-3.73C114.573,388.827,124.571,392.987,133.225,390.476z"/>
				</g>
				<g>
					<path style="fill:#670EC6;" d="M174.329,381.904c-4.809,7.324-18.996,8.741-18.996,8.741l-2.426-3.882
						c3.934-0.711,13.817-2.956,19.011-8.28C173.408,380.624,174.329,381.904,174.329,381.904z"/>
				</g>
			</g>
		</g>
	</g>
</g>
<g id="DESIGNED_BY_FREEPIK">
	<g>
		<g id="XMLID_1_">
			<g id="XMLID_20_">
				<path id="XMLID_28_" style="fill:#112129;" d="M260.104,465.465c-0.432,0.443-0.803,0.931-1.108,1.453l-0.465-0.241
					c-0.067-0.298-0.349-0.503-0.659-0.466c-0.331,0.039-0.568,0.339-0.529,0.67c0.039,0.331,0.339,0.568,0.67,0.529
					c0.065-0.008,0.127-0.026,0.183-0.052l0.452,0.234c-0.251,0.554-0.433,1.139-0.539,1.744l0.747,0.132
					c0.23-1.306,0.85-2.507,1.792-3.473L260.104,465.465z"/>
				<path id="XMLID_27_" style="fill:#112129;" d="M265.592,463.163c-0.171,0-0.341,0.006-0.51,0.017l-0.074-0.626
					c0.188-0.149,0.296-0.389,0.266-0.645c-0.046-0.393-0.402-0.674-0.795-0.628c-0.393,0.046-0.674,0.402-0.628,0.795
					c0.03,0.254,0.189,0.461,0.405,0.564l0.073,0.624c-0.714,0.116-1.403,0.332-2.06,0.646l0.327,0.684
					c0.934-0.447,1.942-0.673,2.995-0.673c0.496,0,0.993,0.053,1.475,0.158l0.161-0.741
					C266.692,463.222,266.142,463.163,265.592,463.163z"/>
				<path id="XMLID_26_" style="fill:#112129;" d="M272.194,465.711c0.331-0.04,0.566-0.341,0.526-0.672
					c-0.04-0.331-0.341-0.566-0.672-0.526c-0.309,0.038-0.535,0.304-0.53,0.609l-0.416,0.363c-0.418-0.43-0.89-0.813-1.408-1.139
					l-0.404,0.641c1.134,0.715,2.021,1.726,2.563,2.925l0.691-0.313c-0.251-0.554-0.568-1.072-0.942-1.545l0.402-0.351
					C272.065,465.716,272.129,465.719,272.194,465.711z"/>
				<path id="XMLID_25_" style="fill:#112129;" d="M265.044,473.372c-0.386,0.023-0.775,0.035-1.157,0.035
					c-0.88,0-1.733-0.061-2.478-0.179c-0.39-0.062-0.846-0.155-1.27-0.292c1.046,1.861,3.069,3.125,5.388,3.125
					c2.855,0,5.262-1.916,5.95-4.504c-0.682,0.449-1.505,0.825-2.459,1.123C267.839,473.047,266.464,473.286,265.044,473.372z"/>
				<path id="XMLID_21_" style="fill:#112129;" d="M265.592,464.68c-3.352,0-6.08,2.666-6.08,5.943c0,0.426,0.046,0.849,0.137,1.261
					c0.673,0.483,2.706,0.89,5.348,0.731c2.879-0.173,5.297-0.957,6.672-2.159c-0.005-0.195-0.021-0.39-0.045-0.582
					C271.244,466.913,268.65,464.68,265.592,464.68z M263.432,471.194c-1.02,0-1.85-0.83-1.85-1.85c0-1.02,0.83-1.85,1.85-1.85
					c1.02,0,1.85,0.83,1.85,1.85C265.282,470.365,264.452,471.194,263.432,471.194z M268.17,470.286c-0.75,0-1.36-0.61-1.36-1.36
					s0.61-1.361,1.36-1.361c0.75,0,1.361,0.61,1.361,1.361S268.92,470.286,268.17,470.286z"/>
			</g>
			<path id="XMLID_18_" style="fill:#112129;" d="M281.595,466.547c-0.295-0.116-0.805-0.309-1.382-0.237
				c-0.551,0.069-0.844,0.341-0.844,1.007v0.866h2.228v1.717h-2.228v5.455h-1.932v-5.455h-1.34v-1.717h1.34v-0.888
				c0-1.68,0.896-2.783,2.568-2.783c0.643,0,1.157,0.122,1.59,0.308L281.595,466.547z"/>
			<path id="XMLID_16_" style="fill:#112129;" d="M286.298,469.879c-0.177-0.03-0.358-0.046-0.526-0.046
				c-0.896,0-1.51,0.548-1.51,1.614v3.908h-1.932v-7.172h1.873v0.785c0.451-0.673,1.14-0.977,2.021-0.977
				c0.414,0,0.848,0.128,1.094,0.337L286.298,469.879z"/>
			<path id="XMLID_13_" style="fill:#112129;" d="M293.965,471.757c0,0.222-0.015,0.489-0.037,0.651h-5.085
				c0.207,1.036,0.933,1.488,1.843,1.488c0.622,0,1.295-0.252,1.813-0.688l1.132,1.243c-0.814,0.748-1.85,1.088-3.057,1.088
				c-2.198,0-3.723-1.495-3.723-3.753c0-2.258,1.48-3.797,3.627-3.797C292.544,467.99,293.958,469.522,293.965,471.757z
				 M288.851,471.091h3.175c-0.177-0.918-0.733-1.436-1.562-1.436C289.554,469.655,289.021,470.203,288.851,471.091z"/>
			<path id="XMLID_10_" style="fill:#112129;" d="M301.618,471.757c0,0.222-0.015,0.489-0.037,0.651h-5.085
				c0.207,1.036,0.933,1.488,1.843,1.488c0.622,0,1.295-0.252,1.813-0.688l1.132,1.243c-0.814,0.748-1.85,1.088-3.057,1.088
				c-2.198,0-3.723-1.495-3.723-3.753c0-2.258,1.48-3.797,3.627-3.797C300.197,467.99,301.611,469.522,301.618,471.757z
				 M296.504,471.091h3.175c-0.178-0.918-0.733-1.436-1.562-1.436C297.207,469.655,296.674,470.203,296.504,471.091z"/>
			<path id="XMLID_7_" style="fill:#112129;" d="M309.964,471.764c0,2.154-1.495,3.775-3.471,3.775
				c-0.962,0-1.643-0.378-2.109-0.933v3.708h-1.924v-10.133h1.887v0.792c0.466-0.585,1.155-0.984,2.139-0.984
				C308.469,467.99,309.964,469.61,309.964,471.764z M304.287,471.764c0,1.132,0.747,1.976,1.843,1.976
				c1.14,0,1.85-0.881,1.85-1.976c0-1.095-0.71-1.976-1.85-1.976C305.035,469.788,304.287,470.632,304.287,471.764z"/>
			<path id="XMLID_4_" style="fill:#112129;" d="M313.068,465.836c0,0.696-0.54,1.229-1.236,1.229c-0.696,0-1.229-0.533-1.229-1.229
				c0-0.696,0.533-1.243,1.229-1.243C312.527,464.592,313.068,465.14,313.068,465.836z M312.809,475.354h-1.932v-7.172h1.932
				V475.354z"/>
			<path id="XMLID_2_" style="fill:#112129;" d="M316.032,470.736l2.701-2.554h2.368l-3.479,3.375l3.501,3.797h-2.376l-2.716-2.901
				v2.901H314.1v-10.658h1.932V470.736z"/>
		</g>
		<g>
			<path style="fill:#112129;" d="M184.412,475.289v-1.055c-0.527,0.718-1.391,1.23-2.387,1.23c-1.846,0-3.149-1.406-3.149-3.706
				c0-2.256,1.289-3.721,3.149-3.721c0.952,0,1.816,0.469,2.387,1.245v-3.765h1.099v9.77H184.412z M184.412,473.37v-3.208
				c-0.395-0.615-1.245-1.143-2.124-1.143c-1.421,0-2.27,1.172-2.27,2.739c0,1.567,0.85,2.724,2.27,2.724
				C183.168,474.483,184.017,473.986,184.412,473.37z"/>
			<path style="fill:#112129;" d="M186.932,471.744c0-2.051,1.465-3.706,3.486-3.706c2.139,0,3.398,1.67,3.398,3.794v0.279h-5.727
				c0.088,1.333,1.025,2.446,2.549,2.446c0.805,0,1.626-0.322,2.182-0.894l0.527,0.718c-0.703,0.703-1.655,1.084-2.812,1.084
				C188.44,475.465,186.932,473.956,186.932,471.744z M190.403,468.947c-1.509,0-2.256,1.274-2.314,2.358h4.643
				C192.718,470.25,192.015,468.947,190.403,468.947z"/>
			<path style="fill:#112129;" d="M194.607,474.351l0.571-0.791c0.469,0.542,1.362,1.011,2.329,1.011c1.084,0,1.67-0.513,1.67-1.216
				c0-1.714-4.38-0.659-4.38-3.281c0-1.098,0.952-2.036,2.636-2.036c1.201,0,2.051,0.454,2.622,1.026l-0.513,0.762
				c-0.424-0.513-1.201-0.894-2.109-0.894c-0.967,0-1.567,0.483-1.567,1.113c0,1.552,4.38,0.527,4.38,3.281
				c0,1.187-0.952,2.138-2.783,2.138C196.306,475.465,195.325,475.113,194.607,474.351z"/>
			<path style="fill:#112129;" d="M201.477,466.471c0-0.41,0.337-0.747,0.732-0.747c0.41,0,0.747,0.337,0.747,0.747
				c0,0.41-0.337,0.732-0.747,0.732C201.814,467.203,201.477,466.881,201.477,466.471z M201.667,475.289v-7.075h1.099v7.075H201.667
				z"/>
			<path style="fill:#112129;" d="M204.582,477.105l0.556-0.82c0.586,0.703,1.289,0.967,2.3,0.967c1.172,0,2.27-0.571,2.27-2.124
				v-1.011c-0.513,0.718-1.377,1.26-2.373,1.26c-1.845,0-3.149-1.377-3.149-3.662c0-2.27,1.289-3.677,3.149-3.677
				c0.952,0,1.802,0.469,2.373,1.245v-1.069h1.098v6.87c0,2.344-1.641,3.076-3.369,3.076
				C206.237,478.16,205.417,477.926,204.582,477.105z M209.709,473.253v-3.091c-0.381-0.615-1.23-1.143-2.109-1.143
				c-1.421,0-2.27,1.128-2.27,2.695c0,1.553,0.849,2.695,2.27,2.695C208.478,474.41,209.328,473.868,209.709,473.253z"/>
			<path style="fill:#112129;" d="M217.413,475.289v-4.629c0-1.245-0.63-1.641-1.582-1.641c-0.865,0-1.685,0.527-2.095,1.099v5.17
				h-1.099v-7.075h1.099v1.025c0.498-0.586,1.465-1.201,2.519-1.201c1.48,0,2.256,0.747,2.256,2.285v4.966H217.413z"/>
			<path style="fill:#112129;" d="M219.932,471.744c0-2.051,1.465-3.706,3.486-3.706c2.139,0,3.398,1.67,3.398,3.794v0.279h-5.727
				c0.088,1.333,1.025,2.446,2.549,2.446c0.806,0,1.626-0.322,2.183-0.894l0.527,0.718c-0.703,0.703-1.655,1.084-2.812,1.084
				C221.441,475.465,219.932,473.956,219.932,471.744z M223.404,468.947c-1.509,0-2.256,1.274-2.314,2.358h4.643
				C225.718,470.25,225.015,468.947,223.404,468.947z"/>
			<path style="fill:#112129;" d="M233.35,475.289v-1.055c-0.527,0.718-1.392,1.23-2.388,1.23c-1.846,0-3.149-1.406-3.149-3.706
				c0-2.256,1.289-3.721,3.149-3.721c0.952,0,1.817,0.469,2.388,1.245v-3.765h1.098v9.77H233.35z M233.35,473.37v-3.208
				c-0.396-0.615-1.245-1.143-2.124-1.143c-1.421,0-2.27,1.172-2.27,2.739c0,1.567,0.849,2.724,2.27,2.724
				C232.105,474.483,232.954,473.986,233.35,473.37z"/>
			<path style="fill:#112129;" d="M239.692,475.289v-9.77h1.098v3.765c0.572-0.776,1.421-1.245,2.388-1.245
				c1.845,0,3.149,1.465,3.149,3.721c0,2.299-1.304,3.706-3.149,3.706c-0.996,0-1.86-0.513-2.388-1.23v1.055H239.692z
				 M242.9,474.483c1.436,0,2.285-1.157,2.285-2.724c0-1.568-0.85-2.739-2.285-2.739c-0.864,0-1.728,0.527-2.109,1.143v3.208
				C241.171,473.986,242.036,474.483,242.9,474.483z"/>
			<path style="fill:#112129;" d="M247.528,477.061c0.161,0.073,0.425,0.117,0.601,0.117c0.483,0,0.805-0.161,1.055-0.747
				l0.469-1.069l-2.959-7.148h1.187l2.358,5.8l2.344-5.8h1.201l-3.545,8.51c-0.425,1.025-1.143,1.421-2.08,1.435
				c-0.234,0-0.601-0.044-0.806-0.103L247.528,477.061z"/>
		</g>
	</g>
</g>
</svg>
