<?xml version="1.0" encoding="utf-8"?>
<!-- Generator: Adobe Illustrator 27.5.0, SVG Export Plug-In . SVG Version: 6.00 Build 0)  -->
<svg version="1.1" xmlns="http://www.w3.org/2000/svg" xmlns:xlink="http://www.w3.org/1999/xlink" x="0px" y="0px"
	 viewBox="0 0 500 500" style="enable-background:new 0 0 500 500;" xml:space="preserve">
<g id="BACKGROUND">
	<rect style="fill-rule:evenodd;clip-rule:evenodd;fill:#CACACA;" width="500" height="500"/>
	<path style="fill-rule:evenodd;clip-rule:evenodd;fill:#B0B0B0;" d="M58.346,98.761c0.609,4.798,11.076,158.386,16.403,236.837
		c10.857-4.746,20.846-5.105,21.792,8.86c0,0,300.644-225.175,265.633-79.659c0,0,54.542-35.691,93.608-11.212l-7.087-141.923
		L58.346,98.761z"/>
</g>
<g id="OBJECTS">
	<path style="fill-rule:evenodd;clip-rule:evenodd;fill:#B0B0B0;" d="M244.9,447.15c59.577,0,112.355,1.744,144.928,4.425
		c5.685-2.379,17.581-4.018,31.337-4.018c19.275,0,34.9,3.215,34.9,7.182c0,3.966-15.625,7.18-34.9,7.18
		c-3.001,0-5.915-0.077-8.695-0.224c-25.63,4.051-90.982,6.933-167.57,6.933c-98.949,0-179.163-4.808-179.163-10.739
		C65.736,451.959,145.951,447.15,244.9,447.15L244.9,447.15z M415.118,469.607c2.027,0,3.672,0.676,3.672,1.512
		c0,0.834-1.644,1.512-3.672,1.512c-2.027,0-3.672-0.678-3.672-1.512C411.446,470.283,413.09,469.607,415.118,469.607z"/>
	<g>
		<polygon style="fill-rule:evenodd;clip-rule:evenodd;fill:#829767;" points="437.9,293.186 427.191,393.981 433.49,393.981 
			441.364,292.872 		"/>
		<path style="fill-rule:evenodd;clip-rule:evenodd;fill:#738062;" d="M407.82,300.116l10.079,91.03c0,0-6.299,2.52-7.245-0.631
			c-0.945-3.15-5.827-89.454-5.827-89.454L407.82,300.116z"/>
		<path style="fill-rule:evenodd;clip-rule:evenodd;fill:#9F8C6A;" d="M383.03,394.196l7.934,62.853h55.479l7.8-63.603
			c0.155-1.255-0.204-2.397-1.048-3.34c-0.845-0.944-1.939-1.424-3.205-1.41l-62.809,0.735c-1.25,0.015-2.321,0.51-3.143,1.453
			C383.218,391.827,382.873,392.955,383.03,394.196z"/>
		<path style="fill-rule:evenodd;clip-rule:evenodd;fill:#88744F;" d="M390.964,457.05h55.479l7.8-63.603l0.007-0.058l0.006-0.059
			l0.006-0.059c0.004-0.059,0.008-0.116,0.01-0.174l0.003-0.057l0.002-0.057l0.001-0.057v-0.058l-0.001-0.056l-0.003-0.114
			l-0.003-0.056l-0.008-0.113l-0.01-0.111l-0.007-0.056l-0.007-0.055l-0.008-0.055l-0.008-0.054l-0.01-0.055l-0.009-0.054
			l-0.012-0.055l-0.024-0.107l-0.014-0.054l-0.013-0.054l-0.015-0.052l-0.015-0.053l-0.016-0.053l-0.016-0.052l-0.018-0.052
			c-0.031-0.087-0.063-0.172-0.1-0.258l-0.021-0.05l-0.024-0.05l-0.022-0.05l-0.025-0.05l-0.024-0.049l-0.053-0.098l-0.054-0.098
			l-0.057-0.096l-0.061-0.096l-0.052-0.08l-0.021-0.029l-0.056-0.079c-0.028-0.04-0.059-0.079-0.089-0.118l-0.044-0.056
			c-0.052-0.065-0.105-0.127-0.161-0.189c-0.052-0.059-0.105-0.116-0.16-0.171c-0.048-0.048-0.096-0.095-0.146-0.141l-0.065-0.059
			l-0.049-0.043l-0.081-0.068l-0.043-0.036l-0.089-0.069l-0.046-0.034l-0.091-0.066l-0.091-0.062l-0.094-0.06l-0.048-0.029
			l-0.047-0.028l-0.049-0.027l-0.048-0.027L452,389.162l-0.049-0.026l-0.049-0.023l-0.1-0.048l-0.05-0.022l-0.051-0.021l-0.05-0.022
			l-0.052-0.02l-0.051-0.02l-0.052-0.019l-0.053-0.019l-0.104-0.034l-0.053-0.017c-0.249-0.074-0.505-0.124-0.771-0.151
			c-0.057-0.006-0.115-0.01-0.172-0.014c-0.096-0.007-0.194-0.009-0.292-0.009h-0.06l-1.612,0.019l-12.853,58.414l-46.369-4.397
			L390.964,457.05z"/>
		<path style="fill-rule:evenodd;clip-rule:evenodd;fill:#738062;" d="M404.499,292.609c2.477-5.094,0.997-16.18-11.869-11.991
			c0.588,3.265,1.091,7.75,0.074,10.337c-1.303,3.318-2.429-3.311-5.555-7.952c-0.264,0.139-0.53,0.284-0.8,0.434
			c-13.326,7.378-20.181,26.659-22.453,43.419c2.831,1.334,5.535,3.169,4.555,5.048c-0.769,1.472-2.942,1.903-5.252,1.897
			c-0.259,4.048-0.234,7.796,0.043,10.996c0,0,25.585-0.642,44.96-8.157c-1.05-3.186-2.282-8.003,0.172-7.257
			c2.23,0.678,3.923,3.207,4.895,5.052c8.078-3.952,14.332-9.399,15.879-16.911C434.451,291.77,404.499,292.609,404.499,292.609
			L404.499,292.609z M402.232,327.573c0.551,4.41-6.064-2.283-3.859-3.937C400.579,321.983,402.232,327.573,402.232,327.573z"/>
		<path style="fill-rule:evenodd;clip-rule:evenodd;fill:#829767;" d="M445.56,285.185c0,0,38.411-22.795,38.411,5.279
			c0,2.087-0.158,4.199-0.447,6.318c-5.309-1.952-13.513-4.367-15.041-1.306c-1.746,3.502,7.902,9.343,12.599,11.927
			c-7.179,22.718-25.264,43.53-25.264,43.53s-18.855-5.745-30.948-20.625c3.651-2.829,9.882-8.227,8.632-11.231
			c-1.272-3.061-9.093,1.654-13.242,4.436c-3.515-6.342-5.674-13.942-5.254-22.971c0.079-1.679,0.213-3.232,0.395-4.68
			c2.627,0.62,5.434,0.92,5.988-0.421c0.786-1.901-2.729-3.738-5.003-4.799C422.481,267.504,445.56,285.185,445.56,285.185
			L445.56,285.185z M469.021,306.001c0,0-4.201-3.599-5.948-1.979C461.327,305.641,470.821,310.021,469.021,306.001z"/>
		<path style="fill-rule:evenodd;clip-rule:evenodd;fill:#9EB384;" d="M420.311,296.252c0.525-0.14,0.909-0.397,1.079-0.81
			c0.376-0.908-0.232-1.802-1.217-2.604c0.178-7.155,3.677-14.77,20.244-7.533c0,0-17.639-8.347-19.056,16.694
			C421.362,301.999,420.629,299.483,420.311,296.252z"/>
		<path style="fill-rule:evenodd;clip-rule:evenodd;fill:#738062;" d="M445.144,291.135c0,0,13.358,9.273,9.561,47.244
			C454.705,338.379,454.631,313.525,445.144,291.135z"/>
		<path style="fill-rule:evenodd;clip-rule:evenodd;fill:#9EB384;" d="M482.945,286.402c0,0-3.981-5.598-16.049-7.465
			C466.896,278.936,480.955,275.453,482.945,286.402z"/>
	</g>
	<g>
		<polygon style="fill-rule:evenodd;clip-rule:evenodd;fill:#232446;" points="84.584,441.956 416.183,432.253 414.276,459.43 
			84.584,459.43 		"/>
		<g>
			<path style="fill-rule:evenodd;clip-rule:evenodd;fill:#FFFFFF;" d="M86.338,444.054h73.806c4.845,0,8.807,3.46,8.807,7.688
				v7.688H77.53v-7.688C77.53,447.514,81.493,444.054,86.338,444.054z"/>
			<path style="fill-rule:evenodd;clip-rule:evenodd;fill:#232446;" d="M87.144,456.668c2.637,0,4.787-2.15,4.787-4.787
				c0-2.637-2.151-4.788-4.787-4.788c-2.637,0-4.787,2.151-4.787,4.788C82.357,454.517,84.507,456.668,87.144,456.668z"/>
		</g>
		<g>
			<path style="fill-rule:evenodd;clip-rule:evenodd;fill:#FFFFFF;" d="M314.03,432.202l-7.457,27.228h122.732l-9.18-47.409
				l-102.04,16.538C316.091,428.882,314.564,430.255,314.03,432.202z"/>
			<path style="fill-rule:evenodd;clip-rule:evenodd;fill:#FFFFFF;" d="M426.23,442.201l-34.066-168.409
				c0.086-0.984-0.109-1.882-0.531-2.622l-5.104-25.231l34.441-19.885c2.134-1.232,2.869-3.976,1.637-6.111l-0.277-0.478
				c-1.232-2.133-3.976-2.869-6.109-1.637l-88.856,51.3h-19.823c-3.078,0-6.244,2.518-7.035,5.597l0,0
				c-0.792,3.078,1.078,5.596,4.155,5.596h73.393l28.268,164.194L426.23,442.201z"/>
			<polygon style="fill-rule:evenodd;clip-rule:evenodd;fill:#B0B0B0;" points="394.772,286.685 393.485,280.324 378.055,280.324 
				379.15,286.685 			"/>
			<polygon style="fill-rule:evenodd;clip-rule:evenodd;fill:#232446;" points="398.392,228.124 397.932,224.969 414.765,214.068 
				412.947,211.133 330.474,265.788 331.144,266.949 331.145,266.949 			"/>
			<path style="fill-rule:evenodd;clip-rule:evenodd;fill:#232446;" d="M406.032,455.054c6.108,0,11.09-4.982,11.09-11.09
				c0-6.108-4.982-11.09-11.09-11.09c-6.108,0-11.09,4.982-11.09,11.09C394.942,450.072,399.924,455.054,406.032,455.054z"/>
		</g>
		<path style="fill-rule:evenodd;clip-rule:evenodd;fill:#232446;" d="M27.723,399.944l14.084-0.538v0.468l0.022,0.007
			l-13.853,0.529l1.043,27.284c2.547-2.748,5.398-5.337,7.975-7.503c-0.569-1.182-0.887-2.506-0.887-3.904
			c0-4.976,4.033-9.009,9.007-9.009c4.976,0,9.009,4.033,9.009,9.009c0,4.975-4.033,9.007-9.009,9.007
			c-3.403,0-6.365-1.887-7.898-4.671c-2.652,2.234-5.588,4.91-8.172,7.743l0.194,5.059l33.015-1.262l-1.261-33.014l-12.365,0.472
			l-0.019-0.475l12.84-0.49l1.297,33.963c-11.319,0.442-22.642,0.876-33.963,1.299l-0.197-5.042
			c-1.66,1.863-3.153,3.783-4.301,5.683c-1.636,2.705-2.571,5.362-2.285,7.729c0.283,2.346,1.779,4.426,5.003,6.011
			c4.302,2.114,11.643,3.342,23.214,3.151c60.997-1.008,121.554,3.515,121.729,3.528l-0.035,0.475
			c-0.176-0.013-60.724-4.536-121.687-3.528c-11.651,0.192-19.064-1.055-23.429-3.2c-3.389-1.665-4.965-3.876-5.267-6.38
			c-0.301-2.484,0.662-5.24,2.35-8.03c1.24-2.05,2.873-4.121,4.683-6.119c-0.366-9.413-0.724-18.828-1.076-28.241L27.723,399.944z"
			/>
	</g>
	<g>
		<g>
			<path style="fill-rule:evenodd;clip-rule:evenodd;fill:#232446;" d="M205.373,326.932c-35.167,12.127-57.89,47.805-57.89,47.805
				l8.699,10.841c29.529-20.857,69.252-37.988,78.788-45.717c6.395-4.874,9.429-56.034,11.84-70.765l-9.392-37.569l-7.108,0.703
				c0,0-25.777,8.193-23.116,56.342C207.55,295.006,212.951,324.32,205.373,326.932z"/>
			<path style="fill-rule:evenodd;clip-rule:evenodd;fill:#FFFFFF;" d="M156.182,385.577c0,0,2.209,18.255,6.338,29.461
				c0,0,0.222,1.622-2.579,3.244l-30.594-31.111l18.137-12.434L156.182,385.577z"/>
		</g>
		<g>
			<path style="fill-rule:evenodd;clip-rule:evenodd;fill:#DC8C8C;" d="M230.341,160.498c-6.052,16.148,13.218,41.458,40.053,50.008
				c0,0,20.052-21.526,28.899-52.931l5.973-10.101l-10.394-5.529l-2.805,12.533c-10.38,19.527-21.378,20.495-26.686,36.419
				C259.854,184.621,237.846,140.472,230.341,160.498z"/>
			<path style="fill-rule:evenodd;clip-rule:evenodd;fill:#DC8C8C;" d="M294.872,141.945l6.708-6.12c0,0,2.139,1.328,1.549,3.244
				l3.538,5.16l-1.401,3.245L294.872,141.945z"/>
		</g>
		<path style="fill-rule:evenodd;clip-rule:evenodd;fill:#EBB39D;" d="M219.08,231.282c-12.677,10.911-23.858,26.829,6.053,62.768
			c5.683,6.827,31.647,36.371,25.181,49.549c-5.014,36.861,10.269,71.924,10.269,71.924h15.923
			c-3.539-38.629,2.508-85.282-0.736-93.244l-28.178-74.541l2.671-14.187c6.343-17.207,10.436-31.194,9.266-44.836
			c3.628-4.936,4.049-10.582,4.049-10.582l-19.514-24.257v0.001c-0.302-0.38-0.607-0.761-0.92-1.143c0,0-0.417-14.171-1.939-21.313
			c-1.521-7.143-19.782-8.05-19.782-8.05s3.868,11.905,5.05,29.363C206.369,167.837,226.723,201.103,219.08,231.282z"/>
		<g>
			<g>
				<path style="fill-rule:evenodd;clip-rule:evenodd;fill:#6F89DB;" d="M219.08,231.282c-12.677,10.911-23.858,26.829,6.053,62.768
					c5.683,6.827,31.647,36.371,25.181,49.549c-5.014,36.861,10.269,71.924,10.269,71.924h15.923
					c-3.539-38.629,2.508-85.282-0.736-93.244l-28.178-74.541l1.904-10.114C235.496,236.21,219.08,231.282,219.08,231.282z"/>
				<path style="fill-rule:evenodd;clip-rule:evenodd;fill:#647FD1;" d="M249.347,355.743c-0.846,32.058,11.236,59.78,11.236,59.78
					h15.923c-2.988-32.617,0.857-70.953,0.174-86.89c-14.074-17.348-13.184,69.707-21.951,35.389
					C252.615,355.746,250.833,353.854,249.347,355.743z"/>
				<path style="fill-rule:evenodd;clip-rule:evenodd;fill:#4D5BB3;" d="M219.08,231.282c-5.76,4.958-11.211,10.949-12.638,19.383
					c10.887-6.054,29.343-3.79,43.692,3.801l-2.543-6.727l1.904-10.114C235.496,236.21,219.08,231.282,219.08,231.282
					L219.08,231.282z M252.588,273.436c0,0-11.308-12.506-28.727-17.639C223.861,255.798,243.705,253.214,252.588,273.436z"/>
				<path style="fill-rule:evenodd;clip-rule:evenodd;fill:#4D5BB3;" d="M230.612,239.637c-0.017,0.027-5.984,9.339-0.131,23.238
					c5.893,13.996,32.062,66.921,32.137,67.074l0.03,0.061l-0.009,0.067c-0.019,0.137-6.63,47.361,1.764,79.755l0.004,0.017
					l9.741,0.369l-0.015,0.444c-4.462-0.169-10.279-0.063-14.56-0.552l0.007-0.445h4.323c-8.145-31.838-1.976-77.674-1.714-79.579
					c-0.962-1.947-26.319-53.266-32.117-67.036c-5.943-14.114,0.146-23.62,0.164-23.648L230.612,239.637L230.612,239.637z
					 M256.342,350.298l-0.27-0.422l-1.462,0.931l0.268,0.422L256.342,350.298L256.342,350.298z M260.977,305.169h-0.503v3.588h0.503
					V305.169z"/>
				<path style="fill-rule:evenodd;clip-rule:evenodd;fill:#FFFFFF;" d="M252.88,261.054c1.074,2.843,2.85,7.219,4.959,12.422
					c7.395,18.232,18.908,46.621,19.091,55.46c0.068,3.297-0.356,20.426-0.357,20.475l-0.475-0.01
					c0.001-0.049,0.425-17.17,0.357-20.455c-0.18-8.749-11.674-37.09-19.057-55.291c-2.107-5.197-3.88-9.566-4.964-12.433
					L252.88,261.054z"/>
			</g>
			<g>
				<path style="fill-rule:evenodd;clip-rule:evenodd;fill:#FFFFFF;" d="M276.506,415.523c0,0,12.922,12.808,23.766,17.812
					c0,0,1.303,0.99,0.469,4.118l-44.19-0.313l4.033-21.618H276.506z"/>
				<path style="fill-rule:evenodd;clip-rule:evenodd;fill:#B8C4E5;" d="M276.506,415.523c0,0,0.495,0.49,1.368,1.313l-18.008,2.529
					l0.717-3.842H276.506z"/>
			</g>
		</g>
		<g>
			<path style="fill-rule:evenodd;clip-rule:evenodd;fill:#3A3C6C;" d="M252.165,112.669c0,0,4.663-5.752,4.923-10.422
				c1.629-3.389,3.036-9.345-8.109-8.065l0.01,0.095c-5.865-4.299-19.537-12.09-31.533-2.283c-0.266,0.277-0.526,0.551-0.782,0.823
				c-0.285-0.468-0.605-0.912-0.956-1.327c-0.97-3.072-3.302-6.464-9.897-5.521c-4.424,0.632-8.132,3.736-10.069,7.239
				c-0.549,0.991-0.954,2.013-1.195,3.023c-0.651,1.235-1.07,2.612-1.189,4.063c-0.351,4.222,1.938,7.814,5.439,9.154
				c-2.658-1.677-4.28-4.822-3.981-8.425l0.008-0.091c0.02,0.044,0.04,0.089,0.062,0.132c0.368,5.642,4.881,9.978,10.747,9.978
				c0.245,0,0.489-0.008,0.731-0.023c-0.756,11.444,13.044,17.038,18.359,26.899C243.139,139.794,252.165,112.669,252.165,112.669
				L252.165,112.669z M207.461,87.75c-3.905,0-7.51,1.922-9.854,4.871c-1.052,0.8-1.964,1.801-2.671,2.945
				c0.239-0.759,0.57-1.522,0.981-2.266c1.911-3.458,5.569-6.521,9.93-7.144c6.137-0.877,8.506,2.084,9.543,4.965
				C213.45,89.038,210.656,87.75,207.461,87.75L207.461,87.75z M257.097,101.764c-0.029-2.384-1.332-4.412-5.182-5.124
				c0,0-1.031-0.968-2.813-2.282C259.366,93.214,258.567,98.436,257.097,101.764z"/>
			<path style="fill-rule:evenodd;clip-rule:evenodd;fill:#232446;" d="M198.659,89.511c-1.185,1.099-2.173,2.37-2.907,3.696
				c-0.549,0.991-0.954,2.013-1.195,3.023c-0.651,1.235-1.07,2.612-1.189,4.063c-0.231,2.78,0.683,5.287,2.333,7.057l0,0
				l0.093,0.098l0.021,0.021c0.034,0.035,0.069,0.071,0.105,0.105l0.009,0.009c0.077,0.077,0.156,0.152,0.237,0.226l0.014,0.013
				l0.117,0.105l0.008,0.007c0.084,0.074,0.17,0.147,0.258,0.217l0.003,0.003c0.042,0.034,0.085,0.068,0.129,0.102l0.007,0.006
				c0.177,0.136,0.359,0.265,0.546,0.388l0.026,0.017l0.119,0.075l0.023,0.015l0.13,0.078l0.014,0.008
				c0.046,0.027,0.093,0.054,0.139,0.08l0.008,0.005c0.1,0.055,0.199,0.109,0.301,0.162l0.006,0.002l0.141,0.069l0.026,0.013
				c0.204,0.098,0.413,0.189,0.627,0.271c-0.081-0.052-0.16-0.104-0.24-0.158l-0.014-0.009c-0.077-0.053-0.153-0.107-0.229-0.162
				l-0.007-0.006l-0.105-0.078l-0.015-0.012l-0.101-0.078l-0.015-0.012l-0.107-0.086l-0.001-0.001
				c-0.109-0.089-0.216-0.182-0.32-0.277l-0.022-0.021l-0.091-0.084l-0.01-0.01l-0.096-0.093l-0.007-0.006
				c-0.098-0.097-0.194-0.196-0.288-0.298l-0.039-0.041c-0.054-0.06-0.107-0.119-0.159-0.18l-0.036-0.043l-0.054-0.063l-0.045-0.055
				l-0.061-0.076l-0.008-0.01l-0.077-0.096l-0.019-0.024l-0.08-0.105l-0.003-0.005l-0.076-0.104l-0.022-0.031l-0.056-0.079
				l-0.026-0.038l-0.051-0.076l-0.04-0.059l-0.06-0.091l-0.011-0.018l-0.059-0.093l-0.035-0.057l-0.038-0.063l-0.032-0.053
				l-0.047-0.081l-0.026-0.045l-0.061-0.109l-0.003-0.006l-0.064-0.119l-0.01-0.02c-0.791-1.502-1.172-3.283-1.012-5.193
				l0.008-0.091c0.02,0.044,0.04,0.089,0.062,0.132c0.093,1.428,0.451,2.77,1.029,3.981l0,0l0.006,0.011l0.05,0.103l0.042,0.086
				l0.038,0.073l0.05,0.098l0.047,0.087l0.041,0.076l0.052,0.093l0.046,0.08l0.05,0.088l0.045,0.075l0.057,0.094l0.034,0.056
				l0.069,0.109l0.05,0.079l0.048,0.073c0.07,0.108,0.144,0.213,0.219,0.317l0.046,0.063l0.07,0.096l0.041,0.055l0.079,0.101
				l0.04,0.051l0.079,0.1l0.047,0.058l0.083,0.101l0.033,0.038l0.102,0.119l0.025,0.028l0.093,0.103l0.046,0.052
				c0.267,0.291,0.55,0.566,0.848,0.825l0.001,0.001c0.101,0.088,0.204,0.174,0.308,0.258c0.103,0.082,0.208,0.164,0.314,0.243
				l0.007,0.004c1.786,1.327,4.028,2.105,6.514,2.105c0.245,0,0.489-0.008,0.731-0.023c0,0,0.535-5.743,6.653-9.207
				c0,0-4.17,1.914-8.639,1.559c-6.235-1.127-7.026-6.378-6.238-11.387c-0.186,0.207-0.367,0.42-0.542,0.637
				c-1.052,0.8-1.964,1.801-2.671,2.945c0.239-0.759,0.57-1.522,0.981-2.266c0.681-1.231,1.582-2.412,2.658-3.449
				C198.602,89.736,198.63,89.624,198.659,89.511L198.659,89.511z M206.516,114.025c1.561,9.497,13.388,14.934,18.215,23.892
				c2.621,0.267,5.051-0.055,7.293-0.802c8.098-11.038,11.034-24.479-9.708-22.773C214.449,114.989,209.492,114.76,206.516,114.025z
				"/>
			<g>
				<path style="fill-rule:evenodd;clip-rule:evenodd;fill:#60629A;" d="M233.779,88.364c4.239,0.437,7.675,1.801,7.675,3.049
					c0,1.248-3.436,1.906-7.675,1.469c-4.238-0.436-7.674-1.801-7.674-3.049C226.105,88.586,229.542,87.928,233.779,88.364z"/>
				<path style="fill-rule:evenodd;clip-rule:evenodd;fill:#60629A;" d="M209.295,92.01c2.05,0,3.721-0.67,3.721-1.494
					c0-0.824-1.671-1.495-3.721-1.495c-2.05,0-3.721,0.671-3.721,1.495C205.574,91.34,207.245,92.01,209.295,92.01z"/>
			</g>
		</g>
		<g>
			<path style="fill-rule:evenodd;clip-rule:evenodd;fill:#DC8C8C;" d="M254.424,221.597c0.778-2.421,1.486-4.784,2.113-7.097
				c-11.299-0.58-27.853-0.75-35.663,2.469c-0.04,2.22-0.174,4.441-0.423,6.654c2.404,1.363,6.012,2.459,11.077,1.741
				C241.939,223.889,248.209,220.205,254.424,221.597z"/>
			<path style="fill-rule:evenodd;clip-rule:evenodd;fill:#DC8C8C;" d="M242.97,148.595c-0.242-4.748-0.764-12.479-1.765-17.172
				c-0.734-3.448-5.368-5.442-9.966-6.583l-8.064,0.974C223.174,125.813,225.767,145.491,242.97,148.595z"/>
		</g>
		<g>
			<path style="fill-rule:evenodd;clip-rule:evenodd;fill:#FFFFFF;" d="M224.888,149.647c0,0,24.77,16.808,24.77,8.993
				c0,0,13.946,15.358,14.326,19.604c0.381,4.245-4.365,11.676-4.365,11.676s5.669,3.959,0.655,5.581c0,0-0.442,16.071-3.538,26.981
				c0,0-7.077-4.129-19.167-0.442c-12.091,3.686-20.053-2.802-20.053-2.802s3.244-10.468-0.294-26.244
				C213.681,177.219,213.239,165.399,224.888,149.647z"/>
			<path style="fill-rule:evenodd;clip-rule:evenodd;fill:#F1F2FF;" d="M226.304,222.845c-3.899-0.667-6.673-2.189-7.967-3.027
				l-0.012-0.007c-0.12-0.077-0.227-0.15-0.321-0.214l-0.003-0.003c-0.126-0.087-0.23-0.16-0.307-0.218l-0.02-0.015l-0.01-0.007
				l-0.031-0.023l-0.064-0.049l-0.021-0.017l-0.017-0.013l-0.013-0.01l-0.004-0.002l0.002-0.007l0.005-0.015l0.001-0.001
				l0.004-0.014l0.008-0.027l0.006-0.02l0.005-0.016l0.005-0.016l0.001-0.003l0.006-0.025l0.004-0.013l0.01-0.038l0.006-0.019
				l0.03-0.113l0.035-0.135l0.01-0.035l0.027-0.109l0.008-0.028l0.015-0.063l0.031-0.128l0.009-0.036l0.018-0.076l0.072-0.309
				l0.007-0.033l0.031-0.145l0.013-0.059l0.034-0.155l0.008-0.041l0.029-0.141l0.008-0.041c0.745-3.669,1.917-12.528-0.742-24.384
				c-2.835-12.64-3.682-22.739,2.083-34.356c2.466,0.34,5.137,0.765,8.057,1.297c0,0,11.041,0.536,3.973,17.075
				c-7.069,16.541,15.194,13.888,15.194,13.888l-17.25,3.096c0,0-4.072,16.316-3.061,27.956c2.385,0.61,5.256,0.928,8.709,0.753
				c-3.262,0.643-6.164,0.561-8.621,0.141V222.845z"/>
			<path style="fill-rule:evenodd;clip-rule:evenodd;fill:#3A3C6C;" d="M249.111,156.352c0.275,1.042,0.266,1.846,0.026,2.443
				c-0.402,1.005-1.417,1.408-2.823,1.377c-1.328-0.029-3.023-0.449-4.878-1.108c-6.427-2.284-14.895-7.479-16.722-9.237
				l0.347-0.361c1.801,1.732,10.172,6.863,16.542,9.124c1.81,0.643,3.452,1.053,4.722,1.081c1.189,0.026,2.035-0.285,2.348-1.063
				c0.199-0.499,0.199-1.198-0.047-2.131L249.111,156.352z"/>
			<path style="fill-rule:evenodd;clip-rule:evenodd;fill:#232446;" d="M256.735,222.483c0,0-0.455,1.025-2.947,1.061
				c0.223-0.671,0.439-1.336,0.652-1.997C255.944,222.022,256.735,222.483,256.735,222.483z"/>
		</g>
		<g>
			<path style="fill-rule:evenodd;clip-rule:evenodd;fill:#EBB39D;" d="M252.351,106.905c0,0,1.27,6.965,1.764,15.894
				c0.819,1.347,1.998,3.033,3.31,4.112c0,0-0.452,2.237-3.116,2.567c0.002,4.327-0.253,8.811-0.955,12.99
				c-3.882,1.628-25.42,2.505-30.178-16.654c0,0-5.626,2.579-7.353-3.718c-1.808-6.592,3.654-8.216,5.349-5.047
				C221.17,117.048,243.335,115.922,252.351,106.905z"/>
			<g>
				<path style="fill-rule:evenodd;clip-rule:evenodd;fill:#DC8C8C;" d="M252.351,106.905c0,0,0.029,0.159,0.08,0.459
					c-3.296,3.014-15.138,12.481-31.26,9.684C221.17,117.048,243.335,115.922,252.351,106.905L252.351,106.905z M249.085,119.08
					l-3.703,0.041l1.545,0.606c0,0,0.697,2.891,1.827,2.875c1.13-0.018,1.478-1.23,1.478-1.23S247.863,120.027,249.085,119.08
					L249.085,119.08z M251.979,116.315c-0.273-2.299-2.101-2.285-2.101-2.285c0.16,0.58-0.178,1.196-0.178,1.196
					c-0.159-0.527-0.887-0.873-0.887-0.873c-5.22,0.052-7.634,2.364-7.634,2.364L251.979,116.315z"/>
				<path style="fill-rule:evenodd;clip-rule:evenodd;fill:#DC8C8C;" d="M223.174,125.813c0,0-5.626,2.579-7.353-3.718
					c-0.375-1.368-0.437-2.521-0.284-3.462c2.681-2.51,5.761,1.172,5.761,1.172s-2.004,0.344-1.628,2.442
					c0.375,2.098,3.099,1.628,3.099,1.628L223.174,125.813z"/>
				<path style="fill-rule:evenodd;clip-rule:evenodd;fill:#DC8C8C;" d="M254.139,128.214c0,0-1.661-0.45-2.317,0.972
					C251.822,129.186,251.354,126.752,254.139,128.214z"/>
			</g>
			<g>
				<path style="fill-rule:evenodd;clip-rule:evenodd;fill:#3A3C6C;" d="M249.286,101.831c0.574,0.51,3.14,5.014,3.147,5.027
					l0.028,0.049l-0.031,0.048c-0.026,0.04-8.661,14.092-31.551,9.756l0.035-0.187c22.021,4.172,30.756-8.741,31.326-9.624
					c-0.279-0.489-2.562-4.468-3.081-4.93L249.286,101.831z"/>
				<g>
					<path style="fill-rule:evenodd;clip-rule:evenodd;fill:#232446;" d="M251.979,116.315h-10.8c0,0,2.414-2.221,7.634-2.079
						c0,0,0.728,0.373,0.887,0.906c0,0,0.338-0.605,0.178-1.191C249.878,113.951,251.706,114.005,251.979,116.315z"/>
					<path style="fill-rule:evenodd;clip-rule:evenodd;fill:#232446;" d="M250.337,120.808c-0.306,0-0.475-0.376-0.376-0.839
						c0.099-0.464,0.428-0.839,0.734-0.839c0.14,0,0.245,0.085,0.315,0.213l0.119-0.786l-5.748,0.565l2.501,0.238
						c-0.056,0.846-0.088,3.246,1.386,2.985c0.873-0.156,1.23-0.92,1.371-1.662C250.541,120.755,250.44,120.808,250.337,120.808z"/>
				</g>
			</g>
			<g>
				<path style="fill-rule:evenodd;clip-rule:evenodd;fill:#6F89DB;" d="M220.498,120.783c1.189,0,2.154,0.965,2.154,2.154
					c0,0.285-0.056,0.558-0.157,0.807c0.368,0.237,0.613,0.65,0.613,1.12c0,0.735-0.596,1.331-1.331,1.331
					c-0.659,0-1.205-0.48-1.311-1.108c-1.174-0.017-2.12-0.974-2.12-2.151C218.345,121.748,219.309,120.783,220.498,120.783z"/>
				<path style="fill-rule:evenodd;clip-rule:evenodd;fill:#FFFFFF;" d="M220.676,121.675c0.447,0,0.811-0.162,0.811-0.36
					c0-0.199-0.365-0.36-0.811-0.36s-0.812,0.162-0.812,0.36C219.864,121.513,220.229,121.675,220.676,121.675z"/>
			</g>
		</g>
		<g>
			<path style="fill-rule:evenodd;clip-rule:evenodd;fill:#DC8C8C;" d="M249.578,241.129l6.12,6.708c0,0-1.327,2.139-3.244,1.548
				l-5.16,3.539l-3.245-1.402L249.578,241.129z"/>
			<path style="fill-rule:evenodd;clip-rule:evenodd;fill:#EBB39D;" d="M231.809,157.61c-14.584-9.203-42.241,32.206-50.792,59.041
				c0,0,21.526,20.052,52.932,28.898l10.1,5.975l5.529-10.394l-12.532-2.804c-19.526-10.38-20.495-21.379-36.418-26.686
				C206.902,206.111,244.168,165.411,231.809,157.61z"/>
			<path style="fill-rule:evenodd;clip-rule:evenodd;fill:#DC8C8C;" d="M201.191,211.124c0.927-0.867,2.254-2.196,3.854-3.881
				c-2.485,0.489-6.435,1.395-12.096,3.039C192.95,210.283,197.048,210.404,201.191,211.124z"/>
			<path style="fill-rule:evenodd;clip-rule:evenodd;fill:#FFFFFF;" d="M237.67,238.687c-0.029-0.014-10.297-4.919-20.568-15.677
				c-10.187-10.669-22.311-11.947-22.346-11.95l0.049-0.442c0.035,0.004,12.32,1.297,22.619,12.085
				c10.214,10.699,20.412,15.57,20.441,15.584L237.67,238.687z"/>
			<path style="fill-rule:evenodd;clip-rule:evenodd;fill:#FFFFFF;" d="M232.914,164.2c0.005-0.027,2.018-9.55-11.195-6.291
				c-13.473,3.324-30.549,36.172-30.598,36.267l-0.421-0.221c0.051-0.095,17.222-33.131,30.905-36.506
				c13.944-3.439,11.78,6.811,11.775,6.841L232.914,164.2z"/>
		</g>
	</g>
	<g>
		<g>
			<path style="fill-rule:evenodd;clip-rule:evenodd;fill:#FFFFFF;" d="M212.37,151.705c0.485,0,0.881-0.396,0.881-0.881
				c0-0.485-0.396-0.882-0.881-0.882c-0.485,0-0.882,0.397-0.882,0.882C211.488,151.309,211.885,151.705,212.37,151.705z"/>
			<path style="fill-rule:evenodd;clip-rule:evenodd;fill:#FFFFFF;" d="M281.414,233.853c1.665,0,3.023-1.358,3.023-3.023
				s-1.358-3.024-3.023-3.024c-1.665,0-3.024,1.359-3.024,3.024S279.749,233.853,281.414,233.853z"/>
			<path style="fill-rule:evenodd;clip-rule:evenodd;fill:#FFFFFF;" d="M167.014,320.031c1.11,0,2.015-0.906,2.015-2.017
				c0-1.111-0.906-2.016-2.015-2.016c-1.11,0-2.016,0.905-2.016,2.016C164.998,319.126,165.904,320.031,167.014,320.031z"/>
			<path style="fill-rule:evenodd;clip-rule:evenodd;fill:#FFFFFF;" d="M159.076,340.805c0.687,0,1.247-0.56,1.247-1.247
				c0-0.687-0.56-1.247-1.247-1.247c-0.687,0-1.248,0.56-1.248,1.247C157.828,340.245,158.39,340.805,159.076,340.805z"/>
		</g>
		<g>
			<text transform="matrix(0.9762 -0.1524 0.1542 0.988 69.9753 239.3395)"><tspan x="0" y="0" style="fill:#FFFFFF; font-family:'LapsusPro-Bold'; font-size:33.4976px;">S</tspan><tspan x="16.514" y="0" style="fill:#FFFFFF; font-family:'LapsusPro-Bold'; font-size:33.4976px;">tay</tspan><tspan x="-28.154" y="33.498" style="fill:#FFFFFF; font-family:'LapsusPro-Bold'; font-size:33.4976px;">H</tspan><tspan x="-6.314" y="33.498" style="fill:#FFFFFF; font-family:'LapsusPro-Bold'; font-size:33.4976px;">ealthy!</tspan></text>
			<path style="fill-rule:evenodd;clip-rule:evenodd;fill:#FFFFFF;" d="M153.175,179.084l-4.095,8.505l-2.139-1.033l4.095-8.503
				L153.175,179.084L153.175,179.084z M142.953,275.158l3.779,4.724l-1.85,1.479l-3.781-4.724L142.953,275.158L142.953,275.158z
				 M94.057,299.753l-1.26,6.299l-2.334-0.465l1.26-6.299L94.057,299.753L94.057,299.753z M33.399,198.376l11.025,7.559l-1.34,1.963
				l-11.025-7.56L33.399,198.376z"/>
		</g>
		<g>
			<path style="fill-rule:evenodd;clip-rule:evenodd;fill:#FFFFFF;" d="M367.641,224.638c-0.014-0.126-5.168-43.928,21.742-61.006
				l0.261,0.411c-26.652,16.914-21.535,60.417-21.52,60.542L367.641,224.638z"/>
			<path style="fill-rule:evenodd;clip-rule:evenodd;fill:#FFFFFF;" d="M393.705,142.979c1.679,0,2.956,0.601,3.837,1.805
				c0.362,0.706,0.54,1.462,0.54,2.261c0,0.977-0.362,1.969-1.092,2.973c1.046,0.709,1.566,1.727,1.566,3.05
				c0,2.712-1.618,4.066-4.85,4.066c-1.832,0-3.579-0.625-5.239-1.877l1.407-2.856c1.686,0.991,3.007,1.488,3.969,1.488
				c0.871-0.101,1.306-0.45,1.306-1.055c0-0.662-0.641-0.995-1.928-0.995l-1.31-0.031l0.08-2.785l1.536-0.118
				c0.722-0.296,1.082-0.783,1.082-1.465c0-0.597-0.437-0.95-1.31-1.055c-0.864,0-1.902,0.43-3.108,1.29l-1.408-2.745
				C390.271,143.63,391.911,142.979,393.705,142.979L393.705,142.979z M399.027,154.811L402,154.88l-0.275,2.284l-2.856-0.178
				L399.027,154.811L399.027,154.811z M411.677,142.841l-0.306,3.054c-3.05,0.151-4.762,0.279-5.131,0.383l0.061,1.586
				c0.977-0.108,1.8-0.146,2.469-0.122c1.273,0.128,2.241,0.797,2.906,2.01c0.517,0.931,0.776,1.939,0.776,3.02
				c0,2.003-0.984,3.35-2.954,4.038c-0.75,0.158-1.395,0.236-1.938,0.236c-1.522,0-3.283-0.622-5.275-1.862l1.397-2.952
				c1.13,1.142,2.419,1.714,3.878,1.714c0.984-0.112,1.474-0.578,1.474-1.398c0-1.062-0.618-1.66-1.857-1.791h-1.173
				c-0.682,0-1.562,0.057-2.636,0.178v-7.727L411.677,142.841L411.677,142.841z M422.491,144.102
				c-0.322,2.167-0.52,3.95-0.601,5.356l3.693-1.812l0.846,2.541l-2.883,1.78c0.851,0.729,1.778,1.679,2.775,2.856l-2.325,2.174
				l-2.704-2.816c-0.212,1.052-0.397,2.013-0.552,2.886h-3.218c0.558-5.59,1.019-10.328,1.388-14.215L422.491,144.102
				L422.491,144.102z M429.413,146.768l-3.178,0.571c0.181,1.405,0.279,3.078,0.285,5.02l-0.029,4.696h3.386l0.068-4.714
				c0.013-0.81,0.423-1.217,1.229-1.223c0.544,0.081,0.841,0.356,0.887,0.826l0.02,3.171l0.031,1.939h2.912l-0.02-4.764
				c-0.077-1.168,0.282-1.757,1.081-1.771c0.599,0.05,0.928,0.377,0.984,0.975c0.007,2.432,0.007,4.287,0,5.56h2.995
				c0.157-1.515,0.236-3.638,0.236-6.37c0-0.682-0.112-1.351-0.333-2.006c-0.709-1.226-1.661-1.841-2.847-1.841
				c-1.501,0-2.563,0.336-3.178,1.005c-0.605-0.383-1.303-0.604-2.096-0.673c-0.591-0.063-1.374,0.02-2.346,0.259L429.413,146.768z"
				/>
		</g>
	</g>
</g>
</svg>
