<?xml version="1.0" encoding="utf-8"?>
<!-- Generator: Adobe Illustrator 27.5.0, SVG Export Plug-In . SVG Version: 6.00 Build 0)  -->
<svg version="1.1" xmlns="http://www.w3.org/2000/svg" xmlns:xlink="http://www.w3.org/1999/xlink" x="0px" y="0px"
	 viewBox="0 0 500 500" style="enable-background:new 0 0 500 500;" xml:space="preserve">
<g id="BACKGROUND">
	<g>
		<rect style="fill:#FFFFFF;" width="500" height="500"/>
		<path style="fill:#FFF3E1;" d="M118.013,228.201c8.589-27.608,30.626-44.618,50.644-61.014
			c39.191-32.1,77.816-70.269,124.371-79.058c30.201-5.702,61.757,1.973,88.562,19.994c56.744,38.15,102.383,132.317,68.851,209.868
			c-46.425,107.363-186.843,105.955-263.844,55.555c-20.962-13.72-39.796-32.868-53.688-56.632
			C117.966,291.356,108.87,257.616,118.013,228.201z"/>
	</g>
</g>
<g id="OBJECTS">
	<path style="fill:#E2E2E2;" d="M472.156,447.447c0-3.851-99.463-6.973-222.156-6.973s-222.156,3.122-222.156,6.973
		c0,3.851,99.463,6.973,222.156,6.973S472.156,451.298,472.156,447.447z"/>
	<g>
		<path style="fill:#40746E;" d="M439.466,407.779c0.015-0.2,0.032-0.4,0.046-0.6c-0.335-5.493,3.285-41.951-0.475-64.288
			c-1.655-9.836-9.964-18.267-9.964-18.267s-5.138,8.162-4.495,18.301c1.209,19.093,8.316,48.431,11.757,64.98
			C437.375,407.844,438.419,407.798,439.466,407.779z"/>
		<path style="fill:#529665;" d="M439.199,412.486c1.038-0.034,2.077-0.045,3.114-0.029c2.586-12.521,9.446-36.13,11.387-55.098
			c1.634-15.973-1.426-28.655-1.426-28.655s-11.513,16.586-14.175,35.189C436.169,377.37,438.798,409.819,439.199,412.486z"/>
		<path style="fill:#96CF90;" d="M452.49,362.282c-6.287,10.156-11.086,30.269-12.765,46.042c0.457,0.041,0.913,0.087,1.368,0.139
			c5.421-16.802,19.353-32.994,25.886-43.943c2.169-3.636,7.058-15.394,7.058-15.394S459.564,350.854,452.49,362.282z"/>
		<path style="fill:#96CF90;" d="M438.653,408.507c1.652-18.518-2.142-41.355-8.846-52.818
			c-5.088-8.701-22.474-15.304-22.474-15.304s4.387,11.158,7.833,16.24c7.906,11.66,19.296,31.958,22.425,51.882H438.653z"/>
		<g>
			<path style="fill:#529665;" d="M437.961,410.238c-0.083-0.85-0.189-1.696-0.328-2.534c-1.056-9.86-5.124-23.497-10.922-33.859
				c-4.911-8.777-17.677-15.002-17.677-15.002s-0.598,13.088,7.525,22.667c6.928,8.169,14.427,17.37,17.947,28.842
				C435.652,410.295,436.805,410.251,437.961,410.238z"/>
		</g>
		<polygon style="fill:#313858;" points="426.085,445.351 447.461,445.351 450.782,399.364 422.764,399.364 		"/>
	</g>
	<g>
		<g>
			<path style="fill:#EDB29F;" d="M309.196,196.719l-20.953-10.945L275.49,206.87c0,0-24.376,15.509-33.953,20.552
				c-9.577,5.044-14.873,6.976-17.237,7.265c-2.363,0.288-7.74,0.474-8.69,3.704c-0.712,2.422-3.158,10.245-2.279,12.536
				c0.879,2.291,1.346-3.285,2.564-3.134c0,0,3.965-3.851,3.561-4.701c-0.404-0.85,2.169-3.263,5.49-3.069
				c3.321,0.194,8.156,0.503,18.574-2.568c10.418-3.071,40.792-14.574,44.862-18.069
				C292.453,215.891,309.196,196.719,309.196,196.719z"/>
			<path style="fill:#CC272F;" d="M323.294,163.881c1.773,4.277,0.174,12.118-5.428,21.432
				c-6.068,10.089-16.011,20.267-16.011,20.267s-10.789-0.329-18.634-12.091c0,0,15.384-30.541,23.544-34.996
				C314.925,154.038,320.418,156.943,323.294,163.881z"/>
		</g>
		<g>
			<polygon style="fill:#A2A5AD;" points="228.707,422.268 205.593,440.474 191.227,440.474 223.546,412.681 			"/>
			<path style="fill:#A2A5AD;" d="M190.132,446.458h15.959v-8.977c0-4.407-3.572-7.979-7.979-7.979l0,0
				c-4.407,0-7.979,3.573-7.979,7.979V446.458z"/>
		</g>
		<g>
			<polygon style="fill:#A2A5AD;" points="371.09,414.811 394.99,440.474 408.57,440.474 377.036,404.642 			"/>
			<path style="fill:#A2A5AD;" d="M410.45,446.458h-15.959v-8.977c0-4.407,3.572-7.979,7.979-7.979l0,0
				c4.407,0,7.979,3.573,7.979,7.979V446.458z"/>
		</g>
		<g>
			<path style="fill:#EDBFB0;" d="M313.219,351.019l-4.551,44.585l12.157-0.733c0,0,4.945-26.928,8.587-40.084L313.219,351.019z"/>
			<path style="fill:#252B42;" d="M372.644,217.194c0,0,13.31,5.102,16.859,19.742c3.549,14.64-8.873,30.612-24.401,46.583
				s-25.265,25.963-25.265,25.963s0.231,15.805-4.986,27.784c-5.218,11.978-5.439,17.521-5.439,17.521l-16.193-3.767
				c0,0,2.662-39.041,3.105-45.253c0.444-6.211,12.237-36.545,18.751-46.92c6.514-10.376,17.383-16.808,17.383-16.808
				L372.644,217.194z"/>
		</g>
		<g>
			<g>
				<path style="fill:#BEC1CB;" d="M228.242,365.268c-0.293,1.655-0.28,3.316-0.406,4.929l16.109-4.929
					c3.584-42.438-9.91-78.202-20.387-104.943l-6.689,2.62C235.388,310.213,231.939,344.383,228.242,365.268z"/>
			</g>
			<g>
				<path style="fill:#A2A5AD;" d="M231.286,280.959c-2.566-7.366-5.231-14.262-7.727-20.634l-6.689,2.62
					c3.288,8.393,5.873,16.364,7.896,23.929C226.949,284.895,229.11,282.876,231.286,280.959z"/>
			</g>
			<polygon style="fill:#BEC1CB;" points="214.996,252.87 222.957,253.445 224.235,235.756 216.772,228.289 			"/>
			<path style="fill:#BEC1CB;" d="M231.442,251.331l2.629-2.275c0.96-0.83,1.064-2.281,0.234-3.241l-21.064-24.344
				c-0.83-0.959-2.281-1.064-3.241-0.234l-2.629,2.275c-0.96,0.83-1.064,2.281-0.234,3.241l21.064,24.344
				C229.031,252.057,230.482,252.161,231.442,251.331z"/>
			<path style="fill:#BEC1CB;" d="M226.276,276.586l4.332-2.9l-1.544-11.693c0,0,2.383-2.719,4.209-3.506
				c4.768-2.054,4.292-9.114,4.292-9.114s0.628-4.604-6.843-7.188c-0.075-0.026-0.15-0.053-0.225-0.08
				c-9.03-3.317-18.592,3.342-18.413,12.961l4.691,17.919C217.861,277.132,222.713,278.971,226.276,276.586z"/>
			<g>
				<path style="fill:#313858;" d="M228.407,253.542l-32.364-8.525l-11.235-15.645c-0.58-0.807-1.657-1.155-2.559-0.738
					c-1.214,0.561-1.563,2.043-0.824,3.073l11.685,16.272c0.263,0.366,0.639,0.636,1.071,0.767l32.665,10.219
					c1.512,0.473,3.115-0.404,3.531-1.933c0.005-0.019,0.01-0.037,0.015-0.056C230.8,255.48,229.908,253.937,228.407,253.542z"/>
			</g>
		</g>
		<path style="fill:#313858;" d="M228.242,365.268h15.704c0,0,8.456,19.932,28.992,17.516l-16.308,47.112l-30.804,1.005l0,0
			c-5.619,0-9.83-5.148-8.715-10.656L228.242,365.268z"/>
		<g>
			<path style="fill:#A2A5AD;" d="M361.096,308.768l8.977-35.16l-7.076-1.228l-8.057,35.039
				C356.658,307.912,359.387,308.24,361.096,308.768z"/>
		</g>
		<g>
			<g>
				<path style="fill:#CC272F;" d="M350.258,268.133c25.001,0.782,27.106-4.376,37.55-5.976c8.536-1.308,9.227,5.993,9.328,6.819
					l0,0c0.114,0.936-0.603,7.647-11.349,9.476c-9.306,1.584-38.157-5.111-45.551-1.34c-1.491,0.761-2.797-0.227-2.903-1.762
					C337.234,273.913,341.856,267.87,350.258,268.133z"/>
			</g>
		</g>
		<g>
			<g>
				<path style="fill:#BEC1CB;" d="M356.472,291.977l-22.461,102.701c-0.473,2.094,0.432,4.253,2.251,5.392
					c0.031,0.019,0.061,0.038,0.092,0.057c2.947,1.845,6.833,0.225,7.599-3.167l22.551-103.07
					C363.162,293.24,359.818,292.602,356.472,291.977z"/>
			</g>
		</g>
		<path style="fill:#BEC1CB;" d="M376.538,413.202c-4.175,9.831-11.828,17.697-25.62,17.697H225.362
			c-5.464,0-9.636-4.883-8.782-10.28l0.676-4.277c0,0,45.433-41.657,99.238-57.233c10.225-2.959,20.993-4.981,32.13-5.589
			l11.96,7.973C377.491,372.762,384.478,394.502,376.538,413.202z"/>
		<g>
			
				<ellipse transform="matrix(0.9937 -0.112 0.112 0.9937 -41.9469 40.0326)" style="fill:#A2A5AD;" cx="335.469" cy="393.504" rx="28.427" ry="28.427"/>
			
				<ellipse transform="matrix(0.4124 -0.911 0.911 0.4124 -161.3579 536.8496)" style="fill:#313858;" cx="335.469" cy="393.504" rx="22.278" ry="22.279"/>
			<g>
				<path style="fill:#BEC1CB;" d="M330.746,392.76c0.411-2.608,2.859-4.39,5.467-3.979c2.608,0.411,4.39,2.858,3.979,5.467
					c-0.411,2.608-2.858,4.39-5.467,3.979C332.117,397.816,330.336,395.369,330.746,392.76z"/>
				<g>
					<path style="fill:#A2A5AD;" d="M337.53,392.323l-5.181-34.715c-0.453-1.128-1.735-1.675-2.863-1.221l0,0
						c-1.128,0.453-1.675,1.736-1.221,2.863l5.181,34.715c0.453,1.128,1.735,1.675,2.863,1.221l0,0
						C337.437,394.733,337.984,393.451,337.53,392.323z"/>
				</g>
				<g>
					<g>
						<path style="fill:#313858;" d="M335.961,352.507l-13.785,4.95c-1.015,0.365-1.543,1.483-1.178,2.498l0.44,1.225
							c0.365,1.015,1.483,1.542,2.498,1.178l13.785-4.95c1.015-0.364,1.542-1.483,1.178-2.498l-0.44-1.225
							C338.094,352.67,336.976,352.143,335.961,352.507z"/>
					</g>
				</g>
			</g>
		</g>
		<g>
			<g>
				<path style="fill:#61381E;" d="M315.688,135.641c0,0,5.786,4.679,7.22,12.335c1.691,9.023,13.074,15.781,20.328,16.339
					c0,0-2.511-3.56-2.511-19.809c0-11.16-10.323-19.809-24.768-15.651L315.688,135.641z"/>
				<path style="fill:#61381E;" d="M297.828,144.087c-0.811-4.532-0.09-9.042,1.712-13.112
					c-9.393-6.158-18.895-11.014-18.895-11.014s-12.021,2.548-11.141,16.199c0.634,9.833,10.669,15.399,25.727,16.502
					C296.031,149.785,297.077,146.975,297.828,144.087z"/>
				<path style="fill:#EDBFB0;" d="M312.266,153.59c-5.723-7.824-5.554-12.31-5.554-12.31l-0.324,0.653l-3.701-16.035
					c0,0-6.154-6.983-15.409-2.802c-9.255,4.181-12.876,7.502-13.876,11.711c-0.842,3.545,0.21,7.796,0.874,9.687
					c0.664,1.891,2.302,3.329,1.914,5.463c-0.388,2.133-2.991,6.596-2.958,7.723c0.033,1.128,3.616,1.891,4.197,2.438
					c0.581,0.547,4.107,5.534,5.832,8.088c1.697,2.513,9.597-3.965,14.232-3.507c1.755,2.094,3.284,6.277,4.567,10.095
					c0.186-0.169,0.383-0.32,0.571-0.486c0.215-0.389,0.439-0.775,0.702-1.142c3.71-5.18,10.591-8.479,17.351-9.27
					C317.912,160.742,314.772,157.016,312.266,153.59z"/>
				<path style="fill:#EDB29F;" d="M297.491,164.7c1.554,1.853,2.929,5.343,4.115,8.768c2.997-7.674,4.741-15.728,3.743-23.903
					c-2.155,3.901-3.498,5.507-7.217,10.058c-2.443,2.99-10.894,7.528-13.98,9.131C286.852,169.228,293.426,164.298,297.491,164.7z"
					/>
				<path style="fill:#61381E;" d="M313.813,128.258c-2.351-2.179-7.821-10.207-13.821-11.454
					c-24.45-5.079-27.539,17.123-27.539,17.123s2.577,3.831,6.615,5.036c4.232,1.263,6.962-0.445,8.301,0.802
					c3.026,2.819,0.83,6.043,6.536,7.135c0.226-0.841-0.384-3.02-0.477-3.563c-0.318-1.85-1.575-6.651,2.418-7.92
					c2.402-0.763,5.762,2.981,3.304,8.548c-0.443,1.002-1.525,2.213-1.895,3.014c5.503,6.948,9.144,1.507,10.551,0.932
					c2.709-1.107,4.329-12.514,4.329-12.514C314.017,133.267,315.363,129.694,313.813,128.258z"/>
				<path style="fill:#CC272F;" d="M313.813,128.258c0,0,0.232,4.676-1.679,7.138c0,0,2.195,0.549,3.554,0.244
					c0,0,1.225-3.809,0.269-6.787C315.957,128.854,317.395,128.924,313.813,128.258z"/>
			</g>
			<path style="fill:#EDBFB0;" d="M308.322,308.2l26.529,29.067l7.995-4.673c0,0-13.814-23.399-22.132-37.3L308.322,308.2z"/>
			<path style="fill:#313858;" d="M378.993,222.558c0,0,4.589,1.182,8.1,11.712c4.445,13.329,1.619,23.74-13.422,32.002
				c-8.978,4.931-23.124,3.64-35.648,6.626c-11.253,2.683-26.007,7.202-26.007,7.202s4.866,6.354,11.57,19.58l-15.264,8.52
				c0,0-21.594-20.783-26.031-28.325c-4.436-7.542-2.485-17.154,11.502-23.635c5.416-2.51,55.948-24.904,55.948-24.904
				L378.993,222.558z"/>
			<path style="fill:#CC272F;" d="M382.057,223.438c-6.732,3.845-36.734,11.009-36.734,11.009s-5.815-13.516-12.557-21.533
				c-7.311-8.691-8.902-1.096-17.93-4.972c-1.96-0.832-3.624-2.507-5.057-4.54c-2.939-4.151-4.962-9.797-6.816-12.789
				c8.206-8.565,9.839-19.542,10.661-30.898c0.084-1.254,0.168-2.507,0.242-3.761c0.716,0.316,7.343,2.107,8.217,2.507
				c12.557,5.836,17.845,10.345,31.319,25.747C369.595,202.727,382.057,223.438,382.057,223.438z"/>
			<path style="fill:#EDBFB0;" d="M310.841,196.839l-21.489-9.851l-11.65,21.724c0,0-24.888,16.782-34.193,22.312
				c-9.305,5.53-13.651,6.592-15.996,7.001c-2.345,0.41-7.047-0.089-8.983,2.665c-1.935,2.755-5.311,9.268-4.315,11.511
				c0.996,2.243,2.885-0.911,4.108-0.823c0,0,4.863-3.535,4.416-4.363c-0.447-0.828,2.866-2.616,6.193-2.593
				c3.327,0.023,8.171,0.083,18.417-3.521c10.246-3.603,39.987-16.655,43.872-20.354
				C295.108,216.848,310.841,196.839,310.841,196.839z"/>
			<path style="fill:#313858;" d="M319.033,188.845c-2.885,5.633-5.914,10.585-9.253,14.556c-2.939-4.151-4.962-9.797-6.816-12.789
				c8.206-8.565,9.839-19.542,10.661-30.898c4.983-0.895,6.659,0.173,9.05,5.198C324.666,169.095,324.496,178.18,319.033,188.845z"
				/>
			<path style="fill:#CC272F;" d="M323.231,163.319c1.991,4.18,0.797,12.093-4.318,21.683c-5.54,10.388-14.947,21.064-14.947,21.064
				s-11.017,0.586-19.457-10.756c0,0,14.016-31.652,21.936-36.522C314.366,153.92,320.001,156.538,323.231,163.319z"/>
		</g>
		<g>
			<path style="fill:#FFFFFF;" d="M325.258,327.058c0,0,7.513-4.482,10.306-6.828c0,0,7.657,11.476,8.76,14.299
				c1.103,2.823,1.776,4.625,1.776,4.625l-14.353,4.437c0,0-0.389-3.079-1.24-5.693
				C329.655,335.285,325.258,327.058,325.258,327.058z"/>
			<g>
				<path style="fill:#4F5D92;" d="M350.927,340.438c-1.237,3.609-9.625,8.855-20.803,15.296
					c-11.178,6.441-19.203,8.218-19.721,6.547c-0.228-0.754-0.443-1.456-0.33-2.255c0.159-0.997,0.835-2.149,2.648-3.709
					c3.264-2.819,7.159-11.115,8.832-13.734c1.686-2.614,2.829-7.358,3.628-8.887c1.28-2.44,5.538,1.415,9.92,0.021
					c4.388-1.407,3.548-5.415,4.985-6.982c1.188-1.293,5.485,2.546,6.977,5.401c0.304,0.598,0.604,1.186,0.904,1.752
					C349.693,337.181,352.154,336.833,350.927,340.438z"/>
				<path style="fill:#FFFFFF;" d="M350.927,340.438c-1.237,3.609-5.495,6.8-16.673,13.241c-11.178,6.441-22.95,11.513-23.468,9.842
					c0,0-0.361-0.833-0.504-1.721c3.371-0.435,8.146-3.569,14.785-7.216c13.581-7.469,22.062-17.257,21.634-18.731
					c-0.247-0.846-0.069-2.501,0.364-3.717c0.304,0.598,0.604,1.186,0.904,1.752C349.693,337.181,352.154,336.833,350.927,340.438z"
					/>
			</g>
		</g>
	</g>
	<g>
		<rect x="86.583" y="134.215" style="fill:#A1B0C7;" width="5.883" height="16.808"/>
		<rect x="127.159" y="134.215" style="fill:#A1B0C7;" width="5.883" height="16.808"/>
		<g>
			<g>
				<path style="fill:#A1B0C7;" d="M74.02,139.353h69.474c3.498,0,6.334-2.836,6.334-6.334V88.723c0-3.498-2.836-6.334-6.334-6.334
					H74.02c-3.498,0-6.334,2.836-6.334,6.334v44.295C67.686,136.517,70.522,139.353,74.02,139.353z"/>
			</g>
			<g>
				<path style="fill:#B0C0D9;" d="M76.552,139.353h69.474c3.498,0,6.334-2.836,6.334-6.334V88.723c0-3.498-2.836-6.334-6.334-6.334
					H76.552c-3.498,0-6.334,2.836-6.334,6.334v44.295C70.218,136.517,73.054,139.353,76.552,139.353z"/>
			</g>
			<path style="fill:#E9EAF0;" d="M76.647,133.601h69.283c1.632,0,2.954-1.323,2.954-2.954V88.655c0-1.631-1.322-2.954-2.954-2.954
				H76.647c-1.631,0-2.954,1.323-2.954,2.954v41.992C73.693,132.278,75.016,133.601,76.647,133.601z"/>
			<g>
				
					<line style="fill:none;stroke:#BEC1CB;stroke-width:0.3456;stroke-miterlimit:10;" x1="77.975" y1="93.108" x2="144.603" y2="93.108"/>
				
					<line style="fill:none;stroke:#BEC1CB;stroke-width:0.3456;stroke-miterlimit:10;" x1="77.975" y1="104.175" x2="144.603" y2="104.175"/>
				
					<line style="fill:none;stroke:#BEC1CB;stroke-width:0.3456;stroke-miterlimit:10;" x1="77.975" y1="115.241" x2="144.603" y2="115.241"/>
				
					<line style="fill:none;stroke:#BEC1CB;stroke-width:0.3456;stroke-miterlimit:10;" x1="77.975" y1="126.308" x2="144.603" y2="126.308"/>
			</g>
			<polyline style="fill:none;stroke:#4EA9D0;stroke-width:0.6913;stroke-miterlimit:10;" points="78.457,111.271 79.897,107.653 
				81.337,111.929 84.217,111.271 86.858,98.792 87.578,115.877 89.498,110.285 95.115,110.942 96.795,105.679 98.476,112.916 
				103.516,112.587 105.677,109.627 106.877,112.587 112.734,112.916 114.654,122.077 116.815,110.613 119.455,110.613 
				121.375,106.008 122.815,111.821 128.067,111.821 130.228,108.86 130.948,111.821 135,111.821 137.4,99.941 139.8,117.413 
				141.241,112.149 144.121,112.149 			"/>
		</g>
		<g>
			<polygon style="fill:#A2A5AD;" points="149.532,224.609 112.371,224.609 86.478,268.378 123.638,268.378 			"/>
			<polygon style="fill:#BEC1CB;" points="89.933,258.4 133.101,258.4 149.984,266.612 73.05,266.612 			"/>
			<path style="fill:#A2A5AD;" d="M70.791,265.635h80.446c4.845,0,8.773,3.928,8.773,8.772v3.105H62.019v-3.105
				C62.019,269.563,65.946,265.635,70.791,265.635z"/>
			<path style="fill:#BEC1CB;" d="M67.266,265.635h24.56c2.898,0,5.247,2.349,5.247,5.247v6.631H62.019v-6.631
				C62.019,267.985,64.368,265.635,67.266,265.635z"/>
			<path style="fill:#A2A5AD;" d="M166.52,249.526H62.184c-4.313,0-7.487-3.3-7.465-7.764l0.409-83.693
				c0.027-5.517,4.849-10.481,10.181-10.481h91.535c4.313,0,7.487,3.3,7.465,7.763l11.113,80.866
				C175.638,243.583,174.09,249.526,166.52,249.526z"/>
			<path style="fill:#BEC1CB;" d="M166.182,245.083H74.647c-4.313,0-7.808-3.154-8.22-7.42l-7.727-79.986
				c-0.509-5.273,3.83-10.017,9.162-10.017h91.535c4.313,0,7.808,3.154,8.22,7.42l7.727,79.986
				C175.854,240.338,171.515,245.083,166.182,245.083z"/>
			<g>
				<polygon style="fill:#E9EAF0;" points="168.996,226.311 70.433,226.311 63.717,156.789 162.28,156.789 				"/>
				<polygon style="fill:#4EA9D0;" points="168.996,226.311 165.235,187.38 152.916,193.618 128.517,177.899 97.671,200.815 
					84.275,193.618 68.075,201.902 70.433,226.311 				"/>
				<polyline style="fill:none;stroke:#FFFFFF;stroke-width:0.8596;stroke-miterlimit:10;" points="165.235,187.38 152.916,193.618 
					128.517,177.899 97.671,200.815 84.275,193.618 68.075,201.902 				"/>
			</g>
		</g>
		<rect x="55.868" y="277.513" style="fill:#D4D7E2;" width="46.038" height="168.481"/>
		<rect x="86.478" y="277.513" style="fill:#BEC1CB;" width="81.197" height="168.481"/>
		<circle style="fill:#A2A5AD;" cx="110.622" cy="319.669" r="3.595"/>
		<circle style="fill:#A2A5AD;" cx="122.358" cy="319.669" r="3.595"/>
		<circle style="fill:#A2A5AD;" cx="151.799" cy="320.528" r="3.595"/>
		<rect x="103.873" y="336.262" style="fill:#A2A5AD;" width="51.52" height="2.885"/>
		<rect x="103.873" y="344.673" style="fill:#A2A5AD;" width="51.52" height="2.885"/>
		<rect x="103.873" y="362.536" style="fill:#A2A5AD;" width="51.52" height="64.827"/>
	</g>
</g>
</svg>
