<svg xmlns="http://www.w3.org/2000/svg" viewBox="0 0 500 500"><g id="freepik--background-complete--inject-12"><rect y="382.4" width="500" height="0.25" style="fill:#ebebeb"></rect><rect x="416.78" y="398.49" width="33.12" height="0.25" style="fill:#ebebeb"></rect><rect x="322.53" y="401.21" width="8.69" height="0.25" style="fill:#ebebeb"></rect><rect x="396.59" y="389.21" width="19.19" height="0.25" style="fill:#ebebeb"></rect><rect x="52.46" y="390.89" width="43.19" height="0.25" style="fill:#ebebeb"></rect><rect x="104.56" y="390.89" width="6.33" height="0.25" style="fill:#ebebeb"></rect><rect x="131.47" y="395.11" width="93.68" height="0.25" style="fill:#ebebeb"></rect><path d="M237,337.8H43.91a5.71,5.71,0,0,1-5.7-5.71V60.66A5.71,5.71,0,0,1,43.91,55H237a5.71,5.71,0,0,1,5.71,5.71V332.09A5.71,5.71,0,0,1,237,337.8ZM43.91,55.2a5.46,5.46,0,0,0-5.45,5.46V332.09a5.46,5.46,0,0,0,5.45,5.46H237a5.47,5.47,0,0,0,5.46-5.46V60.66A5.47,5.47,0,0,0,237,55.2Z" style="fill:#ebebeb"></path><path d="M453.31,337.8H260.21a5.72,5.72,0,0,1-5.71-5.71V60.66A5.72,5.72,0,0,1,260.21,55h193.1A5.71,5.71,0,0,1,459,60.66V332.09A5.71,5.71,0,0,1,453.31,337.8ZM260.21,55.2a5.47,5.47,0,0,0-5.46,5.46V332.09a5.47,5.47,0,0,0,5.46,5.46h193.1a5.47,5.47,0,0,0,5.46-5.46V60.66a5.47,5.47,0,0,0-5.46-5.46Z" style="fill:#ebebeb"></path><path d="M425.62,237.43a9.2,9.2,0,0,0,.28-1.87c.23-3.9,4-3.28,7.11-3.81,2.48-.41-4.07-6.66.92-8.67a4.36,4.36,0,0,0,2.4-1.68,2.82,2.82,0,0,0-1.09-3.45,6.73,6.73,0,0,0-3.78-.95c-.81-1-.15-2.47.64-3.48s1.75-2.16,1.45-3.4c-.45-1.88-3.08-2-5-1.58-.71-1.14-.69-2.56-1-3.85s-1.37-2.64-2.69-2.48-2,1.56-3.23,1.85c-1.43.33-2.65-.92-3.77-1.87s-3.06-1.53-3.83-.28c-.46.74-.18,1.77-.66,2.51-.83,1.26-2.79.48-4-.42s-3.16-1.72-4-.47a5.24,5.24,0,0,0-.47,1.31c-.58,1.66-2.38,2.49-3.78,3.55s-2.51,3.19-1.32,4.5c.58.64,1.61.9,1.9,1.72.37,1-.68,1.94-1.51,2.64-1.37,1.17-1.62,4.67.2,5.63.76.4,1.88.53,2.07,1.37s-.6,1.34-1.11,1.92a3.63,3.63,0,0,0,1.11,5.39c.44.21,1,.38,1.14.84a1.69,1.69,0,0,1-.11,1,5.37,5.37,0,0,0-.17,2,.9.9,0,0,0,.23.62,1,1,0,0,0,.58.16c2.63.12,3.9-.82,5.5,1.47a1.91,1.91,0,0,0,.55.58,1.64,1.64,0,0,0,.73.18c1.8.15,3-1,4.63-1.19,2.3-.29,2.78.89,4.8,1.84C423.48,240.52,425,239.6,425.62,237.43Z" style="fill:#ebebeb"></path><path d="M395.35,234.16a9.2,9.2,0,0,0,.28-1.88c.23-3.89,3.95-3.27,7.11-3.8,2.47-.41-4.07-6.66.91-8.67a4.35,4.35,0,0,0,2.41-1.68,2.83,2.83,0,0,0-1.09-3.45,6.73,6.73,0,0,0-3.78-1c-.81-1-.15-2.47.64-3.48s1.75-2.16,1.45-3.4c-.45-1.88-3.08-1.95-5-1.58-.7-1.14-.68-2.56-1-3.85s-1.37-2.64-2.69-2.48-2,1.56-3.24,1.85c-1.42.33-2.65-.92-3.76-1.87s-3.06-1.53-3.83-.29c-.46.75-.19,1.78-.66,2.52-.83,1.26-2.79.48-4-.42s-3.16-1.72-4-.47a5.31,5.31,0,0,0-.47,1.3c-.58,1.67-2.38,2.5-3.78,3.56s-2.51,3.19-1.32,4.49c.58.65,1.61.91,1.9,1.73.36,1-.68,1.94-1.51,2.64-1.37,1.17-1.62,4.67.2,5.63.76.4,1.88.53,2.07,1.37s-.6,1.34-1.11,1.92a3.63,3.63,0,0,0,1.11,5.39c.44.21,1,.38,1.14.83a1.72,1.72,0,0,1-.11,1,5.14,5.14,0,0,0-.17,2,.85.85,0,0,0,.23.61.92.92,0,0,0,.58.17c2.63.11,3.9-.82,5.5,1.47a1.91,1.91,0,0,0,.55.58,1.63,1.63,0,0,0,.72.18c1.81.15,3-1,4.64-1.19,2.29-.29,2.78.89,4.8,1.84C393.21,237.24,394.75,236.32,395.35,234.16Z" style="fill:#ebebeb"></path><path d="M392.43,214.88a9.2,9.2,0,0,0,.28-1.87c.24-3.9,4-3.28,7.12-3.81,2.47-.41-4.08-6.65.91-8.67a4.34,4.34,0,0,0,2.4-1.67,2.84,2.84,0,0,0-1.08-3.46,6.78,6.78,0,0,0-3.79-1c-.81-1-.15-2.47.64-3.48s1.75-2.16,1.45-3.4c-.45-1.88-3.08-1.95-5-1.58-.7-1.14-.69-2.56-1-3.85s-1.37-2.64-2.69-2.48-2,1.56-3.23,1.85c-1.42.33-2.65-.92-3.77-1.86s-3.06-1.53-3.83-.29c-.46.74-.18,1.78-.66,2.51-.83,1.27-2.79.48-4-.42s-3.16-1.71-4-.47a5.38,5.38,0,0,0-.47,1.31c-.58,1.66-2.37,2.49-3.77,3.56s-2.52,3.18-1.33,4.49c.58.64,1.61.9,1.9,1.72.37,1-.68,1.94-1.51,2.64-1.37,1.17-1.62,4.68.2,5.63.76.41,1.88.53,2.07,1.37s-.6,1.34-1.1,1.92a3.62,3.62,0,0,0,1.1,5.39c.44.21,1,.38,1.14.84a1.69,1.69,0,0,1-.11,1,5.6,5.6,0,0,0-.17,1.95.9.9,0,0,0,.24.62.93.93,0,0,0,.57.16c2.63.12,3.9-.81,5.5,1.47a1.91,1.91,0,0,0,.55.58,1.84,1.84,0,0,0,.73.19c1.8.14,3-1,4.64-1.19,2.29-.3,2.77.89,4.79,1.83C390.3,218,391.83,217.05,392.43,214.88Z" style="fill:#ebebeb"></path><path d="M372.49,224.49a9.31,9.31,0,0,0,.28-1.88c.24-3.9,4-3.28,7.12-3.81,2.47-.41-4.08-6.65.91-8.67a4.34,4.34,0,0,0,2.4-1.67,2.84,2.84,0,0,0-1.08-3.46,6.69,6.69,0,0,0-3.79-.94c-.81-1-.15-2.48.64-3.49s1.75-2.16,1.45-3.4c-.45-1.88-3.08-1.95-5-1.58-.7-1.14-.69-2.55-1-3.84s-1.37-2.65-2.69-2.49-2,1.56-3.23,1.85c-1.42.34-2.65-.92-3.77-1.86s-3.06-1.53-3.83-.29c-.46.74-.18,1.78-.66,2.51-.83,1.27-2.79.48-4-.42s-3.16-1.71-4-.46a5.17,5.17,0,0,0-.47,1.3c-.58,1.66-2.37,2.49-3.78,3.56s-2.51,3.19-1.32,4.49c.58.64,1.61.9,1.9,1.72.37,1-.68,1.94-1.51,2.64-1.37,1.17-1.62,4.68.2,5.64.76.4,1.88.52,2.07,1.36s-.6,1.34-1.11,1.93a3.62,3.62,0,0,0,1.11,5.38c.44.21,1,.38,1.14.84a1.73,1.73,0,0,1-.11,1,5.55,5.55,0,0,0-.17,1.95.9.9,0,0,0,.24.61.93.93,0,0,0,.57.16c2.63.12,3.9-.81,5.5,1.48a2.17,2.17,0,0,0,.55.58,1.83,1.83,0,0,0,.73.18c1.8.15,3-1,4.64-1.19,2.29-.29,2.77.89,4.79,1.84C370.36,227.57,371.89,226.65,372.49,224.49Z" style="fill:#ebebeb"></path><path d="M352.34,220.05a9.2,9.2,0,0,0,.28-1.88c.23-3.89,3.95-3.27,7.11-3.8,2.47-.41-4.07-6.66.91-8.67a4.43,4.43,0,0,0,2.41-1.68,2.83,2.83,0,0,0-1.09-3.45,6.75,6.75,0,0,0-3.78-.95c-.81-1-.15-2.47.63-3.48s1.75-2.16,1.46-3.4c-.45-1.88-3.08-2-5-1.59-.7-1.13-.68-2.55-1-3.84s-1.37-2.64-2.69-2.48-2,1.56-3.24,1.85c-1.42.33-2.65-.92-3.76-1.87s-3.06-1.53-3.83-.29c-.46.75-.19,1.78-.66,2.51-.83,1.27-2.79.49-4-.41s-3.16-1.72-4-.47a5.31,5.31,0,0,0-.47,1.3c-.58,1.67-2.38,2.5-3.78,3.56s-2.51,3.19-1.32,4.49c.58.65,1.61.91,1.9,1.72.36,1-.68,1.94-1.51,2.65-1.38,1.17-1.63,4.67.19,5.63.77.4,1.89.53,2.08,1.37s-.6,1.34-1.11,1.92a3.63,3.63,0,0,0,1.11,5.39c.44.21,1,.38,1.13.83a1.71,1.71,0,0,1-.1,1A5.14,5.14,0,0,0,330,218a.85.85,0,0,0,.23.61.92.92,0,0,0,.58.17c2.63.11,3.9-.82,5.5,1.47a1.8,1.8,0,0,0,.55.58,1.6,1.6,0,0,0,.72.18c1.81.15,3-1,4.64-1.19,2.29-.29,2.78.89,4.8,1.84C350.2,223.13,351.74,222.21,352.34,220.05Z" style="fill:#ebebeb"></path><path d="M352.07,241.61a7.67,7.67,0,0,0,.23-1.48c.18-3.07,3.11-2.58,5.6-3,1.94-.32-3.21-5.24.71-6.82a3.49,3.49,0,0,0,1.9-1.32,2.23,2.23,0,0,0-.86-2.72,5.28,5.28,0,0,0-3-.75c-.64-.78-.11-2,.5-2.74s1.38-1.7,1.15-2.68c-.36-1.48-2.42-1.53-3.92-1.24a11,11,0,0,1-.81-3c-.26-1-1.07-2.08-2.11-2s-1.59,1.23-2.55,1.46c-1.12.26-2.09-.73-3-1.47s-2.42-1.2-3-.23c-.36.59-.15,1.41-.52,2-.65,1-2.2.38-3.16-.33s-2.49-1.35-3.16-.36a3.67,3.67,0,0,0-.37,1c-.46,1.31-1.87,2-3,2.8s-2,2.52-1,3.54c.46.51,1.27.71,1.5,1.36.28.8-.54,1.52-1.19,2.08-1.08.92-1.28,3.68.15,4.43.6.32,1.49.42,1.63,1.08s-.47,1.05-.87,1.51a2.85,2.85,0,0,0,.88,4.24c.34.17.76.3.89.66a1.38,1.38,0,0,1-.08.8,4.21,4.21,0,0,0-.14,1.54.67.67,0,0,0,.19.48.7.7,0,0,0,.45.13c2.07.09,3.07-.64,4.33,1.16a1.57,1.57,0,0,0,.43.46,1.41,1.41,0,0,0,.57.14c1.43.12,2.36-.77,3.66-.94,1.8-.23,2.18.7,3.77,1.45C350.39,244,351.6,243.31,352.07,241.61Z" style="fill:#ebebeb"></path><path d="M340.78,234.16a9.91,9.91,0,0,0,.29-1.88c.23-3.89,3.94-3.27,7.11-3.8,2.47-.41-4.07-6.66.91-8.67a4.36,4.36,0,0,0,2.4-1.68,2.83,2.83,0,0,0-1.08-3.45,6.78,6.78,0,0,0-3.79-1c-.81-1-.15-2.47.64-3.48s1.75-2.16,1.45-3.4c-.45-1.88-3.07-1.95-5-1.58-.7-1.14-.69-2.56-1-3.85s-1.36-2.64-2.69-2.48-2,1.56-3.23,1.85c-1.42.33-2.65-.92-3.77-1.87s-3.06-1.53-3.83-.29c-.46.75-.18,1.78-.66,2.52-.83,1.26-2.79.48-4-.42s-3.16-1.72-4-.47a5.31,5.31,0,0,0-.47,1.3c-.57,1.67-2.37,2.5-3.77,3.56s-2.51,3.19-1.33,4.49c.59.65,1.61.91,1.91,1.73.36,1-.69,1.94-1.51,2.64-1.38,1.17-1.63,4.67.19,5.63.76.4,1.88.53,2.07,1.37s-.6,1.34-1.1,1.92a3.62,3.62,0,0,0,1.1,5.39c.44.21,1,.38,1.14.83a1.71,1.71,0,0,1-.1,1,5.35,5.35,0,0,0-.18,2,.86.86,0,0,0,.24.61.88.88,0,0,0,.57.17c2.63.11,3.9-.82,5.5,1.47a1.91,1.91,0,0,0,.55.58,1.67,1.67,0,0,0,.73.18c1.8.15,3-1,4.64-1.19,2.29-.29,2.77.89,4.79,1.84C338.65,237.24,340.19,236.32,340.78,234.16Z" style="fill:#ebebeb"></path><path d="M372.49,200.77a9.2,9.2,0,0,0,.28-1.87c.24-3.9,4-3.28,7.12-3.81,2.47-.41-4.08-6.65.91-8.67a4.39,4.39,0,0,0,2.4-1.67,2.84,2.84,0,0,0-1.08-3.46,6.78,6.78,0,0,0-3.79-.95c-.81-1-.15-2.47.64-3.48s1.75-2.16,1.45-3.4c-.45-1.88-3.08-2-5-1.58-.7-1.14-.69-2.56-1-3.85s-1.37-2.64-2.69-2.48-2,1.56-3.23,1.85c-1.42.33-2.65-.92-3.77-1.87s-3.06-1.53-3.83-.28c-.46.74-.18,1.77-.66,2.51-.83,1.26-2.79.48-4-.42s-3.16-1.72-4-.47a5.38,5.38,0,0,0-.47,1.31c-.58,1.66-2.37,2.49-3.78,3.55s-2.51,3.19-1.32,4.5c.58.64,1.61.9,1.9,1.72.37,1-.68,1.94-1.51,2.64-1.37,1.17-1.62,4.67.2,5.63.76.41,1.88.53,2.07,1.37s-.6,1.34-1.11,1.92a3.63,3.63,0,0,0,1.11,5.39c.44.21,1,.38,1.14.84a1.69,1.69,0,0,1-.11,1,5.6,5.6,0,0,0-.17,1.95.9.9,0,0,0,.24.62.93.93,0,0,0,.57.16c2.63.12,3.9-.81,5.5,1.47a1.91,1.91,0,0,0,.55.58,1.67,1.67,0,0,0,.73.18c1.8.15,3-1,4.64-1.18,2.29-.3,2.77.88,4.79,1.83C370.36,203.86,371.89,202.94,372.49,200.77Z" style="fill:#ebebeb"></path><path d="M398.38,202.1a9.2,9.2,0,0,0,.28-1.88c.24-3.89,3.95-3.28,7.12-3.81,2.47-.41-4.08-6.65.91-8.66a4.41,4.41,0,0,0,2.4-1.68,2.84,2.84,0,0,0-1.08-3.46,6.69,6.69,0,0,0-3.79-.94c-.81-1-.15-2.48.64-3.49s1.75-2.15,1.45-3.4c-.45-1.88-3.08-1.94-5-1.58-.7-1.13-.69-2.55-1-3.84s-1.37-2.65-2.69-2.49-2,1.56-3.23,1.85c-1.42.34-2.65-.92-3.77-1.86s-3.06-1.53-3.83-.29c-.46.74-.18,1.78-.66,2.51-.83,1.27-2.79.48-4-.42s-3.16-1.71-4-.46a5.17,5.17,0,0,0-.47,1.3c-.58,1.66-2.37,2.49-3.78,3.56s-2.51,3.19-1.32,4.49c.58.64,1.61.9,1.9,1.72.37,1-.68,1.94-1.51,2.64-1.37,1.17-1.62,4.68.2,5.64.76.4,1.88.52,2.07,1.37s-.6,1.34-1.11,1.92a3.62,3.62,0,0,0,1.11,5.38c.44.21,1,.38,1.14.84a1.73,1.73,0,0,1-.11,1,5.55,5.55,0,0,0-.17,1.95.9.9,0,0,0,.24.61.93.93,0,0,0,.57.16c2.63.12,3.9-.81,5.5,1.48a2,2,0,0,0,.55.58,1.83,1.83,0,0,0,.73.18c1.8.15,3-1,4.64-1.19,2.29-.29,2.77.89,4.79,1.84C396.24,205.18,397.78,204.26,398.38,202.1Z" style="fill:#ebebeb"></path><path d="M414.11,212.69a9.2,9.2,0,0,0,.28-1.88c.23-3.89,3.95-3.27,7.11-3.8,2.47-.41-4.07-6.66.91-8.67a4.38,4.38,0,0,0,2.41-1.68,2.83,2.83,0,0,0-1.09-3.45,6.75,6.75,0,0,0-3.78-1c-.81-1-.15-2.47.63-3.48s1.75-2.16,1.45-3.4c-.44-1.88-3.07-1.95-5-1.58-.7-1.14-.68-2.56-1-3.85s-1.37-2.64-2.69-2.48-2,1.56-3.24,1.85c-1.42.33-2.65-.92-3.76-1.87s-3.07-1.53-3.83-.29c-.46.75-.19,1.78-.67,2.52-.82,1.26-2.79.48-4-.42s-3.16-1.72-4-.47a5.31,5.31,0,0,0-.47,1.3c-.58,1.67-2.38,2.5-3.78,3.56s-2.51,3.19-1.32,4.49c.58.65,1.61.91,1.9,1.73.36,1-.68,1.94-1.51,2.64-1.38,1.17-1.63,4.67.19,5.63.77.4,1.89.53,2.08,1.37s-.6,1.34-1.11,1.92a3.63,3.63,0,0,0,1.11,5.39c.44.21,1,.38,1.13.84a1.69,1.69,0,0,1-.1,1,5.35,5.35,0,0,0-.18,2,.91.91,0,0,0,.24.61.92.92,0,0,0,.58.17c2.63.11,3.89-.82,5.5,1.47a1.7,1.7,0,0,0,.55.58,1.6,1.6,0,0,0,.72.18c1.81.15,3-1,4.64-1.19,2.29-.29,2.78.89,4.8,1.84C412,215.78,413.51,214.86,414.11,212.69Z" style="fill:#ebebeb"></path><path d="M409.34,226.08s-6.58,9.3-8.85,12.25-13.6,21.32-15.15,33.47c-.16,1.29-.32,2.41-.48,3.39,4.88,32.19,4.11,91.09,3.94,101.17H373.35c-.15-11.37-1.46-115.31-1.94-118.48-.52-3.36-7-16.15-17-21.4s-18.6-22.64-18.6-22.64H339s5.89,10.66,14.28,16.55a31.55,31.55,0,0,0,3.78,2.24,53.56,53.56,0,0,1,3.34-18.79l1.71,1.59c-2.32,9.49-2,15.57-1.31,19.06a34.54,34.54,0,0,1,8.68,5.81c8.7-11.32,13.59-37.2,13.59-37.2l2.23,1.21a131.77,131.77,0,0,1-2.87,15.88c-1.64,6.7-6.43,19.31-8.67,25a59,59,0,0,1,6.58,12.34,4.85,4.85,0,0,1,.84-1c5.67-5.12,16.33-29.34,16.33-29.34,2.57-5.63-1.37-20.41-1.37-20.41h3l1.33,12.92,7.49-8.16,1.36,1.13-7.94,10.21-4.08,12.93L408,224Z" style="fill:#e6e6e6"></path><path d="M78.53,272.11a8.24,8.24,0,0,1-.22-1.44c-.17-3-3-2.51-5.45-2.92-1.9-.32,3.12-5.11-.7-6.65a3.39,3.39,0,0,1-1.85-1.29,2.17,2.17,0,0,1,.84-2.65,5.08,5.08,0,0,1,2.9-.72c.62-.76.12-1.9-.49-2.68s-1.34-1.65-1.11-2.61c.34-1.44,2.36-1.49,3.81-1.21a10.37,10.37,0,0,0,.79-2.95c.26-1,1-2,2.07-1.9s1.54,1.19,2.48,1.41c1.09.26,2-.7,2.89-1.43s2.35-1.17,2.93-.22c.36.57.15,1.37.51,1.93.64,1,2.14.37,3.08-.32s2.42-1.32,3.08-.36a3.72,3.72,0,0,1,.36,1c.45,1.28,1.83,1.91,2.9,2.73s1.93,2.45,1,3.45c-.45.49-1.24.69-1.46,1.32-.28.78.52,1.49,1.15,2,1.06.89,1.25,3.58-.14,4.32-.59.31-1.45.4-1.59,1.05s.45,1,.84,1.47a2.77,2.77,0,0,1-.85,4.13c-.33.16-.74.3-.87.65a1.32,1.32,0,0,0,.08.78,4.16,4.16,0,0,1,.14,1.49.65.65,0,0,1-.19.47.66.66,0,0,1-.44.13c-2,.09-3-.63-4.22,1.13a1.36,1.36,0,0,1-.42.44,1.19,1.19,0,0,1-.56.14c-1.38.12-2.29-.75-3.55-.91-1.76-.22-2.13.68-3.68,1.41C80.17,274.48,79,273.77,78.53,272.11Z" style="fill:#ebebeb"></path><path d="M101.76,269.6a6.7,6.7,0,0,1-.22-1.44c-.18-3-3-2.51-5.46-2.92-1.89-.32,3.13-5.11-.69-6.65a3.36,3.36,0,0,1-1.85-1.29,2.18,2.18,0,0,1,.83-2.65,5.11,5.11,0,0,1,2.91-.72c.62-.76.11-1.9-.49-2.68s-1.34-1.65-1.12-2.61c.35-1.44,2.36-1.49,3.82-1.21a10.37,10.37,0,0,0,.79-3c.26-1,1-2,2.06-1.9s1.54,1.19,2.48,1.41c1.09.26,2-.7,2.89-1.43s2.35-1.17,2.94-.22c.35.57.14,1.37.51,1.93.63,1,2.14.37,3.07-.32s2.43-1.32,3.09-.36a4.1,4.1,0,0,1,.36,1c.44,1.28,1.82,1.91,2.9,2.73s1.92,2.45,1,3.45c-.45.49-1.24.69-1.46,1.32-.28.78.53,1.49,1.16,2,1.06.89,1.25,3.58-.15,4.32-.59.31-1.45.4-1.59,1.05s.46,1,.85,1.47a2.77,2.77,0,0,1-.85,4.13c-.34.16-.75.3-.87.65a1.32,1.32,0,0,0,.08.78,4.15,4.15,0,0,1,.13,1.49.64.64,0,0,1-.18.47.69.69,0,0,1-.44.13c-2,.09-3-.63-4.22,1.13a1.51,1.51,0,0,1-.42.45,1.35,1.35,0,0,1-.56.13c-1.39.12-2.29-.75-3.56-.91-1.76-.22-2.13.68-3.68,1.41C103.4,272,102.22,271.26,101.76,269.6Z" style="fill:#ebebeb"></path><path d="M104,254.81a6.7,6.7,0,0,1-.22-1.44c-.18-3-3-2.51-5.46-2.92-1.89-.32,3.13-5.11-.7-6.65a3.33,3.33,0,0,1-1.84-1.29,2.17,2.17,0,0,1,.83-2.65,5.19,5.19,0,0,1,2.9-.73c.63-.75.12-1.89-.48-2.67s-1.35-1.65-1.12-2.61c.35-1.44,2.36-1.49,3.82-1.21a10.37,10.37,0,0,0,.79-2.95c.26-1,1-2,2.06-1.91s1.54,1.2,2.48,1.42c1.09.26,2-.7,2.89-1.43s2.35-1.17,2.94-.22c.35.57.14,1.37.51,1.93.63,1,2.14.37,3.07-.32s2.43-1.32,3.09-.36a4.1,4.1,0,0,1,.36,1c.44,1.28,1.82,1.91,2.89,2.73s1.93,2.45,1,3.45c-.45.49-1.24.69-1.46,1.32s.52,1.48,1.16,2c1,.9,1.25,3.59-.15,4.33-.59.3-1.45.4-1.59,1s.46,1,.85,1.47a2.77,2.77,0,0,1-.85,4.13c-.34.16-.75.3-.87.65a1.25,1.25,0,0,0,.08.78,4.15,4.15,0,0,1,.13,1.49.7.7,0,0,1-.18.47.76.76,0,0,1-.44.13c-2,.09-3-.63-4.22,1.13a1.47,1.47,0,0,1-.42.44,1.22,1.22,0,0,1-.56.14c-1.39.12-2.29-.75-3.56-.91-1.76-.22-2.13.68-3.68,1.41C105.63,257.18,104.45,256.47,104,254.81Z" style="fill:#ebebeb"></path><path d="M119.3,262.18a6.7,6.7,0,0,1-.22-1.44c-.18-3-3-2.52-5.46-2.92-1.89-.32,3.13-5.11-.7-6.65a3.38,3.38,0,0,1-1.84-1.29,2.17,2.17,0,0,1,.83-2.65,5.11,5.11,0,0,1,2.9-.73c.63-.76.12-1.9-.48-2.67s-1.35-1.66-1.12-2.61c.35-1.44,2.36-1.49,3.82-1.21a10.71,10.71,0,0,0,.79-2.95c.26-1,1-2,2.06-1.91s1.54,1.2,2.48,1.42c1.09.26,2-.71,2.89-1.43s2.35-1.17,2.94-.22c.35.57.14,1.36.51,1.93.63,1,2.14.36,3.07-.33s2.43-1.31,3.08-.35a3.74,3.74,0,0,1,.37,1c.44,1.27,1.82,1.91,2.89,2.73s1.93,2.44,1,3.44c-.45.5-1.24.7-1.46,1.32-.28.79.52,1.49,1.16,2,1,.9,1.25,3.59-.15,4.32-.59.31-1.45.41-1.59,1.05s.46,1,.85,1.48a2.78,2.78,0,0,1-.85,4.13c-.34.16-.75.29-.87.64a1.24,1.24,0,0,0,.08.78,4.23,4.23,0,0,1,.13,1.5.7.7,0,0,1-.18.47.68.68,0,0,1-.44.12c-2,.09-3-.62-4.22,1.14a1.6,1.6,0,0,1-.42.44,1.36,1.36,0,0,1-.56.14c-1.39.11-2.29-.75-3.56-.91-1.76-.23-2.13.68-3.68,1.41C120.93,264.54,119.75,263.84,119.3,262.18Z" style="fill:#ebebeb"></path><path d="M134.76,258.78a6.8,6.8,0,0,1-.22-1.45c-.18-3-3-2.51-5.46-2.92-1.89-.31,3.13-5.1-.69-6.65a3.34,3.34,0,0,1-1.85-1.28,2.18,2.18,0,0,1,.83-2.65,5.12,5.12,0,0,1,2.91-.73c.62-.76.11-1.9-.49-2.67s-1.34-1.66-1.11-2.61c.34-1.44,2.36-1.5,3.81-1.22a10.37,10.37,0,0,0,.79-2.95c.26-1,1.05-2,2.06-1.9s1.54,1.2,2.48,1.42c1.09.25,2-.71,2.89-1.43s2.35-1.18,2.94-.22c.35.57.14,1.36.51,1.92.63,1,2.14.37,3.08-.32s2.42-1.31,3.08-.36a4.42,4.42,0,0,1,.36,1c.44,1.28,1.82,1.92,2.9,2.73s1.92,2.45,1,3.45c-.45.49-1.23.69-1.46,1.32-.28.79.53,1.49,1.16,2,1.06.9,1.25,3.59-.15,4.32-.58.31-1.44.4-1.59,1s.46,1,.85,1.48a2.77,2.77,0,0,1-.85,4.13c-.33.16-.75.29-.87.64a1.32,1.32,0,0,0,.08.78,4,4,0,0,1,.13,1.5.67.67,0,0,1-.18.47.73.73,0,0,1-.44.12c-2,.09-3-.62-4.22,1.13a1.51,1.51,0,0,1-.42.45,1.36,1.36,0,0,1-.56.14c-1.38.11-2.29-.75-3.56-.92-1.76-.22-2.13.69-3.68,1.42C136.4,261.14,135.22,260.43,134.76,258.78Z" style="fill:#ebebeb"></path><path d="M135,275.32a5.47,5.47,0,0,1-.17-1.14c-.14-2.35-2.39-2-4.3-2.3-1.49-.25,2.46-4-.55-5.24a2.62,2.62,0,0,1-1.45-1,1.69,1.69,0,0,1,.66-2.08,4,4,0,0,1,2.28-.58c.49-.59.09-1.49-.38-2.1s-1.06-1.31-.88-2.06c.27-1.13,1.86-1.17,3-.95a8.3,8.3,0,0,0,.63-2.32c.2-.78.82-1.6,1.62-1.5s1.21.94,2,1.11,1.6-.55,2.28-1.12,1.85-.93,2.31-.18c.28.45.11,1.08.4,1.52.5.77,1.69.29,2.42-.25s1.91-1,2.43-.29a3.26,3.26,0,0,1,.29.79c.35,1,1.43,1.51,2.28,2.15s1.51,1.93.8,2.72c-.35.38-1,.54-1.15,1s.41,1.17.91,1.59c.83.71,1,2.83-.12,3.41-.46.24-1.14.31-1.25.82s.36.81.67,1.16a2.19,2.19,0,0,1-.67,3.26c-.26.12-.59.23-.69.5a1,1,0,0,0,.07.62,3.34,3.34,0,0,1,.1,1.18.55.55,0,0,1-.14.37.53.53,0,0,1-.35.09c-1.59.07-2.35-.49-3.32.89a1.11,1.11,0,0,1-.33.35,1,1,0,0,1-.44.11c-1.09.09-1.81-.59-2.8-.71-1.39-.18-1.68.53-2.9,1.11C136.25,277.18,135.32,276.62,135,275.32Z" style="fill:#ebebeb"></path><path d="M143.63,269.6a6.7,6.7,0,0,1-.22-1.44c-.18-3-3-2.51-5.46-2.92-1.9-.32,3.12-5.11-.7-6.65a3.33,3.33,0,0,1-1.84-1.29,2.17,2.17,0,0,1,.83-2.65,5.1,5.1,0,0,1,2.9-.72c.63-.76.12-1.9-.48-2.68s-1.35-1.65-1.12-2.61c.35-1.44,2.36-1.49,3.82-1.21a10.69,10.69,0,0,0,.78-3c.27-1,1.05-2,2.07-1.9s1.54,1.19,2.48,1.41c1.09.26,2-.7,2.89-1.43s2.35-1.17,2.94-.22c.35.57.14,1.37.51,1.93.63,1,2.14.37,3.07-.32s2.43-1.32,3.08-.36a3.74,3.74,0,0,1,.37,1c.44,1.28,1.82,1.91,2.89,2.73s1.93,2.45,1,3.45c-.45.49-1.24.69-1.46,1.32-.28.78.52,1.49,1.16,2,1.05.89,1.24,3.58-.15,4.32-.59.31-1.45.4-1.59,1.05s.46,1,.85,1.47a2.78,2.78,0,0,1-.85,4.13c-.34.16-.75.3-.87.65a1.25,1.25,0,0,0,.08.78,4.15,4.15,0,0,1,.13,1.49.68.68,0,0,1-.18.47.7.7,0,0,1-.45.13c-2,.09-3-.63-4.22,1.13a1.39,1.39,0,0,1-.42.45,1.27,1.27,0,0,1-.55.13c-1.39.12-2.29-.75-3.56-.91-1.76-.22-2.13.68-3.68,1.41C145.26,272,144.08,271.26,143.63,269.6Z" style="fill:#ebebeb"></path><path d="M119.3,244a6.61,6.61,0,0,1-.22-1.44c-.18-3-3-2.51-5.46-2.92-1.89-.31,3.13-5.1-.7-6.65a3.37,3.37,0,0,1-1.84-1.28,2.16,2.16,0,0,1,.83-2.65,5.11,5.11,0,0,1,2.9-.73c.63-.76.12-1.9-.48-2.68S113,224,113.21,223c.35-1.45,2.36-1.5,3.82-1.22a10.71,10.71,0,0,0,.79-2.95c.26-1,1-2,2.06-1.9s1.54,1.2,2.48,1.42c1.09.25,2-.71,2.89-1.43s2.35-1.18,2.94-.23c.35.57.14,1.37.51,1.93.63,1,2.14.37,3.07-.32s2.43-1.31,3.08-.36a4,4,0,0,1,.37,1c.44,1.28,1.82,1.92,2.89,2.73s1.93,2.45,1,3.45c-.45.49-1.24.69-1.46,1.32-.28.78.52,1.49,1.16,2,1,.9,1.25,3.58-.15,4.32-.59.31-1.45.4-1.59,1.05s.46,1,.85,1.47a2.79,2.79,0,0,1-.85,4.14c-.34.16-.75.29-.87.64a1.25,1.25,0,0,0,.08.78,4.19,4.19,0,0,1,.13,1.5.72.72,0,0,1-.18.47.75.75,0,0,1-.44.12c-2,.09-3-.62-4.22,1.13a1.64,1.64,0,0,1-.42.45,1.54,1.54,0,0,1-.56.14c-1.39.11-2.29-.76-3.56-.92-1.76-.22-2.13.69-3.68,1.41C120.93,246.35,119.75,245.64,119.3,244Z" style="fill:#ebebeb"></path><path d="M99.43,245a8.24,8.24,0,0,1-.22-1.44c-.17-3-3-2.52-5.45-2.92-1.9-.32,3.12-5.11-.7-6.65a3.39,3.39,0,0,1-1.85-1.29,2.17,2.17,0,0,1,.84-2.65,5.17,5.17,0,0,1,2.9-.73c.62-.75.12-1.9-.49-2.67S93.12,225,93.35,224c.34-1.44,2.36-1.49,3.81-1.21a10.37,10.37,0,0,0,.79-3c.26-1,1-2,2.07-1.91s1.54,1.2,2.48,1.42c1.09.26,2-.7,2.88-1.43s2.36-1.17,2.94-.22c.36.57.15,1.37.51,1.93.64,1,2.14.37,3.08-.32S114.33,218,115,219a3.72,3.72,0,0,1,.36,1c.45,1.28,1.82,1.91,2.9,2.73s1.93,2.45,1,3.45c-.45.49-1.24.69-1.46,1.32-.28.78.52,1.48,1.15,2,1.06.9,1.25,3.59-.15,4.33-.58.3-1.44.4-1.59,1s.46,1,.85,1.47a2.77,2.77,0,0,1-.85,4.13c-.33.16-.74.29-.87.64a1.35,1.35,0,0,0,.08.79,4.16,4.16,0,0,1,.14,1.49.56.56,0,0,1-.63.6c-2,.09-3-.63-4.22,1.13a1.36,1.36,0,0,1-.42.44,1.19,1.19,0,0,1-.56.14c-1.38.12-2.29-.75-3.55-.91-1.76-.22-2.14.68-3.68,1.41C101.07,247.36,99.89,246.66,99.43,245Z" style="fill:#ebebeb"></path><path d="M87.37,253.13a6.7,6.7,0,0,1-.22-1.44c-.18-3-3-2.52-5.46-2.92-1.89-.32,3.13-5.11-.7-6.65a3.33,3.33,0,0,1-1.84-1.29,2.17,2.17,0,0,1,.83-2.65,5.19,5.19,0,0,1,2.9-.73c.63-.76.12-1.9-.48-2.67s-1.35-1.65-1.12-2.61c.35-1.44,2.36-1.49,3.82-1.21a10.71,10.71,0,0,0,.79-3c.26-1,1-2,2.06-1.91s1.54,1.2,2.48,1.42,2-.71,2.89-1.43,2.35-1.17,2.94-.22c.35.57.14,1.36.51,1.93.63,1,2.14.37,3.07-.32s2.43-1.32,3.08-.36a3.74,3.74,0,0,1,.37,1c.44,1.27,1.82,1.91,2.89,2.73s1.93,2.45,1,3.44c-.45.5-1.24.7-1.46,1.32-.28.79.52,1.49,1.16,2,1,.9,1.25,3.59-.15,4.32-.59.31-1.45.41-1.59,1s.46,1,.85,1.48a2.78,2.78,0,0,1-.85,4.13c-.34.16-.75.29-.87.64a1.24,1.24,0,0,0,.08.78,4.23,4.23,0,0,1,.13,1.5.7.7,0,0,1-.18.47.76.76,0,0,1-.44.13c-2,.09-3-.63-4.23,1.13a1.44,1.44,0,0,1-.41.44,1.22,1.22,0,0,1-.56.14c-1.39.12-2.29-.75-3.56-.91-1.76-.23-2.13.68-3.68,1.41C89,255.49,87.82,254.79,87.37,253.13Z" style="fill:#ebebeb"></path><path d="M91,263.4s5,7.14,6.79,9.4,10.44,16.36,11.62,25.68c.13,1,.26,1.85.38,2.6-3.75,24.7-3.16,69.89-3,77.63h11.86c.11-8.73,1.12-88.48,1.49-90.91s5.35-12.39,13-16.42S147.4,254,147.4,254H145s-4.52,8.18-11,12.7a25,25,0,0,1-2.89,1.72A41.13,41.13,0,0,0,128.55,254l-1.32,1.22c1.78,7.28,1.54,11.94,1,14.62a26.59,26.59,0,0,0-6.65,4.46c-6.68-8.68-10.44-28.54-10.44-28.54l-1.71.93a102.12,102.12,0,0,0,2.21,12.18c1.25,5.14,4.94,14.82,6.65,19.21a46.17,46.17,0,0,0-5.05,9.47,3.41,3.41,0,0,0-.64-.77c-4.35-3.93-12.53-22.52-12.53-22.52-2-4.32,1.05-15.66,1.05-15.66H98.83l-1,9.92-5.74-6.26-1,.87L97.11,261l3.14,9.92-8.18-9.05Z" style="fill:#e6e6e6"></path><path d="M347.94,381.61c-.27-2.26-.15-5.56,2.66-6.49,4.38-1.45,7-4.85,6.84-8.69s4.47-7.58,7.93-4,3-2.77,7.63-4.32,8.53,2.21,7.26,5.64,3.3,5.58,8.75,2.66,11.47,2.39,10.31,6.55-.21,4.62,3.24,3.23c2.93-1.17,7.79,1.47,7.9,5.4Z" style="fill:#e0e0e0"></path><path d="M202.81,112a4.83,4.83,0,0,0-4.83-4.83,4.92,4.92,0,0,0-1.39.2A10.21,10.21,0,0,0,186.47,95.7a9.74,9.74,0,0,0-1.88.18A8.94,8.94,0,0,0,168,100.4h-.15a8.24,8.24,0,0,0,0,16.48h30.26A4.82,4.82,0,0,0,202.81,112Z" style="fill:#f5f5f5"></path><path d="M280.57,159.35a4.84,4.84,0,0,0-6.22-4.63A10.21,10.21,0,0,0,264.23,143a10.71,10.71,0,0,0-1.89.17,8.94,8.94,0,0,0-16.57,4.52h-.15a8.24,8.24,0,0,0,0,16.48h30.25A4.82,4.82,0,0,0,280.57,159.35Z" style="fill:#f5f5f5"></path><path d="M345.69,109.08a3,3,0,0,0-3.87-2.87,5.62,5.62,0,0,0,.07-.92,6.36,6.36,0,0,0-6.36-6.36,5.66,5.66,0,0,0-1.17.11,5.56,5.56,0,0,0-10.31,2.81H324a5.13,5.13,0,0,0,0,10.25h18.81A3,3,0,0,0,345.69,109.08Z" style="fill:#f5f5f5"></path><path d="M434.63,129.59a3,3,0,0,0-3.87-2.88,7,7,0,0,0,.07-.92,6.36,6.36,0,0,0-6.36-6.36,6.45,6.45,0,0,0-1.17.11A5.56,5.56,0,0,0,413,122.35h-.09a5.12,5.12,0,1,0,0,10.24h18.81A3,3,0,0,0,434.63,129.59Z" style="fill:#f5f5f5"></path><path d="M104.45,143.75a3,3,0,0,0-3-3,3.16,3.16,0,0,0-.87.13,5.62,5.62,0,0,0,.07-.92,6.36,6.36,0,0,0-6.36-6.36,6.45,6.45,0,0,0-1.17.11,5.56,5.56,0,0,0-10.31,2.81h-.09a5.13,5.13,0,0,0,0,10.25h18.81A3,3,0,0,0,104.45,143.75Z" style="fill:#f5f5f5"></path><path d="M83.42,381.61c-.16-1.93.1-4.42,2.35-5.17,3.82-1.25,6.08-4.21,6-7.54s3.89-6.59,6.89-3.46,2.61-2.41,6.63-3.75,7.41,1.91,6.31,4.9,2.86,4.84,7.6,2.31,10,2.07,9,5.69-.18,4,2.82,2.8c2.42-1,6.39,1.07,6.83,4.22Z" style="fill:#e0e0e0"></path><path d="M318.72,381.61H249.45c-1-3.25,1.54-7.15,4.29-7.7,3.37-.67,6.76-6.61,6.92-10.38s6.23-15.4,15.67-8.23,6.58,1.06,13.41-1,11.14,3.79,8.14,8.14c0,0,6.86-1.72,9.69,4.69s0,10.38,0,10.38S316.24,377.3,318.72,381.61Z" style="fill:#e0e0e0"></path><rect x="57.55" y="337.05" width="387.67" height="7.22" style="fill:#e0e0e0"></rect><polygon points="62.56 381.87 52.53 381.87 52.53 318.57 57.55 315.01 62.56 318.57 62.56 381.87" style="fill:#e6e6e6"></polygon><polygon points="81.8 381.87 71.78 381.87 71.78 318.57 76.79 315.01 81.8 318.57 81.8 381.87" style="fill:#e6e6e6"></polygon><polygon points="101.05 381.87 91.02 381.87 91.02 318.57 96.04 315.01 101.05 318.57 101.05 381.87" style="fill:#e6e6e6"></polygon><polygon points="120.3 381.87 110.27 381.87 110.27 318.57 115.28 315.01 120.3 318.57 120.3 381.87" style="fill:#e6e6e6"></polygon><polygon points="139.54 381.87 129.51 381.87 129.51 318.57 134.53 315.01 139.54 318.57 139.54 381.87" style="fill:#e6e6e6"></polygon><polygon points="158.79 381.87 148.76 381.87 148.76 318.57 153.77 315.01 158.79 318.57 158.79 381.87" style="fill:#e6e6e6"></polygon><polygon points="178.03 381.87 168 381.87 168 318.57 173.02 315.01 178.03 318.57 178.03 381.87" style="fill:#e6e6e6"></polygon><polygon points="197.28 381.87 187.25 381.87 187.25 318.57 192.26 315.01 197.28 318.57 197.28 381.87" style="fill:#e6e6e6"></polygon><polygon points="216.52 381.87 206.5 381.87 206.5 318.57 211.51 315.01 216.52 318.57 216.52 381.87" style="fill:#e6e6e6"></polygon><polygon points="235.77 381.87 225.74 381.87 225.74 318.57 230.75 315.01 235.77 318.57 235.77 381.87" style="fill:#e6e6e6"></polygon><polygon points="255.01 381.87 244.99 381.87 244.99 318.57 250 315.01 255.01 318.57 255.01 381.87" style="fill:#e6e6e6"></polygon><polygon points="274.26 381.87 264.23 381.87 264.23 318.57 269.25 315.01 274.26 318.57 274.26 381.87" style="fill:#e6e6e6"></polygon><polygon points="293.5 381.87 283.48 381.87 283.48 318.57 288.49 315.01 293.5 318.57 293.5 381.87" style="fill:#e6e6e6"></polygon><polygon points="312.75 381.87 302.72 381.87 302.72 318.57 307.74 315.01 312.75 318.57 312.75 381.87" style="fill:#e6e6e6"></polygon><polygon points="332 381.87 321.97 381.87 321.97 318.57 326.98 315.01 332 318.57 332 381.87" style="fill:#e6e6e6"></polygon><polygon points="351.24 381.87 341.21 381.87 341.21 318.57 346.23 315.01 351.24 318.57 351.24 381.87" style="fill:#e6e6e6"></polygon><polygon points="370.49 381.87 360.46 381.87 360.46 318.57 365.47 315.01 370.49 318.57 370.49 381.87" style="fill:#e6e6e6"></polygon><polygon points="389.73 381.87 379.7 381.87 379.7 318.57 384.72 315.01 389.73 318.57 389.73 381.87" style="fill:#e6e6e6"></polygon><polygon points="408.98 381.87 398.95 381.87 398.95 318.57 403.96 315.01 408.98 318.57 408.98 381.87" style="fill:#e6e6e6"></polygon><polygon points="428.22 381.87 418.2 381.87 418.2 318.57 423.21 315.01 428.22 318.57 428.22 381.87" style="fill:#e6e6e6"></polygon><polygon points="447.47 381.87 437.44 381.87 437.44 318.57 442.45 315.01 447.47 318.57 447.47 381.87" style="fill:#e6e6e6"></polygon></g><g id="freepik--Shadow--inject-12"><ellipse id="freepik--path--inject-12" cx="250" cy="416.24" rx="193.89" ry="11.32" style="fill:#f5f5f5"></ellipse></g><g id="freepik--Bench--inject-12"><polygon points="421.62 405.98 426.51 405.98 416.51 349.54 411.62 349.54 421.62 405.98" style="fill:#263238"></polygon><polygon points="269.62 405.98 274.51 405.98 264.51 349.54 259.62 349.54 269.62 405.98" style="fill:#263238"></polygon><polygon points="421.62 405.98 426.51 405.98 416.51 349.54 411.62 349.54 421.62 405.98" style="fill:#fff;opacity:0.30000000000000004"></polygon><polygon points="269.62 405.98 274.51 405.98 264.51 349.54 259.62 349.54 269.62 405.98" style="fill:#fff;opacity:0.30000000000000004"></polygon><rect x="227.07" y="377.76" width="192" height="4.95" transform="translate(646.13 760.47) rotate(180)" style="fill:#263238"></rect><rect x="227.07" y="377.76" width="192" height="4.95" transform="translate(646.13 760.47) rotate(180)" style="fill:#fff;opacity:0.5"></rect><polygon points="376.51 405.98 371.62 405.98 381.62 349.54 386.51 349.54 376.51 405.98" style="fill:#263238"></polygon><polygon points="224.51 405.98 219.62 405.98 229.62 349.54 234.51 349.54 224.51 405.98" style="fill:#263238"></polygon><polygon points="376.51 405.98 371.62 405.98 381.62 349.54 386.51 349.54 376.51 405.98" style="fill:#fff;opacity:0.30000000000000004"></polygon><polygon points="224.51 405.98 219.62 405.98 229.62 349.54 234.51 349.54 224.51 405.98" style="fill:#fff;opacity:0.30000000000000004"></polygon><polygon points="268.87 347.34 273.74 347.34 281.89 302.04 277.02 302.04 268.87 347.34" style="fill:#263238"></polygon><polygon points="268.87 347.34 273.74 347.34 281.89 302.04 277.02 302.04 268.87 347.34" style="fill:#fff;opacity:0.30000000000000004"></polygon><polygon points="410 347.34 414.87 347.34 423.02 302.04 418.15 302.04 410 347.34" style="fill:#263238"></polygon><polygon points="339.44 347.34 344.31 347.34 352.45 302.04 347.59 302.04 339.44 347.34" style="fill:#263238"></polygon><polygon points="410 347.34 414.87 347.34 423.02 302.04 418.15 302.04 410 347.34" style="fill:#fff;opacity:0.30000000000000004"></polygon><polygon points="339.44 347.34 344.31 347.34 352.45 302.04 347.59 302.04 339.44 347.34" style="fill:#fff;opacity:0.30000000000000004"></polygon><polygon points="260.46 305.14 432.77 305.14 434.3 296.66 261.99 296.66 260.46 305.14" style="fill:#263238"></polygon><polygon points="257.71 320.47 430.01 320.47 431.54 312 259.23 312 257.71 320.47" style="fill:#263238"></polygon><polygon points="254.95 335.81 427.26 335.81 428.78 327.33 256.47 327.33 254.95 335.81" style="fill:#263238"></polygon><rect x="218.6" y="346.01" width="207.39" height="5.86" transform="translate(644.59 697.88) rotate(180)" style="fill:#263238"></rect><polygon points="260.46 305.14 432.77 305.14 434.3 296.66 261.99 296.66 260.46 305.14" style="fill:#fff;opacity:0.5"></polygon><polygon points="257.71 320.47 430.01 320.47 431.54 312 259.23 312 257.71 320.47" style="fill:#fff;opacity:0.5"></polygon><polygon points="254.95 335.81 427.26 335.81 428.78 327.33 256.47 327.33 254.95 335.81" style="fill:#fff;opacity:0.5"></polygon><rect x="218.6" y="346.01" width="207.39" height="5.86" transform="translate(644.59 697.88) rotate(180)" style="fill:#fff;opacity:0.5"></rect><rect x="218.6" y="346.01" width="167.39" height="5.86" transform="translate(604.59 697.88) rotate(180)" style="fill:#fff;opacity:0.2"></rect></g><g id="freepik--Plants--inject-12"><path d="M278.77,399.34s9-8,6.33-9.3-6,6-6.33,4.9,1.77-11.21-3.25-10.51,0,10.51,0,10.51-3.72-4-5-3.39,4,7.79,4,7.79Z" style="fill:#BA68C8"></path><path d="M220.12,400.07c1.82-5.47-4.8-9.58-8.57-8.07s-5,1-3.65-3.63-5.45-10.65-11.59-7.37-11.27.87-9.85-3-3-8.09-8.17-6.35-4.68,8.91-8.58,4.86-9.09.16-8.92,4.48-2.77,8.15-7.7,9.77c-4.2,1.39-3.06,7.5-2.63,9.3Z" style="fill:#BA68C8"></path><path d="M386.67,400.07c-2.68-4.28-14.84-4-14.84-4s3.67-3.51,0-9.15-12.59-4.13-12.59-4.13c3.9-3.84-1.7-8.95-10.58-7.17s-5.15,7.17-17.42.84-20.16,3.92-20.36,7.25-4.62,8.56-9,9.15c-3.76.51-7.18,4.3-5.31,7.25Z" style="fill:#BA68C8"></path><path d="M104.38,398s8-15.52,6-17-6,13-6,11.84.22-20.86-3.45-20.08,0,18.95,0,18.95S96,382.34,94.05,383s5.71,11.74,5.71,11.74-4.56-2.76-5.71-2.55S99.76,398,99.76,398Z" style="fill:#BA68C8"></path><path d="M412.6,399.84s-8-15.52-6-17,6,13,6,11.84-.22-20.86,3.45-20.08,0,18.95,0,18.95,4.94-9.28,6.88-8.58-5.71,11.74-5.71,11.74,4.57-2.76,5.71-2.55-5.71,5.72-5.71,5.72Z" style="fill:#BA68C8"></path></g><g id="freepik--Floor--inject-12"><path d="M63.08,396.71H437.65a0,0,0,0,1,0,0v17.12a1.89,1.89,0,0,1-1.89,1.89H65a1.89,1.89,0,0,1-1.89-1.89V396.71A0,0,0,0,1,63.08,396.71Z" transform="translate(500.73 812.42) rotate(180)" style="fill:#BA68C8"></path><path d="M63.08,396.71H437.65a0,0,0,0,1,0,0v17.12a1.89,1.89,0,0,1-1.89,1.89H65a1.89,1.89,0,0,1-1.89-1.89V396.71A0,0,0,0,1,63.08,396.71Z" transform="translate(500.73 812.42) rotate(180)" style="fill:#fff;opacity:0.5"></path><rect x="64.93" y="400.51" width="24.53" height="12.88" transform="translate(154.38 813.9) rotate(180)" style="fill:#fff;opacity:0.2"></rect><rect x="90.77" y="399.29" width="24.53" height="12.88" transform="translate(206.07 811.46) rotate(180)" style="fill:#fff;opacity:0.2"></rect><rect x="116.34" y="403.98" width="15.97" height="8.19" transform="translate(248.66 816.14) rotate(180)" style="fill:#fff;opacity:0.2"></rect><rect x="415.65" y="405.03" width="15.97" height="8.19" transform="translate(847.27 818.26) rotate(180)" style="fill:#fff;opacity:0.2"></rect><rect x="133.59" y="399.88" width="16.79" height="11.21" transform="translate(283.97 810.98) rotate(180)" style="fill:#fff;opacity:0.2"></rect><rect x="151.61" y="398.37" width="11.42" height="11.21" transform="translate(314.65 807.95) rotate(180)" style="fill:#fff;opacity:0.2"></rect><rect x="402.38" y="400.51" width="11.42" height="11.21" transform="translate(816.17 812.24) rotate(180)" style="fill:#fff;opacity:0.2"></rect><rect x="199.74" y="400.51" width="11.42" height="11.21" transform="translate(410.9 812.24) rotate(180)" style="fill:#fff;opacity:0.2"></rect><rect x="187.75" y="398.37" width="11.42" height="7.75" transform="translate(386.91 804.49) rotate(180)" style="fill:#fff;opacity:0.2"></rect><rect x="164.2" y="401.34" width="18.81" height="11.21" transform="translate(347.21 813.9) rotate(180)" style="fill:#fff;opacity:0.2"></rect><rect x="212.46" y="399.88" width="18.81" height="11.21" transform="translate(443.73 810.98) rotate(180)" style="fill:#fff;opacity:0.2"></rect><rect x="117.46" y="399.29" width="12.11" height="3.61" transform="translate(247.02 802.18) rotate(180)" style="fill:#fff;opacity:0.2"></rect><rect x="419.51" y="399.54" width="12.11" height="3.61" transform="translate(851.13 802.69) rotate(180)" style="fill:#fff;opacity:0.2"></rect><rect x="185.22" y="407.78" width="12.11" height="3.61" transform="translate(382.55 819.17) rotate(180)" style="fill:#fff;opacity:0.2"></rect><rect x="232.93" y="400.51" width="24.53" height="12.88" transform="translate(490.38 813.9) rotate(180)" style="fill:#fff;opacity:0.2"></rect><rect x="258.77" y="399.29" width="24.53" height="12.88" transform="translate(542.07 811.46) rotate(180)" style="fill:#fff;opacity:0.2"></rect><rect x="284.34" y="403.98" width="15.97" height="8.19" transform="translate(584.66 816.14) rotate(180)" style="fill:#fff;opacity:0.2"></rect><rect x="301.59" y="399.88" width="16.79" height="11.21" transform="translate(619.97 810.98) rotate(180)" style="fill:#fff;opacity:0.2"></rect><rect x="319.61" y="398.37" width="11.42" height="11.21" transform="translate(650.65 807.95) rotate(180)" style="fill:#fff;opacity:0.2"></rect><rect x="367.74" y="400.51" width="11.42" height="11.21" transform="translate(746.9 812.24) rotate(180)" style="fill:#fff;opacity:0.2"></rect><rect x="355.75" y="398.37" width="11.42" height="7.75" transform="translate(722.91 804.49) rotate(180)" style="fill:#fff;opacity:0.2"></rect><rect x="332.2" y="401.34" width="18.81" height="11.21" transform="translate(683.21 813.9) rotate(180)" style="fill:#fff;opacity:0.2"></rect><rect x="380.46" y="399.88" width="18.81" height="11.21" transform="translate(779.73 810.98) rotate(180)" style="fill:#fff;opacity:0.2"></rect><rect x="285.46" y="399.29" width="12.11" height="3.61" transform="translate(583.02 802.18) rotate(180)" style="fill:#fff;opacity:0.2"></rect><rect x="353.22" y="407.78" width="12.11" height="3.61" transform="translate(718.55 819.17) rotate(180)" style="fill:#fff;opacity:0.2"></rect></g><g id="freepik--Lines--inject-12"><path d="M275.9,203.6h-9.3a.5.5,0,0,1-.5-.5.5.5,0,0,1,.5-.5h9.3a.5.5,0,0,1,.5.5A.5.5,0,0,1,275.9,203.6Z" style="fill:#263238"></path><path d="M324.16,203.6H277.75a.5.5,0,0,1-.5-.5.5.5,0,0,1,.5-.5h46.41a.5.5,0,0,1,.5.5A.5.5,0,0,1,324.16,203.6Z" style="fill:#263238"></path><path d="M344.47,203.6H326.54a.5.5,0,0,1-.5-.5.5.5,0,0,1,.5-.5h17.93a.5.5,0,0,1,.5.5A.5.5,0,0,1,344.47,203.6Z" style="fill:#263238"></path><path d="M353.48,203.6h-4.26a.51.51,0,0,1-.5-.5.5.5,0,0,1,.5-.5h4.26a.5.5,0,0,1,.5.5A.51.51,0,0,1,353.48,203.6Z" style="fill:#263238"></path><path d="M275.76,269.33H257.82a.5.5,0,0,1-.5-.5.51.51,0,0,1,.5-.5h17.94a.51.51,0,0,1,.5.5A.5.5,0,0,1,275.76,269.33Z" style="fill:#263238"></path><path d="M284.76,269.33h-4.25a.5.5,0,0,1-.5-.5.5.5,0,0,1,.5-.5h4.25a.5.5,0,0,1,.5.5A.5.5,0,0,1,284.76,269.33Z" style="fill:#263238"></path><path d="M267.72,215.51h-4.84a.5.5,0,0,1-.5-.5.5.5,0,0,1,.5-.5h4.84a.5.5,0,0,1,.5.5A.5.5,0,0,1,267.72,215.51Z" style="fill:#263238"></path><path d="M297.26,215.51H271.68a.5.5,0,0,1-.5-.5.5.5,0,0,1,.5-.5h25.58a.5.5,0,0,1,.5.5A.5.5,0,0,1,297.26,215.51Z" style="fill:#263238"></path><path d="M314,215.51H303.59a.5.5,0,0,1-.5-.5.51.51,0,0,1,.5-.5H314a.5.5,0,0,1,.5.5A.5.5,0,0,1,314,215.51Z" style="fill:#263238"></path><path d="M257.19,279.45h-4.85a.5.5,0,0,1-.5-.5.5.5,0,0,1,.5-.5h4.85a.51.51,0,0,1,.5.5A.5.5,0,0,1,257.19,279.45Z" style="fill:#263238"></path><path d="M286.73,279.45H261.14a.5.5,0,0,1-.5-.5.51.51,0,0,1,.5-.5h25.59a.51.51,0,0,1,.5.5A.5.5,0,0,1,286.73,279.45Z" style="fill:#263238"></path><path d="M303.43,279.45H293.06a.5.5,0,0,1-.5-.5.5.5,0,0,1,.5-.5h10.37a.5.5,0,0,1,.5.5A.5.5,0,0,1,303.43,279.45Z" style="fill:#263238"></path></g><g id="freepik--Character--inject-12"><path d="M185.05,207.64a122.18,122.18,0,0,1-16,13.05c-2.7,1.73-5.37,4.28-8.89,3.83-7.15-1-9.56-9.52-11.4-15.21a83.42,83.42,0,0,1-2.73-13.55l5.93-1.49c1.71,4,3.43,8,5.27,11.81,1.49,2.82,2.78,5.89,5,7.95.13.09.18,0-.18-.18a3.4,3.4,0,0,0-3.13.21l.6-.5c4.62-3.84,12.37-10.77,16.94-14.83l8.55,8.91Z" style="fill:#ffb573"></path><path d="M193.47,203.19c-.31.87-2,2.5-4.27,4.46s-5.41,4.38-8.39,6.61c-5.67,4.24-11.1,8-11.1,8l-7.37-12-.53-.87-.16-.26s14.73-14.27,20.16-15.17h0a3,3,0,0,1,.66,0,9.43,9.43,0,0,1,1.43.23C188.73,195.26,194.75,199.63,193.47,203.19Z" style="fill:#BA68C8"></path><path d="M183.91,194.19a37.61,37.61,0,0,0-4.41,2.07c-4.5,2.6-13.9,11.06-17.16,14l-.53-.87c3.4-3.11,12.61-11.38,17.19-14,.82-.47,1.78-1,2.81-1.41h0a3,3,0,0,1,.66,0A9.43,9.43,0,0,1,183.91,194.19Z" style="fill:#fff"></path><path d="M189.2,207.65c-2.36,2-5.41,4.38-8.39,6.61a41.3,41.3,0,0,1,.29-8.1C184.91,205.57,187.51,206.25,189.2,207.65Z" style="opacity:0.2"></path><path d="M178,155.35s2.12-9.35,15.66-10.53S215,163.64,208.54,172c-7.33,9.4-15.6,6.36-15.6,6.36Z" style="fill:#263238"></path><path d="M152,183.52l1.78,3.51a1.78,1.78,0,0,1,.11,1.34l-1.67,5.28a7.38,7.38,0,0,1-4.31,4.64h0c-2.58-1.94-3.36-5.83-3.49-6.58a1.94,1.94,0,0,1,0-.24l-.16-6.21a1.79,1.79,0,0,1,1.43-1.8l4.38-.88A1.78,1.78,0,0,1,152,183.52Z" style="fill:#ffb573"></path><path d="M311.74,372.43,308.92,377c-6.2-4.49-47-27.72-69-38.08-.58-.27-1.38-.61-2.25-1h0a13.06,13.06,0,0,1-5.44-4.31c-10.7-17.25-28.05-54.61-32.59-64.48l-1.12-2.45,17.49-6a7.84,7.84,0,0,1,2.49,1.37c4.93,3.64,16.52,16.55,28.89,61.38a2.82,2.82,0,0,0,1.44,1.53,3.72,3.72,0,0,0,.72.26C279.18,335.1,311.74,372.43,311.74,372.43Z" style="fill:#ffb573"></path><path d="M248.42,318.65l-19.84,10.52c-.61-.81-1.21-1.63-1.82-2.49A226,226,0,0,1,206.38,292c-5.72-12.21-10-24.6-10.75-34.88,0,0,27-5.91,32,5.7.56,1.3,1.25,3,2,5,3.21,8.16,8.05,21.3,12,32.18C245.45,310.36,248.42,318.65,248.42,318.65Z" style="fill:#BA68C8"></path><path d="M241.67,300a142.59,142.59,0,0,1-14.91,26.66A226,226,0,0,1,206.38,292l3.79-15.77-4.28-13.41a100.93,100.93,0,0,1,23.77,5C232.87,276,237.71,289.14,241.67,300Z" style="opacity:0.2"></path><path d="M309.37,367.42c-.69-.28-3.77,8.37-3.77,8.37s3,7.44,2.06,13,3.24,4,5.66-1.59,4.26-9.92,6-13.91S316.54,370.31,309.37,367.42Z" style="fill:#263238"></path><path d="M305.85,381.14a1.34,1.34,0,0,1-.52.66.88.88,0,0,1-1-.18,1,1,0,0,1-.38-.7,3.85,3.85,0,0,1,.61-2c-.66.52-1.36.93-1.81.77s-.46-.4-.47-.86a1.41,1.41,0,0,1,.43-1.1c1-.93,3.22-.8,3.33-.79l.1,0h0l.06.05h0l.05.06h0a.3.3,0,0,1,0,.1A11.59,11.59,0,0,1,305.85,381.14Zm-1.16-1.34a2.25,2.25,0,0,0-.25,1.07.58.58,0,0,0,.19.37c.3.22.43.15.47.13.5-.26.7-2,.71-3.46A10.59,10.59,0,0,0,304.69,379.8Zm-1.85-1.38a1,1,0,0,0-.07.42c0,.14,0,.38.15.42.39.15,1.56-.78,2.57-1.82a4,4,0,0,0-2.43.67A.84.84,0,0,0,302.84,378.42Z" style="fill:#BA68C8"></path><path d="M179.44,194.81s-3.68,2.32,15.56,49.68l34.05-7.77c-3.74-13.73-5.81-22.26-5.69-52.21a100.63,100.63,0,0,0-14.78,1.38,110.77,110.77,0,0,0-15.46,3.53C186.61,191.55,179.44,194.81,179.44,194.81Z" style="fill:#BA68C8"></path><g style="opacity:0.8"><path d="M229.05,236.71,195,244.48c-7.83-19.27-11.86-31.09-13.89-38.32-3-10.54-1.67-11.36-1.67-11.36s7.18-3.26,13.68-5.38a111.25,111.25,0,0,1,15.47-3.53,101.45,101.45,0,0,1,14.78-1.39c0,3.55,0,6.79.06,9.77,0,1.2,0,2.35.06,3.46,0,1.56.08,3.05.14,4.47.07,1.61.14,3.14.23,4.58.05.77.1,1.53.16,2.26C224.88,221,226.62,227.74,229.05,236.71Z" style="fill:#fff"></path></g><path d="M223.62,202.2c-.59-.5-9-9.18-17.44-11.35,0,0-5.08,6.77-11.78,6.94-4.92.11-4-4-4-4a18.18,18.18,0,0,0-8.87,11.2,6.3,6.3,0,0,1-.44,1.14c-1.5-5.34-1.91-8.19-1.94-9.69a5.25,5.25,0,0,1,.07-1.2c.08-.39.2-.47.2-.47s7.18-3.26,13.68-5.38a111.25,111.25,0,0,1,15.47-3.53,95.87,95.87,0,0,1,11.21-1.25h.05c.92-.06,1.7-.09,2.29-.11a1.17,1.17,0,0,1,.94.43,1.1,1.1,0,0,1,.28.64.57.57,0,0,1,0,.13v.88c0,4.11,0,7.78.12,11.12C223.52,199.29,223.56,200.78,223.62,202.2Z" style="fill:#BA68C8"></path><path d="M250.55,199.11,250,200c-.21-.12-20.47-12.67-27.21-13.44-5.53-.64-12.75.35-15.26.74.11-.38.21-.74.29-1.06,2.88-.43,9.74-1.29,15.09-.67C229.88,186.32,249.71,198.59,250.55,199.11Z" style="fill:#fff"></path><path d="M223.07,185a26,26,0,0,0-3.23-.32c.92-.06,1.7-.09,2.29-.11A1.17,1.17,0,0,1,223.07,185Z" style="fill:#fff"></path><path d="M191.66,190.39a9.87,9.87,0,0,0-.65,1.26,67.71,67.71,0,0,0-11.51,4.61l-.34.21a5.25,5.25,0,0,1,.07-1.2A75.47,75.47,0,0,1,191.66,190.39Z" style="fill:#fff"></path><path d="M224,209c-4.15-5.76-5.16-13.69-5.16-13.69,1.31-.87,3.5-.89,4.57-1.08,0,1.2,0,2.35.06,3.46,0,1.56.08,3.05.14,4.47.07,1.61.14,3.14.23,4.58C223.9,207.55,224,208.31,224,209Z" style="opacity:0.2"></path><path d="M232.1,305.66c-2.78,6.84-6.37,14.71-11,23.76q-2.54,5-5.5,10.41c-4,31.72-35.11,71.8-35.11,71.8l-5.18-1.92c3.28-7.11,18.56-52.69,24.61-76.84,5.77-23,19.43-76.93,19.43-76.93l20.46,7.56S245.71,272.16,232.1,305.66Z" style="fill:#ffb573"></path><path d="M198,170.67c1.1,5.08,3.89,14.06,8.52,15.78,0,0,.77,5.3-7.94,9.06-9.57,4.13-6.63-2.78-6.63-2.78,4.69-3.5,2.88-7.32.4-10.57Z" style="fill:#ffb573"></path><path d="M195.73,175.36l-3.35,6.8a15.86,15.86,0,0,1,1.57,2.39c1.87-1.15,3.67-4.53,3-6.71A7.68,7.68,0,0,0,195.73,175.36Z" style="opacity:0.2"></path><path d="M201,161.73c.58,8.51,1,12.11-2.69,17-5.57,7.36-16.16,6.21-19.27-2-2.81-7.35-3.29-20,4.54-24.48A11.64,11.64,0,0,1,201,161.73Z" style="fill:#ffb573"></path><path d="M195.46,155.57c-2.06,3.19,1,13.25,5.36,14.61C213.29,170.16,202.61,144.5,195.46,155.57Z" style="fill:#263238"></path><path d="M184,148.56c-7.22,3.58-6.91,12-6.91,12,1.78-.94,7.19-1.81,11.05-.95a15.2,15.2,0,0,1-.4-5.63l8.52,4.22s5.51.08,2.78-5.21C197.26,149.64,189.26,145.93,184,148.56Z" style="fill:#263238"></path><path d="M187,166c.09.69-.21,1.3-.66,1.36s-.88-.45-1-1.14.2-1.3.65-1.35S186.88,165.29,187,166Z" style="fill:#263238"></path><path d="M179.19,167c.09.69-.2,1.29-.65,1.35s-.89-.45-1-1.14.21-1.29.66-1.35S179.1,166.3,179.19,167Z" style="fill:#263238"></path><path d="M178.42,165.86l-1.72-.26S177.72,166.78,178.42,165.86Z" style="fill:#263238"></path><path d="M182.55,167.67a18.53,18.53,0,0,1-1.88,4.71,3,3,0,0,0,2.51.14Z" style="fill:#ed893e"></path><path d="M187.66,175a6.58,6.58,0,0,1-.92.46.2.2,0,0,1-.26-.12.19.19,0,0,1,.11-.26,5.52,5.52,0,0,0,3.36-3.66.2.2,0,1,1,.4.08A5.67,5.67,0,0,1,187.66,175Z" style="fill:#263238"></path><path d="M204.24,169.18a6.23,6.23,0,0,1-2.77,3.87c-1.86,1.14-3.39-.38-3.37-2.45,0-1.87,1-4.71,3.12-5A2.79,2.79,0,0,1,204.24,169.18Z" style="fill:#ffb573"></path><path d="M191,163a.41.41,0,0,1-.48,0c-1.51-1.12-3.82-.38-3.85-.37a.41.41,0,0,1-.51-.26.42.42,0,0,1,.26-.52c.11,0,2.74-.87,4.59.5a.4.4,0,0,1,.08.57Z" style="fill:#263238"></path><path d="M177,163.94a.39.39,0,0,1-.37-.16.4.4,0,0,1,.07-.57,4.09,4.09,0,0,1,3.64-.77.41.41,0,0,1,.25.52.4.4,0,0,1-.51.25h0a3.24,3.24,0,0,0-2.88.65A.5.5,0,0,1,177,163.94Z" style="fill:#263238"></path><path d="M186.19,164.85l-1.71-.26S185.49,165.77,186.19,164.85Z" style="fill:#263238"></path><path d="M199,153c-4.55-4.6-12,.68-12,.68s.38,3.15,5.16,7.09l.43-.22s-3.25-2.85-3.89-5.79a19,19,0,0,0,9,7.89C203.68,165.09,203.55,157.59,199,153Z" style="fill:#263238"></path><path d="M230.29,190a124.67,124.67,0,0,1,21.87,10,10.52,10.52,0,0,1,2.84,2c8.48,9.49-10.67,23.33-17.59,28.16l-4-4.61c2.76-3.32,5.59-6.7,8.13-10,1.83-2.61,4-5.16,4.81-8.07,0-.15-.07-.17-.08.24a3.38,3.38,0,0,0,1.61,2.69l-.72-.3c-5.52-2.38-15.21-6.13-20.91-8.36L230.29,190Z" style="fill:#ffb573"></path><path d="M183.85,408.63c.06-.74-9.12-1.05-9.12-1.05s-6.16,5.16-11.74,5.91-2.84,4.32,3.25,4.92l15.06,1.46C185.63,420.29,183.29,416.34,183.85,408.63Z" style="fill:#263238"></path><path d="M169.71,409.45a1.21,1.21,0,0,1-.78-.3.86.86,0,0,1-.13-1,1,1,0,0,1,.55-.57,3.74,3.74,0,0,1,2.06,0c-.7-.47-1.3-1-1.28-1.5,0-.31.24-.55.67-.71a1.39,1.39,0,0,1,1.18.09c1.18.63,1.74,2.81,1.77,2.93a.28.28,0,0,1,0,.09h0l0,.07h0l0,.06h0l-.08.05A11.63,11.63,0,0,1,169.71,409.45Zm.93-1.51a2.17,2.17,0,0,0-1.09.09.53.53,0,0,0-.3.29c-.12.35,0,.46,0,.49.39.4,2.11.06,3.51-.38A10.29,10.29,0,0,0,170.64,407.94Zm.75-2.18a.83.83,0,0,0-.43.06c-.13,0-.35.14-.35.27,0,.41,1.22,1.25,2.52,1.89a4.08,4.08,0,0,0-1.37-2.11A1,1,0,0,0,171.39,405.76Z" style="fill:#BA68C8"></path><path d="M219.12,335.65l-3.42-1-1-.28-1.25-.36-1-.28-13.23-3.82,14-56.16s-14.24-7.35-16.48-11.54c-1.65-3.06-2.06-17-2.06-17l-1-2.46,31.8-7.3,1-.23.7-.16,1-.23,1.06-.24,1.42,3.54s10.93,12.17,13,28.07C246.7,289.89,219.12,335.65,219.12,335.65Z" style="fill:#BA68C8"></path><path d="M213.49,334l-1-.28c5.84-13.17,22-51,23.06-68,.77-12.6-9-27.51-9.09-27.66l-.05-.1-.9-2.54,1-.23.85,2.37c.74,1.14,10,15.54,9.22,28.22C235.52,282.94,219.39,320.7,213.49,334Z" style="fill:#fff"></path><path d="M215.7,334.66l-1-.28c5.83-13.48,23.4-55.31,23-69.9-.39-14.81-9.14-26.06-9.23-26.17l-.07-.13L227.21,235l1-.23,1.17,2.94c.7.92,9,12.12,9.39,26.7C239.14,279.41,221.66,321,215.7,334.66Z" style="fill:#fff"></path><path d="M208.52,249.75h0c-3.14-.31-5-2.95-5.89-4.62-.18,1.35-.62,3.19-1.69,3.66a2,2,0,0,1-2.16-.65,2.18,2.18,0,0,1-.94-2.18c.45-1.7,3.73-2.51,4.38-2.65.71-.48,4.8-3.13,6.72-2.39a1.5,1.5,0,0,1,1,1.11,1.46,1.46,0,0,1-.32,1.39c-.94,1-3.56,1-5.39.84a19,19,0,0,0,8.37,1.56.38.38,0,0,1,.4.35.37.37,0,0,1-.35.4,18.93,18.93,0,0,1-9.39-2c.78,1.51,2.52,4.11,5.38,4.39a.37.37,0,0,1,.34.41A.39.39,0,0,1,208.52,249.75Zm-6.58-5.61c-1.35.36-3.17,1.12-3.41,2-.11.41.13.89.72,1.42s1,.67,1.36.52C201.43,247.74,201.84,245.65,201.94,244.14Zm1.46-.71c2.09.24,4.85.28,5.59-.52a.69.69,0,0,0,.14-.7.74.74,0,0,0-.48-.59C207.51,241.19,205,242.49,203.4,243.43Z" style="fill:#fff"></path><path d="M223.82,230.42l2.32-3.18a1.81,1.81,0,0,1,1.15-.71l5.46-.91a7.35,7.35,0,0,1,6.08,1.73h0c-.55,3.18-3.66,5.64-4.27,6.1a1.37,1.37,0,0,1-.2.13l-5.46,3a1.78,1.78,0,0,1-2.25-.46l-2.78-3.5A1.79,1.79,0,0,1,223.82,230.42Z" style="fill:#ffb573"></path><path d="M249,168.44c-5.45-4.89-10.14-5.37-10.14-5.37a19.31,19.31,0,0,1,9.71,6.52l-5.23,4.76s-2.9-5.72-7.65-6.68-10.28.17-15.82-4.55-5.41-12-14.77-9l-1-3.39a17.29,17.29,0,0,1,11.39-6c7.78-1,10.76,7.44,15.66,10.73s14-6.47,24.42,6.06Z" style="fill:#263238"></path><path d="M255.87,158.21c-6.22-6.78-13.32-4.83-18.5-3.41l-2,.53c-5.64,1.37-10.57-4.05-10.78-4.28l.75-.66c0,.05,4.75,5.19,9.79,4,.62-.15,1.27-.33,1.95-.51,5.43-1.49,12.88-3.54,19.5,3.69Z" style="fill:#263238"></path><path d="M250.28,197l-.51.84-.35.57-.52.86-6.63,10.86s-21.19-7.25-23-11.64c-1.39-3.37-1.24-9.23.59-12.18a5.52,5.52,0,0,1,.78-1,3.27,3.27,0,0,1,.87-.59h0a2.54,2.54,0,0,1,1-.25C228.26,184.18,250.28,197,250.28,197Z" style="fill:#BA68C8"></path><path d="M249.42,198.42l-.52.86c-4.37-2.65-20.27-12.1-26.09-12.76-.94-.11-1.94-.17-2.95-.2a5.52,5.52,0,0,1,.78-1c.78,0,1.55.1,2.29.18C229,186.22,245,195.72,249.42,198.42Z" style="fill:#fff"></path><path d="M250.28,197l-.51.84c-3.68-2.16-19.05-11.07-25.27-12.6a21.3,21.3,0,0,0-3-.49,2.54,2.54,0,0,1,1-.25C228.26,184.18,250.28,197,250.28,197Z" style="fill:#fff"></path></g></svg>